<?xml version="1.0" encoding="UTF-8" ?>
<svg width="21px" height="26px" viewBox="0 0 21 26" version="1.1" xmlns="http://www.w3.org/2000/svg" xmlns:xlink="http://www.w3.org/1999/xlink">
    <g stroke="none" stroke-width="1" fill="none" fill-rule="evenodd">
        <g transform="translate(-57.000000, -584.000000)">
            <g transform="translate(24.000000, 328.000000)">
                <g transform="translate(32.000000, 205.000000)">
                    <g transform="translate(1.000000, 49.000000)">
                        <g transform="translate(0.000000, 2.000000)">
                            <path d="M10.5,26 C12.0682662,26 13.3004753,24.7698925 13.3004753,23.2043011 L7.69952473,23.2043011 C7.69952473,24.7698925 8.93173385,26 10.5,26 Z" fill="#999999" fill-rule="nonzero"></path>
                            <path d="M19.967637,20.5768568 L19.9470955,20.5332495 L18.1814733,16.5379984 L18.1814733,10.9032258 C18.1814733,7.76904128 16.1685319,4.87591947 13.2178525,3.72761645 L12.6282275,3.49815463 L12.5830728,2.86706708 C12.5085838,1.8260006 11.6007292,1 10.5,1 C9.41556818,1 8.53040116,1.81568368 8.41376706,2.90241199 L8.34845862,3.51091782 L7.77688077,3.72964897 C4.80262766,4.86783478 2.81852666,7.73987446 2.81852666,10.9032258 L2.81852666,16.5379984 L2.73318968,16.7310989 L1.05179541,20.5357499 C0.969245189,20.7211711 0.986181154,20.9296918 1.0978518,21.1080601 C1.19605676,21.26492 1.38093626,21.3655914 1.59448864,21.3655914 L19.4055114,21.3655914 C19.6190637,21.3655914 19.8039432,21.26492 19.9021482,21.1080601 C20.0072149,20.94024 20.0266364,20.6946543 19.967637,20.5768568 Z" stroke="#979797" stroke-width="2" fill-rule="nonzero"></path>
                        </g>
                    </g>
                </g>
            </g>
        </g>
    </g>
</svg>