<?xml version="1.0" encoding="UTF-8"?>
<svg width="28px" height="28px" viewBox="0 0 28 28" version="1.1" xmlns="http://www.w3.org/2000/svg" xmlns:xlink="http://www.w3.org/1999/xlink">
    <g stroke="none" stroke-width="1" fill="none" fill-rule="evenodd">
        <circle fill="#FFFFFF" fill-rule="nonzero" cx="14" cy="14" r="13"></circle>
        <path d="M10.5857864,17.8284271 L12,19.2426407 C12.3905243,19.633165 12.3905243,20.26633 12,20.6568542 C11.6094757,21.0473785 10.9763107,21.0473785 10.5857864,20.6568542 L9.17157288,19.2426407 L7.75735931,20.6568542 C7.36683502,21.0473785 6.73367004,21.0473785 6.34314575,20.6568542 C5.95262146,20.26633 5.95262146,19.633165 6.34314575,19.2426407 L7.75735931,17.8284271 L6.34314575,16.4142136 C5.95262146,16.0236893 5.95262146,15.3905243 6.34314575,15 C6.73367004,14.6094757 7.36683502,14.6094757 7.75735931,15 L9.17157288,16.4142136 L9.93734013,15.6484463 C8.26741183,13.3052419 8.4835606,10.031158 10.5857864,7.92893219 C12.9289322,5.58578644 16.7279221,5.58578644 19.0710678,7.92893219 C21.4142136,10.2720779 21.4142136,14.0710678 19.0710678,16.4142136 C16.968842,18.5164394 13.6947581,18.7325882 11.3515537,17.0626599 L10.5857864,17.8284271 Z M14,26 C20.627417,26 26,20.627417 26,14 C26,7.372583 20.627417,2 14,2 C7.372583,2 2,7.372583 2,14 C2,20.627417 7.372583,26 14,26 Z M14,28 C6.2680135,28 0,21.7319865 0,14 C0,6.2680135 6.2680135,0 14,0 C21.7319865,0 28,6.2680135 28,14 C28,21.7319865 21.7319865,28 14,28 Z M12,15 C13.5620972,16.5620972 16.0947571,16.5620972 17.6568542,15 C19.2189514,13.4379028 19.2189514,10.9052429 17.6568542,9.34314575 C16.0947571,7.78104858 13.5620972,7.78104858 12,9.34314575 C10.4379028,10.9052429 10.4379028,13.4379028 12,15 Z" fill="#FF5B7D" fill-rule="nonzero"></path>
    </g>
</svg>