<?xml version="1.0" encoding="UTF-8"?>
<svg width="28px" height="28px" viewBox="0 0 28 28" version="1.1" xmlns="http://www.w3.org/2000/svg" xmlns:xlink="http://www.w3.org/1999/xlink">
    <g stroke="none" stroke-width="1" fill="none" fill-rule="evenodd">
        <circle fill="#FFFFFF" fill-rule="nonzero" cx="14" cy="14" r="13"></circle>
        <path d="M18.2670626,10.6442635 L16.3498235,12.5615026 C18.0197518,14.904707 17.803603,18.1787909 15.7013772,20.2810167 C13.3582314,22.6241625 9.55924156,22.6241625 7.21609581,20.2810167 C4.87295006,17.937871 4.87295006,14.1388811 7.21609581,11.7957353 C9.31832165,9.69350949 12.5924055,9.47736072 14.9356099,11.147289 L16.8930511,9.18984788 L15.2670626,9.18984788 C14.7147779,9.18984788 14.2670626,8.74213263 14.2670626,8.18984788 C14.2670626,7.63756313 14.7147779,7.18984788 15.2670626,7.18984788 L19.2670626,7.18984788 C19.8193474,7.18984788 20.2670626,7.63756313 20.2670626,8.18984788 L20.2670626,12.1898479 C20.2670626,12.7421326 19.8193474,13.1898479 19.2670626,13.1898479 C18.7147779,13.1898479 18.2670626,12.7421326 18.2670626,12.1898479 L18.2670626,10.6442635 Z M14,26 C20.627417,26 26,20.627417 26,14 C26,7.372583 20.627417,2 14,2 C7.372583,2 2,7.372583 2,14 C2,20.627417 7.372583,26 14,26 Z M14,28 C6.2680135,28 0,21.7319865 0,14 C0,6.2680135 6.2680135,0 14,0 C21.7319865,0 28,6.2680135 28,14 C28,21.7319865 21.7319865,28 14,28 Z M14.2871636,13.2099489 C12.7250665,11.6478517 10.1924065,11.6478517 8.63030937,13.2099489 C7.06821221,14.7720461 7.06821221,17.304706 8.63030937,18.8668031 C10.1924065,20.4289003 12.7250665,20.4289003 14.2871636,18.8668031 C15.8492608,17.304706 15.8492608,14.7720461 14.2871636,13.2099489 Z" fill="#3A8FFF" fill-rule="nonzero"></path>
    </g>
</svg>