<?xml version="1.0" encoding="UTF-8"?>
<svg width="57px" height="63px" viewBox="0 0 57 63" version="1.1" xmlns="http://www.w3.org/2000/svg" xmlns:xlink="http://www.w3.org/1999/xlink">
    <g stroke="none" stroke-width="1" fill="none" fill-rule="evenodd">
        <g transform="translate(-24.000000, -170.000000)" fill="#333333">
            <g transform="translate(0.000000, 144.000000)">
                <g transform="translate(24.000000, 26.000000)">
                        <path d="M3,3 L3,60 L54,60 L54,3 L3,3 Z M2,0 L55,0 C56.1045695,0 57,0.841971963 57,1.88059701 L57,61.119403 C57,62.158028 56.1045695,63 55,63 L2,63 C0.8954305,63 0,62.158028 0,61.119403 L0,1.88059701 C0,0.841971963 0.8954305,0 2,0 Z" fill-rule="nonzero"></path>
                        <rect x="9" y="11" width="9" height="9"></rect>
                        <rect x="9" y="32" width="38" height="3"></rect>
                        <rect x="9" y="41" width="29" height="3"></rect>
                        <rect x="24" y="13" width="5" height="5"></rect>
                        <rect x="32" y="13" width="5" height="5"></rect>
                        <rect x="41" y="13" width="5" height="5"></rect>
                </g>
            </g>
        </g>
    </g>
</svg>