<?xml version="1.0" encoding="UTF-8" ?>
<svg width="46px" height="44px" viewBox="0 0 46 44" version="1.1" xmlns="http://www.w3.org/2000/svg" xmlns:xlink="http://www.w3.org/1999/xlink">
    <g stroke="none" stroke-width="1" fill="none" fill-rule="evenodd">
        <g transform="translate(-57.000000, -348.000000)" fill-rule="nonzero">
            <g transform="translate(24.000000, 328.000000)">
                <g transform="translate(32.000000, 20.000000)">
                    <path d="M22.0000958,1.5 C21.865753,1.5 21.7314291,1.5031929 21.597238,1.50957598 C16.9198017,1.73206824 13.308356,5.70424513 13.5308483,10.3816814 L13.632613,12.5210735 C13.8450797,16.9877418 17.5283772,20.5 22.0000958,20.5 C26.4718145,20.5 30.155112,16.9877418 30.3675786,12.5210735 L30.4693434,10.3816814 C30.4757264,10.2474903 30.4789193,10.1131664 30.4789193,9.97882352 C30.4789193,5.29609859 26.6828207,1.5 22.0000958,1.5 Z" stroke="#333333" stroke-width="3"></path>
                    <path d="M17.4131486,23.5 L15.3526261,23.5 C9.60887447,23.5 4.68934095,27.6129197 3.67160317,33.2657856 L2.53893329,39.5570239 C2.5126133,39.7032142 2.49937476,39.8514593 2.49937476,40 C2.49937476,41.3807119 3.61866288,42.5 4.99937476,42.5 L38.9999385,42.5 C39.1484792,42.5 39.2967243,42.4867615 39.4429146,42.4604415 C40.8017789,42.2157925 41.7050289,40.9158882 41.46038,39.5570239 L40.3277101,33.2657856 C39.3099723,27.6129197 34.3904388,23.5 28.6466871,23.5 L26.5861647,23.5 L21.9996566,28.1318262 L17.4131486,23.5 Z" stroke="#333333" stroke-width="3"></path>
                    <path d="M39.5,16.5 L39.5,13.5 C39.5,12.6715729 40.1715729,12 41,12 C41.8284271,12 42.5,12.6715729 42.5,13.5 L42.5,16.5 L45.5,16.5 C46.3284271,16.5 47,17.1715729 47,18 C47,18.8284271 46.3284271,19.5 45.5,19.5 L42.5,19.5 L42.5,22.5 C42.5,23.3284271 41.8284271,24 41,24 C40.1715729,24 39.5,23.3284271 39.5,22.5 L39.5,19.5 L36.5,19.5 C35.6715729,19.5 35,18.8284271 35,18 C35,17.1715729 35.6715729,16.5 36.5,16.5 L39.5,16.5 Z M22,26 L25,36 L22,39 L19,36 L22,26 Z" fill="#333333"></path>
                </g>
            </g>
        </g>
    </g>
</svg>