<?xml version="1.0" encoding="UTF-8" ?>
<svg width="61px" height="61px" viewBox="4 5 61 61" version="1.1" xmlns="http://www.w3.org/2000/svg">
    <g transform="translate(4.000000, 5.000000)">
        <path d="M30.5000373,0 C13.6550261,0 0,13.6550261 0,30.4999627 C0,47.3449739 13.6550261,61 30.5000373,61 C47.3449739,61 61,47.3449739 61,30.4999627 C61,13.6550261 47.3449739,0 30.5000373,0 Z M30.5000373,4.15897723 C45.0488057,4.15897723 56.8410228,15.9526127 56.8410228,30.4999627 C56.8410228,35.7166195 55.3246769,40.5789746 52.7086219,44.6703165 C48.3238949,40.0354282 42.4995649,36.7748964 35.9508051,35.6029234 C40.131357,33.5870016 43.0221339,29.3221668 43.0221339,24.371199 C43.0221339,17.4797832 37.4360208,11.8939687 30.544605,11.8939687 C23.6535625,11.8939687 18.0674493,17.4797832 18.0674493,24.371199 C18.0674493,29.3221668 20.957853,33.586703 25.1387035,35.6026248 C18.5637406,36.7795248 12.7189558,40.0616313 8.32818189,44.72653 C5.68995505,40.6233183 4.15897723,35.7405084 4.15897723,30.4999627 C4.15897723,15.9526127 15.9541057,4.15897723 30.5000373,4.15897723 Z" fill="#999999"></path>
    </g>
</svg>