<?xml version="1.0" encoding="UTF-8"?>
<svg width="26px" height="26px" viewBox="0 0 26 26" version="1.1" xmlns="http://www.w3.org/2000/svg" xmlns:xlink="http://www.w3.org/1999/xlink">
    <g stroke="none" stroke-width="1" fill="none" fill-rule="evenodd">
        <path d="M24.7107897,23.314359 C25.0964034,23.6999727 25.0964034,24.325176 24.7107897,24.7107897 C24.325176,25.0964034 23.6999727,25.0964034 23.314359,24.7107897 L18.1234084,19.5198391 C16.4212144,20.91279 14.2453322,21.7485128 11.8742564,21.7485128 C6.42085518,21.7485128 2,17.3276576 2,11.8742564 C2,6.42085518 6.42085518,2 11.8742564,2 C17.3276576,2 21.7485128,6.42085518 21.7485128,11.8742564 C21.7485128,14.2453322 20.91279,16.4212144 19.5198391,18.1234084 L24.7107897,23.314359 Z M12,20 C16.418278,20 20,16.418278 20,12 C20,7.581722 16.418278,4 12,4 C7.581722,4 4,7.581722 4,12 C4,16.418278 7.581722,20 12,20 Z" fill="#9A9A9A"></path>
    </g>
</svg>