<svg xmlns="http://www.w3.org/2000/svg" width="201.37" height="168.05" viewBox="0 0 201.37 168.05">
    <path style="fill:#fb6500" d="M134.19,137.56a2.09,2.09,0,0,0,.2.22,2.8,2.8,0,0,0,.38.32l.81.78a35.66,35.66,0,0,1,9.79,18.28,10.86,10.86,0,0,0,.13,1.13,10.18,10.18,0,0,0,.26,1.22,11.42,11.42,0,0,0,3,5.14,11.6,11.6,0,0,0,16.41-16.41,11.7,11.7,0,0,0-5.6-3.1l-.69-.13-.7-.1A35.65,35.65,0,0,1,139.43,135c-.39-.39-.76-.78-1.12-1.17h0a2.77,2.77,0,0,0-4.12,3.7Z" />
    <path style="fill:#0082ef" d="M170.88,146.48l.22-.2a3.79,3.79,0,0,0,.32-.38l.77-.81a35.73,35.73,0,0,1,18.29-9.79c.37,0,.75-.07,1.12-.13a10.34,10.34,0,0,0,1.23-.26,11.61,11.61,0,1,0-14.37-13.8c-.05.23-.1.46-.14.69s-.07.47-.09.7a35.66,35.66,0,0,1-9.89,18.74c-.38.39-.77.76-1.17,1.12h0a2.78,2.78,0,0,0,3.71,4.12Z" />
    <path style="fill:#2dbc00" d="M179.79,109.79a2,2,0,0,0-.19-.22,3,3,0,0,0-.39-.32l-.8-.77a35.75,35.75,0,0,1-9.8-18.29,10.64,10.64,0,0,0-.12-1.12c-.07-.42-.16-.82-.27-1.23a11.6,11.6,0,1,0-13.8,14.37l.7.14c.23,0,.46.07.7.09a35.7,35.7,0,0,1,18.74,9.89q.57.57,1.11,1.17h0a2.77,2.77,0,0,0,4.11-3.71Z" />
    <path style="fill:#fc0" d="M143.11,100.87l-.22.2a2.37,2.37,0,0,0-.32.39c-.26.27-.51.54-.78.8a35.68,35.68,0,0,1-18.28,9.8,10.55,10.55,0,0,0-1.13.12c-.41.07-.82.15-1.22.26a11.61,11.61,0,1,0,14.37,13.81c.05-.23.09-.46.13-.7s.07-.46.1-.7a35.68,35.68,0,0,1,9.88-18.74q.59-.57,1.17-1.11h0a2.77,2.77,0,0,0-3.7-4.12Z" />
    <path style="fill:#0079de" d="M160.36,44.18a71,71,0,0,0-12.89-18.3C134,12,115.18,3,94.43.64a96.21,96.21,0,0,0-11-.64A97.72,97.72,0,0,0,72.94.59C52.1,2.85,33.16,11.77,19.6,25.7A71.18,71.18,0,0,0,6.64,44,63.85,63.85,0,0,0,0,72.27a65,65,0,0,0,11.12,36,96.63,96.63,0,0,0,17.17,19.08h0L25,141.18l-1,3.88a7.35,7.35,0,0,0-.4,1.2c-.05.26-.07.52-.1.79s-.06.39-.06.6a6.42,6.42,0,0,0,6.43,6.42A6.33,6.33,0,0,0,33,153.2l.09,0c.13-.09.27-.16.41-.25L57.36,141a92.32,92.32,0,0,0,15.57,3,97.59,97.59,0,0,0,10.52.58,98.42,98.42,0,0,0,11-.64,93.29,93.29,0,0,0,21-4.92,11.42,11.42,0,0,1-2.12-.94,11.59,11.59,0,0,1-5.78-11.18A78.7,78.7,0,0,1,92.65,130a79.73,79.73,0,0,1-18,.06c-.61-.07-1.22-.16-1.82-.25A78.71,78.71,0,0,1,61,127.38a8.05,8.05,0,0,0-2.46-.37,8.41,8.41,0,0,0-3.9,1c-.16.09-.33.16-.5.26l-15.28,9h0a1.37,1.37,0,0,1-.66.26,1,1,0,0,1-1-1l.56-2.28c.16-.6.38-1.45.65-2.48.67-2.54,1.58-6,2.26-8.61a6.71,6.71,0,0,0,.3-1.87,6.15,6.15,0,0,0-2.51-5c-.8-.59-1.6-1.21-2.43-1.89-1.29-1-2.51-2.13-3.69-3.25a59.55,59.55,0,0,1-8.68-10.26A51.31,51.31,0,0,1,14.89,72.5a50.07,50.07,0,0,1,5.24-22.28,56.94,56.94,0,0,1,10.4-14.63C41.67,24.14,57.34,16.8,74.65,14.92a78.17,78.17,0,0,1,18,0c17.22,2,32.8,9.34,43.86,20.77A57.14,57.14,0,0,1,146.85,50.4,50.14,50.14,0,0,1,152,72.5c0,.8,0,1.59-.09,2.38a11.57,11.57,0,0,1,14.24,1.67c.2.19.36.41.54.61.13-1.62.2-3.26.2-4.89A63.66,63.66,0,0,0,160.36,44.18Z" />
</svg>