<?xml version="1.0" standalone="no"?><!DOCTYPE svg PUBLIC "-//W3C//DTD SVG 1.1//EN" "http://www.w3.org/Graphics/SVG/1.1/DTD/svg11.dtd"><svg t="1607049050472" class="icon" viewBox="0 0 1024 1024" version="1.1" xmlns="http://www.w3.org/2000/svg" p-id="2375" xmlns:xlink="http://www.w3.org/1999/xlink" width="200" height="200"><defs><style type="text/css"></style></defs><path d="M806 869H218c-57.9 0-105-47.1-105-105V603.9c0-11.6 9.4-21 21-21s21 9.4 21 21V764c0 34.7 28.3 63 63 63h588c34.7 0 63-28.3 63-63V603.9c0-11.6 9.4-21 21-21s21 9.4 21 21V764c0 57.9-47.1 105-105 105z" p-id="2376"></path><path d="M512 638c-11.6 0-21-9.4-21-21V176c0-11.6 9.4-21 21-21s21 9.4 21 21v441c0 11.6-9.4 21-21 21z" p-id="2377"></path><path d="M719 405.4c-5.4 0-10.7-2.1-14.8-6.2L496.3 191.3c-8.2-8.2-8.2-21.5 0-29.7s21.5-8.2 29.7 0l207.9 207.9c8.2 8.2 8.2 21.5 0 29.7-4.1 4.2-9.5 6.2-14.9 6.2z" p-id="2378"></path><path d="M303.2 405.4c-5.4 0-10.7-2.1-14.8-6.2-8.2-8.2-8.2-21.5 0-29.7l207.9-207.9c8.2-8.2 21.5-8.2 29.7 0s8.2 21.5 0 29.7l-207.9 208c-4.1 4.1-9.5 6.1-14.9 6.1z" p-id="2379"></path></svg>