<?xml version="1.0" encoding="UTF-8" ?>
<svg width="70px" height="70px" viewBox="0 0 70 70" version="1.1" xmlns="http://www.w3.org/2000/svg" xmlns:xlink="http://www.w3.org/1999/xlink">
    <path d="M9,23 C8.44771525,23 8,23.4477153 8,24 L8,61 C8,61.5522847 8.44771525,62 9,62 L46,62 C46.5522847,62 47,61.5522847 47,61 L47,24 C47,23.4477153 46.5522847,23 46,23 L9,23 Z M9,20 L46,20 C48.209139,20 50,21.790861 50,24 L50,61 C50,63.209139 48.209139,65 46,65 L9,65 C6.790861,65 5,63.209139 5,61 L5,24 C5,21.790861 6.790861,20 9,20 Z" fill="#3C445C" fill-rule="nonzero"></path>
    <path d="M40,14.5 C40,15.3284271 39.3284271,16 38.5,16 L16,16 L16,16 C15.4477153,16 15,16.4477153 15,17 L15,54 C15,54.5522847 15.4477153,55 16,55 L53,55 C53.5522847,55 54,54.5522847 54,54 L54,28.5 C54,27.6715729 54.6715729,27 55.5,27 C56.3284271,27 57,27.6715729 57,28.5 L57,54 L57,54 C57,56.209139 55.209139,58 53,58 L16,58 C13.790861,58 12,56.209139 12,54 L12,17 C12,14.790861 13.790861,13 16,13 L38.5,13 C39.3284271,13 40,13.6715729 40,14.5 Z" fill="#3C445C" fill-rule="nonzero"></path>
    <path d="M16,16 C15.4477153,16 15,16.4477153 15,17 L15,54 C15,54.5522847 15.4477153,55 16,55 L53,55 C53.5522847,55 54,54.5522847 54,54 L54,17 C54,16.4477153 53.5522847,16 53,16 L16,16 Z" fill="#FFFFFF" fill-rule="nonzero"></path>
    <path d="M25.5,32 C24.6715729,32 24,31.3284271 24,30.5 C24,29.6715729 24.6715729,29 25.5,29 L42.5,29 C43.3284271,29 44,29.6715729 44,30.5 C44,31.3284271 43.3284271,32 42.5,32 L25.5,32 Z" fill="#3C445C" fill-rule="nonzero"></path>
    <path d="M25.5,41 C24.6715729,41 24,40.3284271 24,39.5 C24,38.6715729 24.6715729,38 25.5,38 L42.5,38 C43.3284271,38 44,38.6715729 44,39.5 C44,40.3284271 43.3284271,41 42.5,41 L25.5,41 Z" fill="#3C445C" fill-rule="nonzero"></path>
    <g transform="translate(41.473061, 4.000000)" fill-rule="nonzero">
        <path d="M0.0292968434,19.980916 C1.69373969,12.219668 6.59775029,6.75045757 14.9571612,5.25451159 L14.9571612,1.2240934 C14.9571612,0.144843669 16.3062364,-0.404260104 17.1122224,0.34693529 L26.6298967,9.21760152 C27.1449442,9.69763629 27.1448624,10.4921493 26.629716,10.9720861 L17.1120418,19.8392389 C16.3059878,20.5902001 14.9571612,20.0410462 14.9571612,18.9619125 L14.9571612,15.0147584 C9.20929696,15.251741 5.21759914,17.1420929 2.29661129,20.952426 C1.48801033,22.0072195 -0.245922457,21.2642555 0.0292968434,19.980916 Z" fill="#3C445C"></path>
        <path d="M16.4019407,7.50410326 C10.410666,8.30102443 6.38295782,11.2582639 4.12517451,15.7806906 C7.30641418,13.5888116 11.2780673,12.5458738 16.227808,12.5458738 C16.9295669,12.5458738 17.4984548,13.0928274 17.4984548,13.7675288 L17.4984548,16.0769889 L23.9197452,10.0945859 L17.4984548,4.10981247 L17.4984548,6.29397436 C17.4984548,6.9039838 17.0304271,7.42050601 16.4019407,7.50410326 Z" fill="#C1C9E2"></path>
    </g>
</svg>