<?xml version="1.0" encoding="UTF-8"?>
<svg width="70px" height="70px" viewBox="0 0 70 70" version="1.1" xmlns="http://www.w3.org/2000/svg" xmlns:xlink="http://www.w3.org/1999/xlink">
    <g stroke="none" stroke-width="1" fill="none" fill-rule="evenodd">
        <path d="M59,32.1932531 C59,31.364826 59.6715729,30.6932531 60.5,30.6932531 C61.3284271,30.6932531 62,31.364826 62,32.1932531 L62,52.7820513 C62,58.0287564 57.7467051,62.2820513 52.5,62.2820513 L12.5,62.2820513 C7.25329488,62.2820513 3,58.0287564 3,52.7820513 L3,24.5 C3,19.2532949 7.25329488,15 12.5,15 L39.0077798,15 C39.836207,15 40.5077798,15.6715729 40.5077798,16.5 C40.5077798,17.3284271 39.836207,18 39.0077798,18 L12.5,18 C8.91014913,18 6,20.9101491 6,24.5 L6,52.7820513 C6,56.3719022 8.91014913,59.2820513 12.5,59.2820513 L52.5,59.2820513 C56.0898509,59.2820513 59,56.3719022 59,52.7820513 L59,32.1932531 Z" fill="#3C445C" fill-rule="nonzero"></path>
        <path d="M15.5,54 C14.6715729,54 14,53.3284271 14,52.5 C14,51.6715729 14.6715729,51 15.5,51 L46.5,51 C47.3284271,51 48,51.6715729 48,52.5 C48,53.3284271 47.3284271,54 46.5,54 L15.5,54 Z" fill="#3C445C" fill-rule="nonzero"></path>
        <path d="M15.5,46 C14.6715729,46 14,45.3284271 14,44.5 C14,43.6715729 14.6715729,43 15.5,43 L31.5,43 C32.3284271,43 33,43.6715729 33,44.5 C33,45.3284271 32.3284271,46 31.5,46 L15.5,46 Z" fill="#3C445C" fill-rule="nonzero"></path>
        <path d="M39.0311265,29.0800768 C40.7995155,20.5034454 46.0097865,14.4596491 54.8912512,12.8065416 L54.8912512,8.35269455 C54.8912512,7.1600607 56.3245775,6.55326902 57.1808982,7.38338372 L67.2929609,17.1859869 C67.8401736,17.7164533 67.8400867,18.5944366 67.292769,19.1247946 L57.1807063,28.9235153 C56.3243134,29.7533713 54.8912512,29.1465242 54.8912512,27.9540185 L54.8912512,23.5921832 C48.784427,23.8540627 44.5434435,25.9430118 41.440037,30.153652 C40.5809381,31.3192603 38.7387194,30.4982418 39.0311265,29.0800768 Z M56.4262586,15.2924715 C50.0608227,16.1731158 45.7815801,19.4410378 43.3827959,24.438583 C46.7627072,22.0164288 50.9823941,20.8639218 56.2412512,20.8639218 C56.9868356,20.8639218 57.5912512,21.4683374 57.5912512,22.2139218 L57.5912512,24.7660098 L64.4135577,18.1551058 L57.5912512,11.5415823 L57.5912512,13.9552085 C57.5912512,14.6293045 57.0939946,15.2000917 56.4262586,15.2924715 Z" fill="#3C445C" fill-rule="nonzero"></path>
        <path d="M56.3975073,15.2842282 C50.0320713,16.1648725 45.7528287,19.4327945 43.3540445,24.4303396 C46.7339559,22.0081855 50.9536428,20.8556784 56.2124998,20.8556784 C56.9580843,20.8556784 57.5624998,21.460094 57.5624998,22.2056784 L57.5624998,24.7577665 L64.3848063,18.1468624 L57.5624998,11.533339 L57.5624998,13.9469652 C57.5624998,14.6210612 57.0652433,15.1918483 56.3975073,15.2842282 Z" fill="#C1C9E2" fill-rule="nonzero"></path>
        <path d="M22,35 C24.209139,35 26,33.209139 26,31 C26,28.790861 24.209139,27 22,27 C19.790861,27 18,28.790861 18,31 C18,33.209139 19.790861,35 22,35 Z M22,38 C18.1340068,38 15,34.8659932 15,31 C15,27.1340068 18.1340068,24 22,24 C25.8659932,24 29,27.1340068 29,31 C29,34.8659932 25.8659932,38 22,38 Z" fill="#3C445C" fill-rule="nonzero"></path>
    </g>
</svg>