<?xml version="1.0" encoding="UTF-8"?>
<svg width="70px" height="70px" viewBox="0 0 70 70" version="1.1" xmlns="http://www.w3.org/2000/svg" xmlns:xlink="http://www.w3.org/1999/xlink">
    <g stroke="none" stroke-width="1" fill="none" fill-rule="evenodd">
        <path d="M9.5,27 C9.5,27.8284271 8.82842712,28.5 8,28.5 C7.17157288,28.5 6.5,27.8284271 6.5,27 L6.5,11 C6.5,9.05407275 8.11384478,7.5 10.0769231,7.5 L28,7.5 C28.8284271,7.5 29.5,8.17157288 29.5,9 C29.5,9.82842712 28.8284271,10.5 28,10.5 L10.0769231,10.5 C9.74589549,10.5 9.5,10.7367883 9.5,11 L9.5,27 Z M42,10.5 C41.1715729,10.5 40.5,9.82842712 40.5,9 C40.5,8.17157288 41.1715729,7.5 42,7.5 L59.9230769,7.5 C61.8861552,7.5 63.5,9.05407275 63.5,11 L63.5,27 C63.5,27.8284271 62.8284271,28.5 62,28.5 C61.1715729,28.5 60.5,27.8284271 60.5,27 L60.5,11 C60.5,10.7367883 60.2541045,10.5 59.9230769,10.5 L42,10.5 Z M60.5,46 C60.5,45.1715729 61.1715729,44.5 62,44.5 C62.8284271,44.5 63.5,45.1715729 63.5,46 L63.5,61 C63.5,62.9459272 61.8861552,64.5 59.9230769,64.5 L42,64.5 C41.1715729,64.5 40.5,63.8284271 40.5,63 C40.5,62.1715729 41.1715729,61.5 42,61.5 L59.9230769,61.5 C60.2541045,61.5 60.5,61.2632117 60.5,61 L60.5,46 Z M28,61.5 C28.8284271,61.5 29.5,62.1715729 29.5,63 C29.5,63.8284271 28.8284271,64.5 28,64.5 L10.0769231,64.5 C8.11384478,64.5 6.5,62.9459272 6.5,61 L6.5,46 C6.5,45.1715729 7.17157288,44.5 8,44.5 C8.82842712,44.5 9.5,45.1715729 9.5,46 L9.5,61 C9.5,61.2632117 9.74589549,61.5 10.0769231,61.5 L28,61.5 Z" fill="#3C445C" fill-rule="nonzero"></path>
        <path d="M43.6684157,26.7385106 L32.6125575,41.4893361 L26.0817487,35.8761365 C25.3241791,35.2040811 24.1568552,35.2640968 23.474458,36.0101852 C22.7920607,36.7562736 22.8529999,37.9059062 23.6105695,38.5779616 L31.6535913,45.5326759 C32.4638612,46.2514828 33.7268609,46.1256239 34.3745021,45.2615352 L46.6390581,28.8980543 C47.2445764,28.0901662 47.0704451,26.9518133 46.2501248,26.3554717 C45.4298046,25.7591302 44.273934,25.9306225 43.6684157,26.7385106 Z M41.2678486,24.9392669 C42.8586042,22.8168665 45.8698682,22.3700962 48.0141465,23.9289047 C50.185986,25.5077492 50.6509607,28.5474395 49.0396252,30.6972979 L36.7750692,47.0607789 C35.0739027,49.3304904 31.7836206,49.6583694 29.6913635,47.8019626 L21.6196962,40.8221593 C19.6101734,39.0394709 19.4473674,35.9680972 21.2607547,33.9854585 C23.050094,32.0291124 26.0896878,31.8728377 28.0372063,33.6010133 L32.1356145,37.1235759 L41.2678486,24.9392669 Z" fill="#3C445C" fill-rule="nonzero"></path>
        <path d="M43.6684157,26.7385106 L32.6125575,41.4893361 L26.0817487,35.8761365 C25.3241791,35.2040811 24.1568552,35.2640968 23.474458,36.0101852 C22.7920607,36.7562736 22.8529999,37.9059062 23.6105695,38.5779616 L31.6535913,45.5326759 C32.4638612,46.2514828 33.7268609,46.1256239 34.3745021,45.2615352 L46.6390581,28.8980543 C47.2445764,28.0901662 47.0704451,26.9518133 46.2501248,26.3554717 C45.4298046,25.7591302 44.273934,25.9306225 43.6684157,26.7385106 Z" fill="#C1C9E2" fill-rule="nonzero"></path>
    </g>
</svg>