<?xml version="1.0" encoding="UTF-8"?>
<svg width="70px" height="70px" viewBox="0 0 70 70" version="1.1" xmlns="http://www.w3.org/2000/svg" xmlns:xlink="http://www.w3.org/1999/xlink">
    <g stroke="none" stroke-width="1" fill="none" fill-rule="evenodd">
        <path d="M31.5001389,7 C31.3134706,7 31.1268301,7.00456512 30.940385,7.01369126 C24.6246455,7.32283483 19.7553374,12.6933637 20.0644809,19.0091032 L20.1723642,21.2131365 C20.4680537,27.2540107 25.4520323,32 31.5001389,32 C37.5482456,32 42.5322242,27.2540107 42.8279137,21.2131365 L42.935797,19.0091032 C42.9449231,18.8226581 42.9494882,18.6360176 42.9494882,18.4493493 C42.9494882,12.1260483 37.8234399,7 31.5001389,7 Z M31.5001389,4 C39.4802942,4 45.9494882,10.469194 45.9494882,18.4493493 C45.9494882,18.6849292 45.9437269,18.9204738 45.9322095,19.155772 L45.8243262,21.3598052 C45.4504213,28.998606 39.1480852,35 31.5001389,35 C23.8521927,35 17.5498566,28.998606 17.1759516,21.3598052 L17.0680684,19.155772 C16.6779219,11.1851595 22.8231037,4.40742518 30.7937162,4.01727869 C31.0290144,4.00576129 31.2645591,4 31.5001389,4 Z" fill="#3C445C" fill-rule="nonzero"></path>
        <path d="M31.5001389,7 C31.3134706,7 31.1268301,7.00456512 30.940385,7.01369126 C24.6246455,7.32283483 19.7553374,12.6933637 20.0644809,19.0091032 L20.1723642,21.2131365 C20.4680537,27.2540107 25.4520323,32 31.5001389,32 C37.5482456,32 42.5322242,27.2540107 42.8279137,21.2131365 L42.935797,19.0091032 C42.9449231,18.8226581 42.9494882,18.6360176 42.9494882,18.4493493 C42.9494882,12.1260483 37.8234399,7 31.5001389,7 Z" fill="#C1C9E2" fill-rule="nonzero"></path>
        <path d="M21.2929024,38 C13.6164743,38 7.03725801,43.4870238 5.65886632,51.0386848 L4.06982527,59.74441 C4.03998027,59.9079189 4.02496625,60.0737896 4.02496625,60.24 C4.02496625,61.7643059 5.26066034,63 6.78496625,63 L55.2140527,63 C55.3802631,63 55.5461338,62.984986 55.7096427,62.955141 C57.2091737,62.6814342 58.2029005,61.2439409 57.9291937,59.74441 L56.3401526,51.0386848 C54.961761,43.4870238 48.3825446,38 40.7061166,38 L37.8971032,38 L30.9995095,44.8707597 L24.1019158,38 L21.2929024,38 Z M25.3411328,35 L30.9995095,40.6363636 L36.6578862,35 L40.7061166,35 C49.8316255,35 57.6528019,41.5228104 59.2913928,50.5 L60.8804339,59.2057252 C61.4516481,62.3351811 59.3777834,65.335167 56.2483275,65.9063812 C55.9070915,65.9686664 55.5609266,66 55.2140527,66 L6.78496625,66 C3.60380609,66 1.02496625,63.4211602 1.02496625,60.24 C1.02496625,59.8931261 1.05629985,59.5469613 1.11858508,59.2057252 L2.70762612,50.5 C4.3462171,41.5228104 12.1673934,35 21.2929024,35 L25.3411328,35 Z" fill="#3C445C" fill-rule="nonzero"></path>
        <path d="M51.5,22.6111111 C50.6715729,22.6111111 50,21.9395382 50,21.1111111 C50,20.282684 50.6715729,19.6111111 51.5,19.6111111 L66.5,19.6111111 C67.3284271,19.6111111 68,20.282684 68,21.1111111 C68,21.9395382 67.3284271,22.6111111 66.5,22.6111111 L51.5,22.6111111 Z" fill="#3C445C" fill-rule="nonzero"></path>
        <path d="M54.5,31.6111111 C53.6715729,31.6111111 53,30.9395382 53,30.1111111 C53,29.282684 53.6715729,28.6111111 54.5,28.6111111 L66.5,28.6111111 C67.3284271,28.6111111 68,29.282684 68,30.1111111 C68,30.9395382 67.3284271,31.6111111 66.5,31.6111111 L54.5,31.6111111 Z" fill="#3C445C" fill-rule="nonzero"></path>
        <path d="M60.9750559,40.6111111 C60.1466288,40.6111111 59.4750559,39.9395382 59.4750559,39.1111111 C59.4750559,38.282684 60.1466288,37.6111111 60.9750559,37.6111111 L66.5,37.6111111 C67.3284271,37.6111111 68,38.282684 68,39.1111111 C68,39.9395382 67.3284271,40.6111111 66.5,40.6111111 L60.9750559,40.6111111 Z" fill="#3C445C" fill-rule="nonzero"></path>
        <path d="M28.7082702,56.6354603 L31.3928571,59.215768 L34.0774441,56.6354603 L31.3928571,48.0344349 L28.7082702,56.6354603 Z M37.0333227,56.0367948 C37.3156186,56.9412295 37.0623771,57.92753 36.3792813,58.5840917 L33.125271,61.7117042 C32.1575848,62.6418018 30.6281295,62.6418018 29.6604433,61.7117042 L26.4064329,58.5840917 C25.7233372,57.92753 25.4700957,56.9412295 25.7523915,56.0367948 L29.0064019,45.6114198 C29.4177823,44.293417 30.8197244,43.5584543 32.1377272,43.9698347 C32.9212185,44.2143812 33.5347659,44.8279286 33.7793124,45.6114198 L37.0333227,56.0367948 Z" fill="#3C445C" fill-rule="nonzero"></path>
        <polygon fill="#C1C9E2" fill-rule="nonzero" points="28.7082702 56.6354603 31.3928571 59.215768 34.0774441 56.6354603 31.3928571 48.0344349"></polygon>
    </g>
</svg>