<?xml version="1.0" encoding="UTF-8" ?>
<svg width="70px" height="70px" viewBox="0 0 70 70" version="1.1" xmlns="http://www.w3.org/2000/svg">
    <path d="M29.0037975,58.5 C29.8322246,58.5 30.5037975,59.1715729 30.5037975,60 C30.5037975,60.8284271 29.8322246,61.5 29.0037975,61.5 L11,61.5 C6.85786438,61.5 3.5,58.1421356 3.5,54 L3.5,16 C3.5,11.8578644 6.85786438,8.5 11,8.5 L55,8.5 C59.1421356,8.5 62.5,11.8578644 62.5,16 L62.5,26.5017668 C62.5,27.3301939 61.8284271,28.0017668 61,28.0017668 C60.1715729,28.0017668 59.5,27.3301939 59.5,26.5017668 L59.5,16 C59.5,13.5147186 57.4852814,11.5 55,11.5 L11,11.5 C8.51471863,11.5 6.5,13.5147186 6.5,16 L6.5,54 C6.5,56.4852814 8.51471863,58.5 11,58.5 L29.0037975,58.5 Z" fill="#3C445C" fill-rule="nonzero"></path>
    <path d="M13,4.53571429 C13,3.70728716 13.6715729,3.03571429 14.5,3.03571429 C15.3284271,3.03571429 16,3.70728716 16,4.53571429 L16,17.9285714 C16,18.7569986 15.3284271,19.4285714 14.5,19.4285714 C13.6715729,19.4285714 13,18.7569986 13,17.9285714 L13,4.53571429 Z" fill="#3C445C" fill-rule="nonzero"></path>
    <path d="M50,4.53571429 C50,3.70728716 50.6715729,3.03571429 51.5,3.03571429 C52.3284271,3.03571429 53,3.70728716 53,4.53571429 L53,17.9285714 C53,18.7569986 52.3284271,19.4285714 51.5,19.4285714 C50.6715729,19.4285714 50,18.7569986 50,17.9285714 L50,4.53571429 Z" fill="#3C445C" fill-rule="nonzero"></path>
    <polygon fill="#3C445C" fill-rule="nonzero" points="3.5 28.5 3.5 25.5 62.5 25.5 62.5 28.5"></polygon>
    <path d="M48,62 C55.7319865,62 62,55.7319865 62,48 C62,40.2680135 55.7319865,34 48,34 C40.2680135,34 34,40.2680135 34,48 C34,55.7319865 40.2680135,62 48,62 Z M48,65 C38.6111593,65 31,57.3888407 31,48 C31,38.6111593 38.6111593,31 48,31 C57.3888407,31 65,38.6111593 65,48 C65,57.3888407 57.3888407,65 48,65 Z" fill="#3C445C" fill-rule="nonzero"></path>
    <path d="M12.5,42 C11.6715729,42 11,41.3284271 11,40.5 C11,39.6715729 11.6715729,39 12.5,39 L23.2970799,39 C24.125507,39 24.7970799,39.6715729 24.7970799,40.5 C24.7970799,41.3284271 24.125507,42 23.2970799,42 L12.5,42 Z" fill="#3C445C" fill-rule="nonzero"></path>
    <path d="M12.5,51 C11.6715729,51 11,50.3284271 11,49.5 C11,48.6715729 11.6715729,48 12.5,48 L23.2970799,48 C24.125507,48 24.7970799,48.6715729 24.7970799,49.5 C24.7970799,50.3284271 24.125507,51 23.2970799,51 L12.5,51 Z" fill="#3C445C" fill-rule="nonzero"></path>
    <path d="M48,62 C55.7319865,62 62,55.7319865 62,48 C62,40.2680135 55.7319865,34 48,34 C40.2680135,34 34,40.2680135 34,48 C34,55.7319865 40.2680135,62 48,62 Z" fill="#C1C9E2" fill-rule="nonzero"></path>
    <path d="M55.0071449,47.5 C55.835572,47.5 56.5071449,48.1715729 56.5071449,49 C56.5071449,49.8284271 55.835572,50.5 55.0071449,50.5 L47.6190122,50.5 C46.790585,50.5 46.1190122,49.8284271 46.1190122,49 L46.1190122,40.7311554 C46.1190122,39.9027283 46.790585,39.2311554 47.6190122,39.2311554 C48.4474393,39.2311554 49.1190122,39.9027283 49.1190122,40.7311554 L49.1190122,47.5 L55.0071449,47.5 Z" fill="#3C445C" fill-rule="nonzero"></path>
</svg>