<?xml version="1.0" encoding="UTF-8"?>
<svg width="70px" height="70px" viewBox="0 0 70 70" version="1.1" xmlns="http://www.w3.org/2000/svg" xmlns:xlink="http://www.w3.org/1999/xlink">
    <g stroke="none" stroke-width="1" fill="none" fill-rule="evenodd">
        <path d="M34,3.5 C34.8284271,3.5 35.5,4.17157288 35.5,5 C35.5,5.82842712 34.8284271,6.5 34,6.5 C17.7075999,6.5 4.5,19.7075999 4.5,36 C4.5,52.2924001 17.7075999,65.5 34,65.5 C50.2924001,65.5 63.5,52.2924001 63.5,36 C63.5,35.1715729 64.1715729,34.5 65,34.5 C65.8284271,34.5 66.5,35.1715729 66.5,36 C66.5,53.9492544 51.9492544,68.5 34,68.5 C16.0507456,68.5 1.5,53.9492544 1.5,36 C1.5,18.0507456 16.0507456,3.5 34,3.5 Z" fill="#3C445C" fill-rule="nonzero"></path>
        <path d="M34.5,15.5 C35.3284271,15.5 36,16.1715729 36,17 C36,17.8284271 35.3284271,18.5 34.5,18.5 C25.1111593,18.5 17.5,26.1111593 17.5,35.5 C17.5,44.8888407 25.1111593,52.5 34.5,52.5 C43.8888407,52.5 51.5,44.8888407 51.5,35.5 C51.5,34.6715729 52.1715729,34 53,34 C53.8284271,34 54.5,34.6715729 54.5,35.5 C54.5,46.545695 45.545695,55.5 34.5,55.5 C23.454305,55.5 14.5,46.545695 14.5,35.5 C14.5,24.454305 23.454305,15.5 34.5,15.5 Z" fill="#3C445C" fill-rule="nonzero"></path>
        <path d="M43.3854089,8.72637654 L37.146573,32.9319086 L61.5701642,27.1321557 C58.741621,18.5088197 51.9717536,11.6587117 43.3854089,8.72637654 Z M41.247815,5 C53.2396719,7.77355291 62.6506889,17.2875002 65.2748663,29.3358425 L33,37 L41.247815,5 Z" fill="#3C445C" fill-rule="nonzero"></path>
        <path d="M34,39 C35.6568542,39 37,37.6568542 37,36 C37,34.3431458 35.6568542,33 34,33 C32.3431458,33 31,34.3431458 31,36 C31,37.6568542 32.3431458,39 34,39 Z M34,42 C30.6862915,42 28,39.3137085 28,36 C28,32.6862915 30.6862915,30 34,30 C37.3137085,30 40,32.6862915 40,36 C40,39.3137085 37.3137085,42 34,42 Z" fill="#3C445C" fill-rule="nonzero"></path>
        <path d="M34,39 C35.6568542,39 37,37.6568542 37,36 C37,34.3431458 35.6568542,33 34,33 C32.3431458,33 31,34.3431458 31,36 C31,37.6568542 32.3431458,39 34,39 Z" fill="#FFFFFF" fill-rule="nonzero"></path>
        <path d="M43.3854089,8.72637654 L37.146573,32.9319086 L61.5701642,27.1321557 C58.741621,18.5088197 51.9717536,11.6587117 43.3854089,8.72637654 Z" fill="#C1C9E2" fill-rule="nonzero"></path>
    </g>
</svg>