<?xml version="1.0" encoding="UTF-8"?>
<svg width="70px" height="70px" viewBox="0 0 70 70" version="1.1" xmlns="http://www.w3.org/2000/svg" xmlns:xlink="http://www.w3.org/1999/xlink">
    <g stroke="none" stroke-width="1" fill="none" fill-rule="evenodd">
        <path d="M13,14 C12.4477153,14 12,14.4477153 12,15 L12,62 C12,62.5522847 12.4477153,63 13,63 L50,63 C50.5522847,63 51,62.5522847 51,62 L51,15 C51,14.4477153 50.5522847,14 50,14 L13,14 Z M13,11 L50,11 C52.209139,11 54,12.790861 54,15 L54,62 C54,64.209139 52.209139,66 50,66 L13,66 C10.790861,66 9,64.209139 9,62 L9,15 C9,12.790861 10.790861,11 13,11 Z" fill="#3C445C" fill-rule="nonzero"></path>
        <path d="M13,14 C12.4477153,14 12,14.4477153 12,15 L12,62 C12,62.5522847 12.4477153,63 13,63 L50,63 C50.5522847,63 51,62.5522847 51,62 L51,15 C51,14.4477153 50.5522847,14 50,14 L13,14 Z" fill="#C1C9E2" fill-rule="nonzero"></path>
        <path d="M20,7 C19.4477153,7 19,7.44771525 19,8 L19,55 C19,55.5522847 19.4477153,56 20,56 L57,56 C57.5522847,56 58,55.5522847 58,55 L58,8 C58,7.44771525 57.5522847,7 57,7 L20,7 Z M20,4 L57,4 C59.209139,4 61,5.790861 61,8 L61,55 C61,57.209139 59.209139,59 57,59 L20,59 C17.790861,59 16,57.209139 16,55 L16,8 C16,5.790861 17.790861,4 20,4 Z" fill="#3C445C" fill-rule="nonzero"></path>
        <path d="M20,7 C19.4477153,7 19,7.44771525 19,8 L19,55 C19,55.5522847 19.4477153,56 20,56 L57,56 C57.5522847,56 58,55.5522847 58,55 L58,8 C58,7.44771525 57.5522847,7 57,7 L20,7 Z" fill="#FFFFFF" fill-rule="nonzero"></path>
        <path d="M29.5,23 C28.6715729,23 28,22.3284271 28,21.5 C28,20.6715729 28.6715729,20 29.5,20 L46.5,20 C47.3284271,20 48,20.6715729 48,21.5 C48,22.3284271 47.3284271,23 46.5,23 L29.5,23 Z" fill="#3C445C" fill-rule="nonzero"></path>
        <path d="M29.5,33 C28.6715729,33 28,32.3284271 28,31.5 C28,30.6715729 28.6715729,30 29.5,30 L46.5,30 C47.3284271,30 48,30.6715729 48,31.5 C48,32.3284271 47.3284271,33 46.5,33 L29.5,33 Z" fill="#3C445C" fill-rule="nonzero"></path>
    </g>
</svg>