<?xml version="1.0" encoding="UTF-8" ?>
<svg width="70px" height="70px" viewBox="0 0 70 70" version="1.1" xmlns="http://www.w3.org/2000/svg" xmlns:xlink="http://www.w3.org/1999/xlink">
    <g stroke="none" stroke-width="1" fill="none" fill-rule="evenodd">
        <g transform="translate(7.000000, 5.000000)">
            <path d="M30.7860471,2.44142215 L30.7860471,13.4278218 C30.7860471,14.7760972 29.714496,15.8692439 28.3930236,15.8692439 C27.0711772,15.8692439 26,14.7760972 26,13.4278218 L26,2.44142215 C26,1.09314677 27.0711772,0 28.3930236,0 C29.714496,0 30.7860471,1.09314677 30.7860471,2.44142215 Z" fill="#3C445C"></path>
            <path d="M28.3328666,39 C33.4869159,39 37.6653594,43.2629519 37.6653594,48.5212412 C37.6653594,53.7799119 33.4869159,58.0428638 28.3328666,58.0428638 C23.1784435,58.0428638 19,53.7799119 19,48.5212412 C19,43.2629519 23.1784435,39 28.3328666,39 Z" fill="#C1C9E2"></path>
            <path d="M28.3328666,40.5 C24.0137159,40.5 20.5,44.0846811 20.5,48.5212412 C20.5,52.9581328 24.0136675,56.5428638 28.3328666,56.5428638 C32.6517402,56.5428638 36.1653594,52.9580829 36.1653594,48.5212412 C36.1653594,44.084731 32.6516918,40.5 28.3328666,40.5 Z M28.3328666,37.5 C34.32214,37.5 39.1653594,42.4411729 39.1653594,48.5212412 C39.1653594,54.6016229 34.3222073,59.5428638 28.3328666,59.5428638 C22.3432194,59.5428638 17.5,54.601691 17.5,48.5212412 C17.5,42.4411048 22.3432867,37.5 28.3328666,37.5 Z" fill="#3C445C" fill-rule="nonzero"></path>
            <path d="M50.074424,49 L7,49 L7,26.8064866 C7,15.3336598 16.6614587,6 28.537212,6 C40.4125914,6 50.074424,15.3336598 50.074424,26.8064866 L50.074424,49 Z" fill="#FFFFFF"></path>
            <path d="M48,26.9247223 C48,15.9139858 39.2627056,7 28.5,7 C17.7370833,7 9,15.9138666 9,26.9247223 L9,48.1348609 L48,48.1348609 L48,26.9247223 Z M28.5,4 C40.9331522,4 51,14.2704263 51,26.9247223 L51,49.8773455 L6,49.8773455 L6,26.9247223 C6,14.2703142 16.0666293,4 28.5,4 Z" fill="#3C445C" fill-rule="nonzero"></path>
            <rect fill="#3C445C" x="40" y="23" width="3" height="18" rx="1.5"></rect>
            <rect fill="#3C445C" x="0" y="48" width="57" height="3" rx="1.5"></rect>
        </g>
    </g>
</svg>
