<?xml version="1.0" encoding="UTF-8"?>
<svg width="70px" height="70px" viewBox="0 0 70 70" version="1.1" xmlns="http://www.w3.org/2000/svg" xmlns:xlink="http://www.w3.org/1999/xlink">
    <g stroke="none" stroke-width="1" fill="none" fill-rule="evenodd">
        <path d="M9.5,27 C9.5,27.8284271 8.82842712,28.5 8,28.5 C7.17157288,28.5 6.5,27.8284271 6.5,27 L6.5,11 C6.5,9.05407275 8.11384478,7.5 10.0769231,7.5 L28,7.5 C28.8284271,7.5 29.5,8.17157288 29.5,9 C29.5,9.82842712 28.8284271,10.5 28,10.5 L10.0769231,10.5 C9.74589549,10.5 9.5,10.7367883 9.5,11 L9.5,27 Z M42,10.5 C41.1715729,10.5 40.5,9.82842712 40.5,9 C40.5,8.17157288 41.1715729,7.5 42,7.5 L59.9230769,7.5 C61.8861552,7.5 63.5,9.05407275 63.5,11 L63.5,27 C63.5,27.8284271 62.8284271,28.5 62,28.5 C61.1715729,28.5 60.5,27.8284271 60.5,27 L60.5,11 C60.5,10.7367883 60.2541045,10.5 59.9230769,10.5 L42,10.5 Z M60.5,46 C60.5,45.1715729 61.1715729,44.5 62,44.5 C62.8284271,44.5 63.5,45.1715729 63.5,46 L63.5,61 C63.5,62.9459272 61.8861552,64.5 59.9230769,64.5 L42,64.5 C41.1715729,64.5 40.5,63.8284271 40.5,63 C40.5,62.1715729 41.1715729,61.5 42,61.5 L59.9230769,61.5 C60.2541045,61.5 60.5,61.2632117 60.5,61 L60.5,46 Z M28,61.5 C28.8284271,61.5 29.5,62.1715729 29.5,63 C29.5,63.8284271 28.8284271,64.5 28,64.5 L10.0769231,64.5 C8.11384478,64.5 6.5,62.9459272 6.5,61 L6.5,46 C6.5,45.1715729 7.17157288,44.5 8,44.5 C8.82842712,44.5 9.5,45.1715729 9.5,46 L9.5,61 C9.5,61.2632117 9.74589549,61.5 10.0769231,61.5 L28,61.5 Z" fill="#3C445C" fill-rule="nonzero"></path>
        <path d="M6.5,35 C5.67157288,35 5,35.6715729 5,36.5 C5,37.3284271 5.67157288,38 6.5,38 L63.5,38 C64.3284271,38 65,37.3284271 65,36.5 C65,35.6715729 64.3284271,35 63.5,35 L6.5,35 Z M6.5,32 L63.5,32 C65.9852814,32 68,34.0147186 68,36.5 C68,38.9852814 65.9852814,41 63.5,41 L6.5,41 C4.01471863,41 2,38.9852814 2,36.5 C2,34.0147186 4.01471863,32 6.5,32 Z" fill="#3C445C" fill-rule="nonzero"></path>
        <path d="M6.5,35 C5.67157288,35 5,35.6715729 5,36.5 C5,37.3284271 5.67157288,38 6.5,38 L63.5,38 C64.3284271,38 65,37.3284271 65,36.5 C65,35.6715729 64.3284271,35 63.5,35 L6.5,35 Z" fill="#C1C9E2" fill-rule="nonzero"></path>
    </g>
</svg>