<?xml version="1.0" encoding="UTF-8" ?>
<svg width="70px" height="70px" viewBox="0 0 70 70" version="1.1" xmlns="http://www.w3.org/2000/svg" xmlns:xlink="http://www.w3.org/1999/xlink">
    <g transform="translate(0.000000, 4.000000)" fill-rule="nonzero">
        <path d="M41.8428296,6.9761558 C42.7380654,6.9761558 43.4637974,7.69657034 43.4637974,8.58524671 C43.4637974,9.421648 42.8209345,10.1090007 41.9989397,10.1869717 L41.8428296,10.1943376 L14.052739,10.1943376 C11.8541557,10.1943376 10.1822748,11.1494573 9.51899292,12.6484097 L9.44137067,12.8385814 L9.39197602,12.9559745 L4.1735015,24.0969167 L4.10454685,24.345628 C3.39204302,26.3161798 3.46878243,28.4525758 4.32280217,30.3744676 C5.18448703,32.3183499 6.81002855,33.9515744 8.90048265,34.9568147 C10.2373739,35.6054389 11.8474893,35.9397922 13.6949512,35.9397922 C16.6334105,35.9397922 19.392449,34.805422 21.2975009,32.8314945 C21.9346803,32.1712784 22.9972986,32.170095 23.6359687,32.8288902 C25.5349344,34.7876941 28.2834817,35.9173156 31.1933516,35.9223222 C34.101074,35.9070876 36.8345987,34.7747488 38.7108413,32.8222472 C39.3480849,32.1591032 40.4137814,32.1574339 41.0531301,32.8185782 C42.8718597,34.699309 45.4758109,35.8149723 48.2657699,35.9046791 L48.6674333,35.9105654 C50.5579375,35.9000863 52.1932974,35.5499793 53.5466706,34.8785702 C57.6579575,32.8543074 59.6161119,28.5823882 58.3530643,24.6201508 L58.2640773,24.3564885 L58.1924091,24.0938449 L58.1798049,24.0582832 C57.8343792,23.2384242 58.2238891,22.295826 59.0497996,21.9529312 C59.8757101,21.6100365 60.8252657,21.9966924 61.1706914,22.8165515 C61.2328466,22.9640753 61.284805,23.1158956 61.3265884,23.2703562 L61.3511935,23.3736545 L61.4229727,23.5840145 C63.1890443,29.0070356 60.6208839,34.8198991 55.2905518,37.6076879 L54.9915905,37.7594311 C53.2953616,38.6009413 51.3327806,39.0529931 49.1480299,39.1202077 L48.6306832,39.1287221 C45.4881385,39.1287221 42.4801427,38.1168581 40.1089302,36.2918897 L39.8863387,36.1155091 L39.6220275,36.3252958 C37.3804172,38.0432091 34.5661108,39.0355076 31.60393,39.1327786 L31.1991195,39.1404793 C28.0870861,39.1351669 25.1070588,38.1378559 22.7466,36.3424733 L22.4695806,36.1251636 L22.2401928,36.3084418 C19.9619531,38.0655954 17.0982765,39.0718895 14.0883444,39.1526968 L13.6949512,39.157974 C11.375129,39.157974 9.27985219,38.722873 7.48202092,37.8506021 C4.7159192,36.5204764 2.53312025,34.3273606 1.35603438,31.6719609 C0.218870577,29.1128819 0.0711454607,26.2654501 0.929869397,23.6181546 L1.01985484,23.3554182 L1.03038877,23.3082495 C1.04492785,23.2515722 1.06082847,23.1952791 1.07808188,23.1395809 L1.11387097,23.0325273 L1.12126192,23.0041243 L1.18685896,22.8414332 L6.43820968,11.6251455 L6.50838078,11.4517877 C7.65143406,8.74848456 10.4083146,7.08255562 13.7295978,6.981075 L14.052739,6.9761558 L41.8428296,6.9761558 Z" fill="#3C445C"></path>
        <path d="M54.9516129,42.3761558 C55.7941877,42.3761558 56.4866139,43.0143085 56.5651603,43.8302805 L56.5725806,43.9852467 L56.5725806,55.1277687 C56.5725806,58.099978 54.1070585,60.4872772 51.058799,60.6077487 L50.8169705,60.6125194 L11.5378682,60.6125194 C8.46024212,60.6125194 5.91580648,58.3014308 5.78734603,55.361171 L5.78225806,55.1277687 L5.78225806,43.9852467 C5.78225806,43.0965703 6.50799004,42.3761558 7.40322581,42.3761558 C8.24580064,42.3761558 8.9382268,43.0143085 9.01677321,43.8302805 L9.02419355,43.9852467 L9.02419355,55.1277687 C9.02419355,56.3047786 10.0354617,57.303878 11.3559507,57.3885312 L11.5378682,57.3943376 L50.8169705,57.3943376 C52.1641201,57.3943376 53.2339599,56.4464125 53.3244429,55.2870981 L53.3306452,55.1277687 L53.3306452,43.9852467 C53.3306452,43.0965703 54.0563771,42.3761558 54.9516129,42.3761558 Z" fill="#3C445C"></path>
        <g transform="translate(41.473061, 0.000000)">
            <path d="M0.0292968434,19.980916 C1.69373969,12.219668 6.59775029,6.75045757 14.9571612,5.25451159 L14.9571612,1.2240934 C14.9571612,0.144843669 16.3062364,-0.404260104 17.1122224,0.34693529 L26.6298967,9.21760152 C27.1449442,9.69763629 27.1448624,10.4921493 26.629716,10.9720861 L17.1120418,19.8392389 C16.3059878,20.5902001 14.9571612,20.0410462 14.9571612,18.9619125 L14.9571612,15.0147584 C9.20929696,15.251741 5.21759914,17.1420929 2.29661129,20.952426 C1.48801033,22.0072195 -0.245922457,21.2642555 0.0292968434,19.980916 Z" fill="#3C445C"></path>
            <path d="M16.4019407,7.50410326 C10.410666,8.30102443 6.38295782,11.2582639 4.12517451,15.7806906 C7.30641418,13.5888116 11.2780673,12.5458738 16.227808,12.5458738 C16.9295669,12.5458738 17.4984548,13.0928274 17.4984548,13.7675288 L17.4984548,16.0769889 L23.9197452,10.0945859 L17.4984548,4.10981247 L17.4984548,6.29397436 C17.4984548,6.9039838 17.0304271,7.42050601 16.4019407,7.50410326 Z" fill="#C1C9E2"></path>
        </g>
        <rect fill="#3C445C" x="19" y="47" width="3" height="11" rx="1.5"></rect>
    </g>
</svg>