<?xml version="1.0" encoding="UTF-8"?>
<svg width="70px" height="70px" viewBox="0 0 70 70" version="1.1" xmlns="http://www.w3.org/2000/svg" xmlns:xlink="http://www.w3.org/1999/xlink">
    <g stroke="none" stroke-width="1" fill="none" fill-rule="evenodd">
        <path d="M30,32 C36.627417,32 42,26.627417 42,20 C42,13.372583 36.627417,8 30,8 C23.372583,8 18,13.372583 18,20 C18,26.627417 23.372583,32 30,32 Z M30,35 C21.7157288,35 15,28.2842712 15,20 C15,11.7157288 21.7157288,5 30,5 C38.2842712,5 45,11.7157288 45,20 C45,28.2842712 38.2842712,35 30,35 Z" fill="#3C445C" fill-rule="nonzero"></path>
        <path d="M64.6555448,53.9276562 C64.6954992,54.7551193 64.0570972,55.4583001 63.2296341,55.4982544 C62.4021711,55.5382088 61.6989903,54.8998068 61.6590359,54.0723438 C61.1454116,43.4350747 55.3162686,36.9642777 43.8500047,34.3951912 C42.4329027,34.0776808 42.2489544,32.1327719 43.5814011,31.5552109 C48.3496157,29.4883854 51.5,24.7839563 51.5,19.5017639 C51.5,14.1937391 48.3186318,9.4706587 43.5154652,7.41995124 C42.7535737,7.09466238 42.3996373,6.21332857 42.7249262,5.45143706 C43.050215,4.68954556 43.9315489,4.33560919 44.6934404,4.66089805 C50.5919064,7.17924257 54.5,12.9812243 54.5,19.5017639 C54.5,24.6973513 52.0187765,29.4379837 48.0238855,32.4241243 C58.5076559,35.8240479 64.1306522,43.0570197 64.6555448,53.9276562 Z" fill="#3C445C" fill-rule="nonzero"></path>
        <path d="M23.2679361,39 C15.5915081,39 9.01229176,44.4870238 7.63390006,52.0386848 L6.04485902,60.74441 C6.01501401,60.9079189 6,61.0737896 6,61.24 C6,62.7643059 7.23569409,64 8.76,64 L51.1890865,64 C51.3552969,64 51.5211675,63.984986 51.6846765,63.955141 C53.1842074,63.6814342 54.1779342,62.2439409 53.9042274,60.74441 L52.3151864,52.0386848 C50.9367947,44.4870238 44.3575784,39 36.6811503,39 L33.8721369,39 L26.0769495,39 L23.2679361,39 Z M27.3161666,36 L32.6329199,36 L36.6811503,36 C45.8066593,36 53.6278356,42.5228104 55.2664266,51.5 L56.8554676,60.2057252 C57.4266818,63.3351811 55.3528172,66.335167 52.2233613,66.9063812 C51.8821252,66.9686664 51.5359603,67 51.1890865,67 L8.76,67 C5.57883984,67 3,64.4211602 3,61.24 C3,60.8931261 3.03133359,60.5469613 3.09361882,60.2057252 L4.68265987,51.5 C6.32125084,42.5228104 14.1424272,36 23.2679361,36 L27.3161666,36 Z" fill="#3C445C" fill-rule="nonzero"></path>
        <path d="M30,32 C36.627417,32 42,26.627417 42,20 C42,13.372583 36.627417,8 30,8 C23.372583,8 18,13.372583 18,20 C18,26.627417 23.372583,32 30,32 Z" fill="#C1C9E2" fill-rule="nonzero"></path>
    </g>
</svg>