<?xml version="1.0" encoding="UTF-8" ?>
<svg width="70px" height="70px" viewBox="0 0 70 70" version="1.1" xmlns="http://www.w3.org/2000/svg" xmlns:xlink="http://www.w3.org/1999/xlink">
    <g stroke="none" stroke-width="1" fill="none" fill-rule="evenodd">
        <g transform="translate(11.000000, 6.000000)">
            <path d="M43.8855778,55.2790718 C44.2635625,55.2790718 44.6334915,55.1800446 44.9736819,54.9856334 C45.7675423,54.5260695 46.2777778,53.6031405 46.2777778,52.5758915 L46.2777778,5.43008479 C46.2777778,3.90946339 45.1787369,2.71875533 43.8855778,2.71875533 L5.11442224,2.71875533 C3.82416574,2.71875533 2.72222222,3.91417895 2.72222222,5.43008479 L2.72222222,52.5758915 C2.72222222,53.6030421 3.23249198,54.526132 4.02460504,54.9848696 C4.72228096,55.3877091 5.53452241,55.3798314 6.23175064,54.9642707 L23.451039,44.642349 C24.1073706,44.2519718 24.8848047,44.2519718 25.5452005,44.6446065 L42.7738955,54.9676145 C43.1141878,55.1738065 43.4951271,55.2790718 43.8855778,55.2790718 Z" fill="#FFFFFF" fill-rule="nonzero"></path>
            <path d="M43.8855778,55.2790718 C44.2635625,55.2790718 44.6334915,55.1800446 44.9736819,54.9856334 C45.7675423,54.5260695 46.2777778,53.6031405 46.2777778,52.5758915 L46.2777778,5.43008479 C46.2777778,3.90946339 45.1787369,2.71875533 43.8855778,2.71875533 L5.11442224,2.71875533 C3.82416574,2.71875533 2.72222222,3.91417895 2.72222222,5.43008479 L2.72222222,52.5758915 C2.72222222,53.6030421 3.23249198,54.526132 4.02460504,54.9848696 C4.72228096,55.3877091 5.53452241,55.3798314 6.23175064,54.9642707 L23.451039,44.642349 C24.1073706,44.2519718 24.8848047,44.2519718 25.5452005,44.6446065 L42.7738955,54.9676145 C43.1141878,55.1738065 43.4951271,55.2790718 43.8855778,55.2790718 Z M24.4963146,47.1866319 L7.62973327,57.2971312 C6.08431971,58.218237 4.21694645,58.2363481 2.66057508,57.3376946 C1.01032562,56.3819861 0,54.5542834 0,52.5758915 L0,5.43008479 C0,2.46055928 2.26814772,0 5.11442224,0 L43.8855778,0 C46.7338868,0 49,2.45512184 49,5.43008479 L49,52.5758915 C49,54.5545095 47.9895721,56.3822014 46.3323106,57.3415623 C45.5755242,57.774102 44.7397695,57.9978272 43.8855778,57.9978272 C42.9997508,57.9978272 42.1300963,57.7575148 41.3676532,57.2955108 L24.4963146,47.1866319 Z" fill="#3C445C" fill-rule="nonzero"></path>
            <path d="M33.5906673,35 L16.4168011,35 C15.6353918,35 15,34.3269712 15,33.5 C15,32.6730288 15.6353918,32 16.4168011,32 L33.5828159,32 C34.3641295,32 35,32.6730288 35,33.5 C35,34.3269712 34.3715979,35 33.5906673,35 Z" fill="#3C445C"></path>
            <path d="M24.999815,25 C21.6930226,25 19,22.080567 19,18.5000504 C19,14.919433 21.6930226,12 24.999815,12 C28.3069774,12 31,14.919433 31,18.5000504 C31,22.080567 28.3069774,25 24.999815,25 Z" fill="#C1C9E2"></path>
            <path d="M24.4998096,23.3529412 C27.1725316,23.3529412 29.3529412,21.1721285 29.3529412,18.5000479 C29.3529412,15.8278832 27.1725432,13.6470588 24.4998096,13.6470588 C21.8274104,13.6470588 19.6470588,15.8279296 19.6470588,18.5000479 C19.6470588,21.1720821 21.827422,23.3529412 24.4998096,23.3529412 Z M24.4998096,26 C20.365357,26 17,22.6338776 17,18.5000479 C17,14.3661404 20.365339,11 24.4998096,11 C28.6345894,11 32,14.3660688 32,18.5000479 C32,22.6339492 28.6345713,26 24.4998096,26 Z" fill="#3C445C" fill-rule="nonzero"></path>
        </g>
    </g>
</svg>