<?xml version="1.0" encoding="UTF-8"?>
<svg width="70px" height="70px" viewBox="0 0 70 70" version="1.1" xmlns="http://www.w3.org/2000/svg" xmlns:xlink="http://www.w3.org/1999/xlink">
    <g stroke="none" stroke-width="1" fill="none" fill-rule="evenodd">
        <g transform="translate(6.000000, 8.000000)" fill="#3C445C">
            <path d="M58.3463489,29.7390656 C58.0548287,30.023878 57.8910544,30.4101666 57.8910544,30.8129521 L57.8910544,36.8877713 C57.8910544,38.4989135 57.235957,40.0440675 56.0698762,41.1833171 C54.9037954,42.3225666 53.3222505,42.9625904 51.6731632,42.9625904 L9.32683682,42.9625904 C5.89279034,42.9625904 3.10894563,40.2428012 3.10894563,36.8877713 L3.10894563,9.11222875 C3.10894563,5.75719878 5.89279034,3.03740961 9.32683682,3.03740961 L51.6731632,3.03740961 C53.3222505,3.03740961 54.9037954,3.67743336 56.0698762,4.81668294 C57.235957,5.95593252 57.8910544,7.50108654 57.8910544,9.11222875 C57.8910544,9.95098625 58.5870156,10.6309336 59.4455272,10.6309336 C60.3040388,10.6309336 61,9.95098625 61,9.11222875 C61,4.07968377 56.8242329,1.52423533e-16 51.6731632,0 L9.32683682,0 C4.17576708,0 5.45658451e-16,4.07968377 0,9.11222875 L0,36.8877713 C5.45658451e-16,41.9203162 4.17576708,46 9.32683682,46 L51.6731632,46 C56.8242329,46 61,41.9203162 61,36.8877713 L61,30.8129521 C61,30.4101665 60.8362257,30.023878 60.5447055,29.7390656 C60.2531853,29.4542532 59.857799,29.2942473 59.4455271,29.2942473 C59.0332553,29.2942473 58.6378691,29.4542532 58.3463489,29.7390656 Z"></path>
            <path d="M57.8515029,18.8118896 L57.8515029,25.3223063 C57.8515029,26.2212073 58.5678473,26.9499105 59.4515029,26.9499105 C60.3351585,26.9499105 61.0515029,26.2212073 61.0515029,25.3223063 L61.0515029,18.8118896 C61.0515029,18.3802222 60.8829319,17.9662347 60.5828737,17.6609997 C60.2828155,17.3557647 59.8758492,17.1842855 59.4515028,17.1842855 C58.5678472,17.1842855 57.8515029,17.9129887 57.8515029,18.8118896 Z" fill-rule="nonzero"></path>
            <path d="M57.8420655,14.2643921 C57.8420655,14.6885428 58.0114564,15.0951291 58.3126034,15.3938167 C58.611291,15.6949637 59.0178773,15.8643546 59.4420279,15.8643546 C59.8661786,15.8643546 60.2727649,15.6949637 60.5714525,15.3938167 L60.7623412,15.1392985 C60.8253034,15.0580887 60.8737399,14.9665974 60.9055076,14.8688729 C60.9629148,14.7808199 61.0058766,14.6841559 61.0327668,14.5825399 C61.0411967,14.4766582 61.0411967,14.3702739 61.0327668,14.2643922 C61.0365251,13.6181305 60.6489155,13.0338283 60.0520469,12.7860057 C59.4551783,12.538183 58.7676986,12.6761031 58.3126034,13.1349676 C58.0114564,13.4336552 57.8420655,13.8402415 57.8420655,14.2643921 Z" fill-rule="nonzero"></path>
            <path d="M3.16345215,55.6400146 C2.26455118,55.6400146 1.53584797,56.3339733 1.53584797,57.1900146 C1.53584797,58.046056 2.26455118,58.7400146 3.16345215,58.7400146 L55.7572021,58.7400146 C56.6561031,58.7400146 57.3848063,58.046056 57.3848063,57.1900146 C57.3848063,56.3339733 56.6561031,55.6400146 55.7572021,55.6400146 L3.16345215,55.6400146 Z" fill-rule="nonzero"></path>
            <path d="M40.4811605,52.3467855 C41.3800615,52.3467855 42.1087646,51.6528269 42.1087646,50.7967855 C42.1087646,49.9407441 41.3800615,49.2467855 40.4811605,49.2467855 L18.4394938,49.2467855 C17.5405928,49.2467855 16.8118896,49.9407441 16.8118896,50.7967855 C16.8118896,51.6528269 17.5405928,52.3467855 18.4394938,52.3467855 L40.4811605,52.3467855 Z" fill-rule="nonzero"></path>
            <path d="M16,17 C17.1045695,17 18,17.8954305 18,19 L18,30 C18,31.1045695 17.1045695,32 16,32 C14.8954305,32 14,31.1045695 14,30 L14,19 C14,17.8954305 14.8954305,17 16,17 Z M25,24 C26.1045695,24 27,24.8954305 27,26 L27,30 C27,31.1045695 26.1045695,32 25,32 C23.8954305,32 23,31.1045695 23,30 L23,26 C23,24.8954305 23.8954305,24 25,24 Z M34,21 C35.1045695,21 36,21.8954305 36,23 L36,30 C36,31.1045695 35.1045695,32 34,32 C32.8954305,32 32,31.1045695 32,30 L32,23 C32,21.8954305 32.8954305,21 34,21 Z M43,12 C44.1045695,12 45,12.8954305 45,14 L45,30 C45,31.1045695 44.1045695,32 43,32 C41.8954305,32 41,31.1045695 41,30 L41,14 C41,12.8954305 41.8954305,12 43,12 Z"></path>
        </g>
        <path d="M30,8 L40.585935,8 C39.9330061,5.6914952 37.8105218,4 35.2929675,4 C32.7754133,4 30.6529289,5.6914952 30,8 Z M27.1132438,7.18352064 C28.1404768,3.55162078 31.4649848,1 35.2929675,1 C39.1209503,1 42.4454582,3.55162078 43.4726912,7.18352064 L44.55213,11 L26.033805,11 L27.1132438,7.18352064 Z" fill="#3C445C" fill-rule="nonzero"></path>
        <path d="M30,8 L40.585935,8 C39.9330061,5.6914952 37.8105218,4 35.2929675,4 C32.7754133,4 30.6529289,5.6914952 30,8 Z" fill="#C1C9E2" fill-rule="nonzero"></path>
    </g>
</svg>