<?xml version="1.0" encoding="UTF-8"?>
<svg width="70px" height="70px" viewBox="0 0 70 70" version="1.1" xmlns="http://www.w3.org/2000/svg" xmlns:xlink="http://www.w3.org/1999/xlink">
    <g stroke="none" stroke-width="1" fill="none" fill-rule="evenodd">
        <path d="M28.210905,4.21049192 C29.0212267,4.03824153 29.8177588,4.55550056 29.9900092,5.36582229 C30.1622595,6.17614402 29.6450005,6.9726761 28.8346788,7.14492648 C15.3205766,10.0176241 5.5,22.0057852 5.5,36 C5.5,52.2924001 18.7075999,65.5 35,65.5 C51.2924001,65.5 64.5,52.2924001 64.5,36 C64.5,21.9655588 54.6236147,9.95302601 41.0580937,7.12234243 C40.2471339,6.95312147 39.7269018,6.15852798 39.8961228,5.34756819 C40.0653438,4.53660841 40.8599373,4.01637631 41.670897,4.18559728 C56.6203448,7.30506142 67.5,20.5378598 67.5,36 C67.5,53.9492544 52.9492544,68.5 35,68.5 C17.0507456,68.5 2.5,53.9492544 2.5,36 C2.5,20.5821929 13.3181749,7.37624495 28.210905,4.21049192 Z" fill="#3C445C" fill-rule="nonzero"></path>
        <polygon fill="#C1C9E2" fill-rule="nonzero" points="29.6415162 34.4847945 40.4063312 34.4847945 35.0239237 12.14"></polygon>
        <path d="M29.6415162,34.4847945 L40.4063312,34.4847945 L35.0239237,12.14 L29.6415162,34.4847945 Z M26.8683704,37.4569874 C26.331443,37.3276525 26.0010241,36.7875403 26.130359,36.250613 L34.0517308,3.36543547 C34.1396646,3.00038285 34.4246896,2.71535789 34.7897422,2.62742412 C35.3266695,2.49808923 35.8667817,2.82850817 35.9961166,3.36543547 L43.9174884,36.250613 C43.9359616,36.3273035 43.9452956,36.4059105 43.9452956,36.4847945 C43.9452956,37.0370793 43.4975803,37.4847945 42.9452956,37.4847945 L27.1025519,37.4847945 C27.0236678,37.4847945 26.9450609,37.4754606 26.8683704,37.4569874 Z" fill="#3C445C" fill-rule="nonzero"></path>
        <path d="M35,44 C38.3137085,44 41,41.3137085 41,38 C41,34.6862915 38.3137085,32 35,32 C31.6862915,32 29,34.6862915 29,38 C29,41.3137085 31.6862915,44 35,44 Z M35,47 C30.0294373,47 26,42.9705627 26,38 C26,33.0294373 30.0294373,29 35,29 C39.9705627,29 44,33.0294373 44,38 C44,42.9705627 39.9705627,47 35,47 Z" fill="#3C445C" fill-rule="nonzero"></path>
        <path d="M35,44 C38.3137085,44 41,41.3137085 41,38 C41,34.6862915 38.3137085,32 35,32 C31.6862915,32 29,34.6862915 29,38 C29,41.3137085 31.6862915,44 35,44 Z" fill="#FFFFFF" fill-rule="nonzero"></path>
        <circle fill="#C1C9E2" fill-rule="nonzero" cx="35" cy="38" r="4"></circle>
        <path d="M8.5,37.85 C7.75441559,37.85 7.15,37.2455844 7.15,36.5 C7.15,35.7544156 7.75441559,35.15 8.5,35.15 L13.5,35.15 C14.2455844,35.15 14.85,35.7544156 14.85,36.5 C14.85,37.2455844 14.2455844,37.85 13.5,37.85 L8.5,37.85 Z" fill="#3C445C" fill-rule="nonzero"></path>
        <g transform="translate(54.500000, 25.000000) scale(-1, 1) translate(-54.500000, -25.000000) translate(46.000000, 13.000000)" fill="#3C445C" fill-rule="nonzero">
            <path d="M1.00413503,24.85 C0.258550622,24.85 -0.345864966,24.2455844 -0.345864966,23.5 C-0.345864966,22.7544156 0.258550622,22.15 1.00413503,22.15 L6.00413503,22.15 C6.74971945,22.15 7.35413503,22.7544156 7.35413503,23.5 C7.35413503,24.2455844 6.74971945,24.85 6.00413503,24.85 L1.00413503,24.85 Z"></path>
            <path d="M4.03132204,13.60942 C3.28573762,13.60942 2.68132204,13.0050045 2.68132204,12.25942 C2.68132204,11.5138356 3.28573762,10.90942 4.03132204,10.90942 L9.03132204,10.90942 C9.77690645,10.90942 10.381322,11.5138356 10.381322,12.25942 C10.381322,13.0050045 9.77690645,13.60942 9.03132204,13.60942 L4.03132204,13.60942 Z" transform="translate(6.531322, 12.259420) rotate(-345.000000) translate(-6.531322, -12.259420) "></path>
            <path d="M11.4790088,3.82487373 C10.7334244,3.82487373 10.1290088,3.22045815 10.1290088,2.47487373 C10.1290088,1.72928932 10.7334244,1.12487373 11.4790088,1.12487373 L16.4790088,1.12487373 C17.2245932,1.12487373 17.8290088,1.72928932 17.8290088,2.47487373 C17.8290088,3.22045815 17.2245932,3.82487373 16.4790088,3.82487373 L11.4790088,3.82487373 Z" transform="translate(13.979009, 2.474874) rotate(-315.000000) translate(-13.979009, -2.474874) "></path>
        </g>
        <path d="M11.527187,26.60942 C10.7816026,26.60942 10.177187,26.0050045 10.177187,25.25942 C10.177187,24.5138356 10.7816026,23.90942 11.527187,23.90942 L16.527187,23.90942 C17.2727714,23.90942 17.877187,24.5138356 17.877187,25.25942 C17.877187,26.0050045 17.2727714,26.60942 16.527187,26.60942 L11.527187,26.60942 Z" fill="#3C445C" fill-rule="nonzero" transform="translate(14.027187, 25.259420) rotate(-345.000000) translate(-14.027187, -25.259420) "></path>
        <path d="M18.9748737,16.8248737 C18.2292893,16.8248737 17.6248737,16.2204581 17.6248737,15.4748737 C17.6248737,14.7292893 18.2292893,14.1248737 18.9748737,14.1248737 L23.9748737,14.1248737 C24.7204581,14.1248737 25.3248737,14.7292893 25.3248737,15.4748737 C25.3248737,16.2204581 24.7204581,16.8248737 23.9748737,16.8248737 L18.9748737,16.8248737 Z" fill="#3C445C" fill-rule="nonzero" transform="translate(21.474874, 15.474874) rotate(-315.000000) translate(-21.474874, -15.474874) "></path>
    </g>
</svg>