<?xml version="1.0" encoding="UTF-8"?>
<svg width="70px" height="70px" viewBox="0 0 70 70" version="1.1" xmlns="http://www.w3.org/2000/svg" xmlns:xlink="http://www.w3.org/1999/xlink">
    <g stroke="none" stroke-width="1" fill="none" fill-rule="evenodd">
        <g transform="translate(8.000000, 19.000000)"></g>
        <path d="M12.9569672,8.5 C10.4954522,8.5 8.5,10.4954522 8.5,12.9569672 L8.5,58.0430328 C8.5,60.5045478 10.4954522,62.5 12.9569672,62.5 L58.0430328,62.5 C60.5045478,62.5 62.5,60.5045478 62.5,58.0430328 L62.5,12.9569672 C62.5,10.4954522 60.5045478,8.5 58.0430328,8.5 L12.9569672,8.5 Z M12.9569672,5.5 L58.0430328,5.5 C62.1614021,5.5 65.5,8.83859794 65.5,12.9569672 L65.5,58.0430328 C65.5,62.1614021 62.1614021,65.5 58.0430328,65.5 L12.9569672,65.5 C8.83859794,65.5 5.5,62.1614021 5.5,58.0430328 L5.5,12.9569672 C5.5,8.83859794 8.83859794,5.5 12.9569672,5.5 Z" fill="#3C445C" fill-rule="nonzero"></path>
        <path d="M8.49209651,38.2727833 L8.49209651,58.0332673 C8.49209651,60.4947823 10.4875487,62.4902345 12.9490637,62.4902345 L58.0351293,62.4902345 C60.4966443,62.4902345 62.4920965,60.4947823 62.4920965,58.0332673 L62.4920965,38.2727833 L50.6499475,38.2727833 C49.9975528,38.2729833 49.4011423,37.8957178 49.1097393,37.2985093 L47.2626368,33.5217301 L41.0759905,51.6132947 C40.7749897,52.4951 39.9304352,53.0581275 39.0204364,52.9836425 C38.1104377,52.9091576 37.3641112,52.2159137 37.2039588,51.2963622 L32.9705374,27.0451554 L28.1577454,45.1015053 C27.9376019,45.9220122 27.2458475,46.5187329 26.4182316,46.6020434 C25.5906156,46.6853538 24.7984637,46.2380078 24.426254,45.477129 L20.9012711,38.2727833 L8.49209651,38.2727833 Z" fill="#C1C9E2" fill-rule="nonzero"></path>
        <path d="M8,38.2825488 L8,35.3479885 L21.6204811,35.3479885 C22.2728759,35.3477886 22.8692864,35.725054 23.1606893,36.3222625 L25.9915747,42.1150847 L31.2173835,22.5122215 C31.4647985,21.5867893 32.3053718,20.9598415 33.2421905,21.0020044 C34.1790092,21.0441672 34.9625311,21.7442098 35.1295697,22.6882951 L39.4605089,47.4853301 L45.2370066,30.5969353 C45.5031557,29.8175815 46.1994528,29.276967 47.0047007,29.2244738 C47.8099486,29.1719807 48.5676741,29.6178091 48.9283435,30.3563013 L51.3662894,35.3479885 L63,35.3479885 L63,38.2825488 L50.657851,38.2825488 C50.0054563,38.2827488 49.4090458,37.9054834 49.1176428,37.3082748 L47.2705403,33.5314956 L41.083894,51.6230602 C40.7828932,52.5048656 39.9383387,53.0678931 39.0283399,52.9934081 C38.1183411,52.9189231 37.3720147,52.2256792 37.2118623,51.3061277 L32.9784409,27.0549209 L28.1656489,45.1112708 C27.9455054,45.9317778 27.253751,46.5284984 26.426135,46.6118089 C25.5985191,46.6951193 24.8063671,46.2477733 24.4341575,45.4868945 L20.9091746,38.2825488 L8,38.2825488 Z" fill="#3C445C"></path>
    </g>
</svg>