<?xml version="1.0" encoding="UTF-8"?>
<svg width="70px" height="70px" viewBox="0 0 70 70" version="1.1" xmlns="http://www.w3.org/2000/svg" xmlns:xlink="http://www.w3.org/1999/xlink">
    <g stroke="none" stroke-width="1" fill="none" fill-rule="evenodd">
        <g>
            <g transform="translate(3.000000, 4.000000)">
                <path d="M33.2037821,27.8608611 L60.6178008,56.6380387 C61.3492025,57.4058092 61.3197197,58.6211284 60.5519492,59.3525301 C60.1949228,59.6926443 59.7207271,59.8823586 59.2276293,59.8823586 L4.39959188,59.8823586 C3.33920516,59.8823586 2.47959188,59.0227453 2.47959188,57.9623586 C2.47959188,57.4692608 2.66930617,56.995065 3.00942036,56.6380387 L30.4234391,27.8608611 C31.1548407,27.0930906 32.3701599,27.0636078 33.1379305,27.7950095 C33.1604102,27.8164244 33.1823672,27.8383814 33.2037821,27.8608611 Z" fill="#C1C9E2" transform="translate(31.813613, 43.572503) rotate(-180.000000) translate(-31.813613, -43.572503) "></path>
                <path d="M33.2037861,0.819194861 L62.8170118,31.9049348 C63.3559395,32.4706606 63.4982926,33.3065453 63.1770026,34.0187682 L52.0356749,58.7164215 C51.7252567,59.4045443 51.0404116,59.8469079 50.2855126,59.8469079 L13.3417165,59.8469079 C12.5868175,59.8469079 11.9019724,59.4045443 11.5915542,58.7164215 L0.450226447,34.0187682 C0.128936445,33.3065453 0.27128959,32.4706606 0.810217289,31.9049348 L30.423443,0.819194861 C31.1548447,0.0514243273 32.3701639,0.0219415386 33.1379344,0.753343209 C33.1604142,0.774758104 33.1823712,0.796715112 33.2037861,0.819194861 Z M31.8136145,3.53532349 L3.34119018,33.4235358 L13.9618115,56.9669079 L49.6654175,56.9669079 L60.2860389,33.4235358 L31.8136145,3.53532349 Z" fill="#3C445C" fill-rule="nonzero" transform="translate(31.813615, 30.035210) rotate(-180.000000) translate(-31.813615, -30.035210) "></path>
                <path d="M47.519092,9.11769432 C47.2990173,9.02523999 47.0600966,8.99051241 46.8237743,9.01662856 L41.4238475,9.01662856 C40.649627,9.01662858 40.0219974,9.6630383 40.0219974,10.4604251 C40.0219974,11.2578119 40.649627,11.9042216 41.4238475,11.9042216 L43.5098005,11.9042216 L35.7940173,19.8508776 L25.6782665,9.43244196 C25.3884347,9.13570949 24.990088,8.97936767 24.5820197,9.0021906 C24.180004,8.9828339 23.788503,9.13783622 23.5025951,9.42955437 L12.3859234,20.8788608 C11.8564487,21.4686933 11.8738663,22.383935 12.4253753,22.9519464 C12.9768843,23.5199578 13.8655357,23.5378965 14.438232,22.9925789 L24.5708049,12.5568176 L34.6949667,22.9868037 C34.9949627,23.2986637 35.3958918,23.4343806 35.7940173,23.417055 C36.2029863,23.4403418 36.6023729,23.2839917 36.8930678,22.9868037 L45.629398,13.9890638 L45.629398,16.2327236 C45.629398,17.0301104 46.2570277,17.6765201 47.0312481,17.6765201 C47.8054686,17.6765201 48.4330983,17.0301104 48.4330983,16.2327236 L48.4330983,10.4575375 C48.4299849,9.85816601 48.0655301,9.32391108 47.519092,9.11769432 Z" fill="#3C445C" fill-rule="nonzero"></path>
            </g>
        </g>
    </g>
</svg>