<?xml version="1.0" encoding="UTF-8"?>
<svg width="70px" height="70px" viewBox="0 0 70 70" version="1.1" xmlns="http://www.w3.org/2000/svg" xmlns:xlink="http://www.w3.org/1999/xlink">
    <g stroke="none" stroke-width="1" fill="none" fill-rule="evenodd">
        <path d="M29.0432431,1.83242182 C29.8621944,1.70748106 30.6273702,2.2700878 30.7523109,3.08903915 C30.8772517,3.9079905 30.3146449,4.67316623 29.4956936,4.79810699 C14.6917873,7.05661877 3.61318418,19.8432239 3.61318418,34.9736785 C3.61318418,51.8329003 17.2802839,65.5 34.1395057,65.5 C49.1461018,65.5 61.8619786,54.5987 64.2625779,39.949323 C64.3965457,39.1317998 65.1678816,38.5776688 65.9854048,38.7116366 C66.8029279,38.8456045 67.357059,39.6169403 67.2230911,40.4344635 C64.585762,56.528457 50.6214948,68.5 34.1395057,68.5 C15.6234296,68.5 0.613184178,53.4897546 0.613184178,34.9736785 C0.613184178,18.3556377 12.7794769,4.31365257 29.0432431,1.83242182 Z" fill="#3C445C" fill-rule="nonzero"></path>
        <path d="M28.1656504,15.1326347 C28.9589872,14.89408 29.7955004,15.3438198 30.0340551,16.1371565 C30.2726097,16.9304933 29.82287,17.7670065 29.0295332,18.0055611 C21.6051825,20.2380474 16.4237128,27.1009945 16.4237128,34.9736785 C16.4237128,44.7578407 24.3553434,52.6894714 34.1395057,52.6894714 C41.9012336,52.6894714 48.6904747,47.6524371 51.0173154,40.3747915 C51.2696026,39.5857144 52.1137952,39.1505602 52.9028723,39.4028474 C53.6919494,39.6551346 54.1271036,40.4993272 53.8748164,41.2884043 C51.1533782,49.8002297 43.2154768,55.6894714 34.1395057,55.6894714 C22.6984892,55.6894714 13.4237128,46.414695 13.4237128,34.9736785 C13.4237128,25.7678417 19.4817509,17.7438646 28.1656504,15.1326347 Z" fill="#3C445C" fill-rule="nonzero"></path>
        <path d="M36.5,14.353516 C46.736695,15.0865621 54.9134379,23.263305 55.646484,33.5 L65.4637592,33.5 C64.7057947,17.8490353 52.1509647,5.29420527 36.5,4.53624076 L36.5,14.353516 Z M35,1.5 C53.5015391,1.5 68.5,16.4984609 68.5,35 L68.5,36.5 L52.7,36.5 L52.7,35 C52.7,25.2245599 44.7754401,17.3 35,17.3 L33.5,17.3 L33.5,1.5 L35,1.5 Z" fill="#3C445C" fill-rule="nonzero"></path>
        <path d="M36.5,14.353516 C46.736695,15.0865621 54.9134379,23.263305 55.646484,33.5 L65.4637592,33.5 C64.7057947,17.8490353 52.1509647,5.29420527 36.5,4.53624076 L36.5,14.353516 Z" fill="#C1C9E2" fill-rule="nonzero"></path>
        <path d="M28.7759618,39.9088398 L22,39.9088398 L22,38.1312155 L26.1626001,33.4364641 C26.5694708,32.9654696 26.7416084,32.6312155 26.7416084,32.1298343 C26.7416084,31.3245856 26.2564933,30.7776243 25.3958053,30.7776243 C24.7229038,30.7776243 24.0343534,31.1118785 24.0343534,32.160221 L22,32.160221 C22,30.1850829 23.4866429,29 25.3958053,29 C27.3675633,29 28.7759618,30.2002762 28.7759618,32.1450276 C28.7759618,33.1933702 28.3534423,33.7555249 27.5866475,34.621547 L24.4725219,38.1312155 L28.7759618,38.1312155 L28.7759618,39.9088398 Z M36.04065,36.2624309 C36.04065,37.4779006 35.8685124,38.3287293 35.0547711,39.1187845 C34.5540071,39.6049724 33.7559146,40 32.5978981,40 C31.4398815,40 30.5948424,39.6049724 30.1097273,39.1339779 C29.4211769,38.4654696 29.2646882,37.6754144 29.2020927,36.8853591 L31.2364461,36.8853591 C31.3459883,37.7361878 31.7528589,38.2223757 32.5978981,38.2223757 C32.9891199,38.2223757 33.3177462,38.1160221 33.5681282,37.8729282 C33.9280522,37.5234807 34.0062966,36.9461326 34.0062966,36.2624309 C34.0062966,35.0165746 33.6307237,34.3176796 32.6448447,34.3176796 C31.8154544,34.3176796 31.4398815,34.7734807 31.2990416,35.198895 L29.4368258,35.198895 L29.4368258,29.0911602 L35.7902681,29.0911602 L35.7902681,30.8687845 L31.2833928,30.8687845 L31.2833928,33.1933702 C31.5807213,32.9198895 32.2066762,32.6464088 32.9578221,32.6464088 C33.8811056,32.6464088 34.5853049,32.9350829 35.0391222,33.3756906 C35.915459,34.2265193 36.04065,35.2444751 36.04065,36.2624309 Z M49,37.9185083 C49,39.2859116 47.9515255,40 46.7309135,40 C45.4946525,40 44.461827,39.2859116 44.461827,37.9185083 L44.461827,36.4143646 C44.461827,35.0469613 45.4946525,34.3328729 46.7309135,34.3328729 C47.9515255,34.3328729 49,35.0469613 49,36.4143646 L49,37.9185083 Z M46.6213714,29.0911602 L41.3477013,39.9088398 L39.7515163,39.9088398 L45.0251864,29.0911602 L46.6213714,29.0911602 Z M41.8954119,32.5856354 C41.8954119,33.9530387 40.8469374,34.6671271 39.6263253,34.6671271 C38.3900644,34.6671271 37.3572388,33.9530387 37.3572388,32.5856354 L37.3572388,31.0814917 C37.3572388,29.7140884 38.3900644,29 39.6263253,29 C40.8469374,29 41.8954119,29.7140884 41.8954119,31.0814917 L41.8954119,32.5856354 Z M47.529006,37.8577348 L47.529006,36.4751381 C47.529006,35.8977901 47.2316774,35.609116 46.7309135,35.609116 C46.2145007,35.609116 45.932821,35.8977901 45.932821,36.4751381 L45.932821,37.8577348 C45.932821,38.4350829 46.2145007,38.7237569 46.7309135,38.7237569 C47.2316774,38.7237569 47.529006,38.4350829 47.529006,37.8577348 Z M40.4244178,32.5248619 L40.4244178,31.1422652 C40.4244178,30.5649171 40.1270893,30.2762431 39.6263253,30.2762431 C39.1099125,30.2762431 38.8282328,30.5649171 38.8282328,31.1422652 L38.8282328,32.5248619 C38.8282328,33.1022099 39.1255614,33.390884 39.6263253,33.390884 C40.1270893,33.390884 40.4244178,33.1022099 40.4244178,32.5248619 Z" fill="#3C445C"></path>
    </g>
</svg>