<?xml version="1.0" encoding="UTF-8"?>
<svg width="70px" height="70px" viewBox="0 0 70 70" version="1.1" xmlns="http://www.w3.org/2000/svg" xmlns:xlink="http://www.w3.org/1999/xlink">
    <g stroke="none" stroke-width="1" fill="none" fill-rule="evenodd">
        <path d="M30.4579295,37.6417204 L30.4579295,8.8170695 C16.5806115,10.327705 5.77815396,22.0862431 5.77815396,36.3650866 C5.77815396,51.6686217 18.1866753,64.077143 33.4902104,64.077143 C40.2778922,64.077143 46.6642964,61.6267611 51.6447556,57.2996003 L30.4579295,37.6417204 Z M33.5224913,5.68531101 L33.4579295,5.68531101 L33.4579295,36.3328057 L56.0029161,57.2508344 C50.3924942,63.2938205 42.3868288,67.077143 33.4902104,67.077143 C16.529821,67.077143 2.77815396,53.325476 2.77815396,36.3650866 C2.77815396,19.4046972 16.529821,5.6530301 33.4902104,5.6530301 L33.5224913,5.68531101 Z" fill="#3C445C" fill-rule="nonzero"></path>
        <path d="M64.0991872,35.3988917 C64.1046347,21.0935588 53.2526479,9.31438403 39.3290248,7.84810006 L39.3290248,34.0328383 L58.6294603,51.9369311 C62.1486269,47.2149505 64.099187,41.4632644 64.0991872,35.3988917 Z M36.3935867,4.69443379 C53.3539761,4.69443379 67.1056431,18.4461009 67.0991869,35.4000341 C67.0991869,43.463805 63.9937635,50.8044837 58.9062923,56.285782 L36.3290248,35.3419284 L36.3290248,4.69443379 L36.3935867,4.69443379 Z" fill="#3C445C" fill-rule="nonzero"></path>
        <path d="M64.0991872,35.3988917 C64.1046347,21.0935588 53.2526479,9.31438403 39.3290248,7.84810006 L39.3290248,34.0328383 L58.6294603,51.9369311 C62.1486269,47.2149505 64.099187,41.4632644 64.0991872,35.3988917 Z" fill="#C1C9E2" fill-rule="nonzero"></path>
    </g>
</svg>