<?xml version="1.0" encoding="UTF-8"?>
<svg width="70px" height="70px" viewBox="0 0 70 70" version="1.1" xmlns="http://www.w3.org/2000/svg" xmlns:xlink="http://www.w3.org/1999/xlink">
    <g stroke="none" stroke-width="1" fill="none" fill-rule="evenodd">
        <path d="M13,7.5 C11.6192881,7.5 10.5,8.61928813 10.5,10 L10.5,62 C10.5,63.3807119 11.6192881,64.5 13,64.5 L57,64.5 C58.3807119,64.5 59.5,63.3807119 59.5,62 L59.5,10 C59.5,8.61928813 58.3807119,7.5 57,7.5 L13,7.5 Z M13,4.5 L57,4.5 C60.0375661,4.5 62.5,6.96243388 62.5,10 L62.5,62 C62.5,65.0375661 60.0375661,67.5 57,67.5 L13,67.5 C9.96243388,67.5 7.5,65.0375661 7.5,62 L7.5,10 C7.5,6.96243388 9.96243388,4.5 13,4.5 Z" fill="#3C445C" fill-rule="nonzero"></path>
        <path d="M17.5833333,48 C16.7549062,48 16.0833333,47.3284271 16.0833333,46.5 C16.0833333,45.6715729 16.7549062,45 17.5833333,45 L51.7740864,45 C52.6025135,45 53.2740864,45.6715729 53.2740864,46.5 C53.2740864,47.3284271 52.6025135,48 51.7740864,48 L17.5833333,48 Z" fill="#3C445C" fill-rule="nonzero"></path>
        <path d="M17.5833333,57 C16.7549062,57 16.0833333,56.3284271 16.0833333,55.5 C16.0833333,54.6715729 16.7549062,54 17.5833333,54 L51.7740864,54 C52.6025135,54 53.2740864,54.6715729 53.2740864,55.5 C53.2740864,56.3284271 52.6025135,57 51.7740864,57 L17.5833333,57 Z" fill="#3C445C" fill-rule="nonzero"></path>
        <g transform="translate(17.000000, 13.000000)" fill-rule="nonzero">
            <polygon fill="#3C445C" points="14.0952454 9.89692456 5.9941397 18.9973591 3.7533588 17.0026409 13.697531 5.83178455 24.6449599 14.1260886 31.8788058 4.12112256 34.3099162 5.87887744 25.2785561 18.369944"></polygon>
            <path d="M5,20 C6.1045695,20 7,19.1045695 7,18 C7,16.8954305 6.1045695,16 5,16 C3.8954305,16 3,16.8954305 3,18 C3,19.1045695 3.8954305,20 5,20 Z M5,23 C2.23857625,23 0,20.7614237 0,18 C0,15.2385763 2.23857625,13 5,13 C7.76142375,13 10,15.2385763 10,18 C10,20.7614237 7.76142375,23 5,23 Z" fill="#3C445C"></path>
            <path d="M14,10 C15.1045695,10 16,9.1045695 16,8 C16,6.8954305 15.1045695,6 14,6 C12.8954305,6 12,6.8954305 12,8 C12,9.1045695 12.8954305,10 14,10 Z M14,13 C11.2385763,13 9,10.7614237 9,8 C9,5.23857625 11.2385763,3 14,3 C16.7614237,3 19,5.23857625 19,8 C19,10.7614237 16.7614237,13 14,13 Z" fill="#3C445C"></path>
            <path d="M25,18 C26.1045695,18 27,17.1045695 27,16 C27,14.8954305 26.1045695,14 25,14 C23.8954305,14 23,14.8954305 23,16 C23,17.1045695 23.8954305,18 25,18 Z M25,21 C22.2385763,21 20,18.7614237 20,16 C20,13.2385763 22.2385763,11 25,11 C27.7614237,11 30,13.2385763 30,16 C30,18.7614237 27.7614237,21 25,21 Z" fill="#3C445C"></path>
            <path d="M33,7 C34.1045695,7 35,6.1045695 35,5 C35,3.8954305 34.1045695,3 33,3 C31.8954305,3 31,3.8954305 31,5 C31,6.1045695 31.8954305,7 33,7 Z M33,10 C30.2385763,10 28,7.76142375 28,5 C28,2.23857625 30.2385763,0 33,0 C35.7614237,0 38,2.23857625 38,5 C38,7.76142375 35.7614237,10 33,10 Z" fill="#3C445C"></path>
            <path d="M33,7 C34.1045695,7 35,6.1045695 35,5 C35,3.8954305 34.1045695,3 33,3 C31.8954305,3 31,3.8954305 31,5 C31,6.1045695 31.8954305,7 33,7 Z" fill="#C1C9E2"></path>
            <path d="M25,18 C26.1045695,18 27,17.1045695 27,16 C27,14.8954305 26.1045695,14 25,14 C23.8954305,14 23,14.8954305 23,16 C23,17.1045695 23.8954305,18 25,18 Z" fill="#C1C9E2"></path>
            <path d="M14,10 C15.1045695,10 16,9.1045695 16,8 C16,6.8954305 15.1045695,6 14,6 C12.8954305,6 12,6.8954305 12,8 C12,9.1045695 12.8954305,10 14,10 Z" fill="#C1C9E2"></path>
            <path d="M5,20 C6.1045695,20 7,19.1045695 7,18 C7,16.8954305 6.1045695,16 5,16 C3.8954305,16 3,16.8954305 3,18 C3,19.1045695 3.8954305,20 5,20 Z" fill="#C1C9E2"></path>
        </g>
    </g>
</svg>