<?xml version="1.0" encoding="UTF-8"?>
<svg width="70px" height="70px" viewBox="0 0 70 70" version="1.1" xmlns="http://www.w3.org/2000/svg" xmlns:xlink="http://www.w3.org/1999/xlink">
    <g stroke="none" stroke-width="1" fill="none" fill-rule="evenodd">
        <path d="M7.71428571,24.7899203 C6.76751186,24.7899203 6,25.526776 6,26.4357335 C6,27.344691 6.76751186,28.0815466 7.71428571,28.0815466 L16.5714286,28.0815466 L16.5714286,35.0189861 C16.5714286,35.9279437 17.3389404,36.6647993 18.2857143,36.6647993 C19.2324881,36.6647993 20,35.9279437 20,35.0189861 L20,28.0815466 L28.8571429,28.0815466 C29.8039167,28.0815466 30.5714286,27.344691 30.5714286,26.4357335 C30.5714286,25.526776 29.8039167,24.7899203 28.8571429,24.7899203 L20,24.7899203 L20,19.498294 L28.8571429,19.498294 C29.8039167,19.498294 30.5714286,18.7614383 30.5714286,17.8524808 C30.5714286,16.9435233 29.8039167,16.2066676 28.8571429,16.2066676 L20.8777143,16.2066676 L20.8194286,16.15071 L27.3051429,9.88739948 C27.9562779,9.20824708 27.9336081,8.15692281 27.2537541,7.50422377 C26.5739001,6.85152474 25.4788365,6.82976038 24.7714286,7.45488762 L18.2857143,13.7214898 L11.8,7.45488762 C11.0925921,6.82976038 9.99752843,6.85152474 9.31767445,7.50422377 C8.63782047,8.15692281 8.61515063,9.20824708 9.26628571,9.88739948 L15.752,16.1540016 L15.6937143,16.2066676 L7.71428571,16.2066676 C6.76751188,16.2066677 6.00000005,16.9435233 6.00000005,17.8524808 C6.00000005,18.7614383 6.76751188,19.4982939 7.71428571,19.498294 L16.5714286,19.498294 L16.5714286,24.7899203 L7.71428571,24.7899203 Z" fill="#3C445C" fill-rule="nonzero"></path>
        <path d="M8,65.2212327 C7.17157288,65.2212327 6.5,64.5496598 6.5,63.7212327 C6.5,62.8928056 7.17157288,62.2212327 8,62.2212327 L62.7642671,62.2212327 C63.5926943,62.2212327 64.2642671,62.8928056 64.2642671,63.7212327 C64.2642671,64.5496598 63.5926943,65.2212327 62.7642671,65.2212327 L8,65.2212327 Z" fill="#3C445C" fill-rule="nonzero"></path>
        <path d="M50,62 L58,62 L58,24 C58,23.4477153 57.5522847,23 57,23 L51,23 C50.4477153,23 50,23.4477153 50,24 L50,62 Z M51,20 L57,20 C59.209139,20 61,21.790861 61,24 L61,63 C61,64.1045695 60.1045695,65 59,65 L49,65 C47.8954305,65 47,64.1045695 47,63 L47,24 C47,21.790861 48.790861,20 51,20 Z" fill="#3C445C" fill-rule="nonzero"></path>
        <path d="M32,62 L40,62 L40,36 C40,35.4477153 39.5522847,35 39,35 L33,35 C32.4477153,35 32,35.4477153 32,36 L32,62 Z M33,32 L39,32 C41.209139,32 43,33.790861 43,36 L43,63 C43,64.1045695 42.1045695,65 41,65 L31,65 C29.8954305,65 29,64.1045695 29,63 L29,36 C29,33.790861 30.790861,32 33,32 Z" fill="#3C445C" fill-rule="nonzero"></path>
        <path d="M14,62 L22,62 L22,47 C22,46.4477153 21.5522847,46 21,46 L15,46 C14.4477153,46 14,46.4477153 14,47 L14,62 Z M15,43 L21,43 C23.209139,43 25,44.790861 25,47 L25,63 C25,64.1045695 24.1045695,65 23,65 L13,65 C11.8954305,65 11,64.1045695 11,63 L11,47 C11,44.790861 12.790861,43 15,43 Z" fill="#3C445C" fill-rule="nonzero"></path>
        <path d="M32,62 L40,62 L40,36 C40,35.4477153 39.5522847,35 39,35 L33,35 C32.4477153,35 32,35.4477153 32,36 L32,62 Z" fill="#C1C9E2" fill-rule="nonzero"></path>
    </g>
</svg>