<?xml version="1.0" encoding="UTF-8"?>
<svg width="70px" height="70px" viewBox="0 0 70 70" version="1.1" xmlns="http://www.w3.org/2000/svg" xmlns:xlink="http://www.w3.org/1999/xlink">
    <g stroke="none" stroke-width="1" fill="none" fill-rule="evenodd">
        <path d="M61.5145701,7.01893499 L55.0771392,7.01893499 C54.1541655,7.01893501 53.4059474,7.7550035 53.4059474,8.66298999 C53.4059474,9.57097648 54.1541655,10.307045 55.0771392,10.307045 L57.5638726,10.307045 L43.3656329,20.3559237 L27.3063127,7.49242283 C26.9607946,7.15453276 26.4859124,6.97650592 25.9994407,7.00249444 C25.5201845,6.98045291 25.0534633,7.15695448 24.712623,7.48913472 L7.46007196,20.5264908 C6.82886779,21.1981348 6.84963182,22.240323 7.50710394,22.8871191 C8.16457605,23.5339152 9.22396663,23.554342 9.90669678,22.9333874 L25.9860712,11.0501578 L42.0554185,23.9268111 C42.4130535,24.281927 42.8910144,24.4364682 43.3656329,24.4167395 C43.8531784,24.4432562 44.3293003,24.26522 44.6758473,23.9268111 L60.0907146,12.6810604 L60.0907146,15.2359219 C60.0907146,16.1439084 60.8389327,16.8799769 61.7619065,16.8799769 C62.6848802,16.8799769 63.4330983,16.1439084 63.4330983,15.2359219 L63.4330983,8.65970188 C63.4293868,7.97719595 62.9949081,7.36883842 62.3434812,7.13401884 C62.0811229,7.02874085 61.7962977,6.98919646 61.5145701,7.01893499 Z" fill="#3C445C" fill-rule="nonzero"></path>
        <path d="M49.8164384,39.5 C49.8164384,38.6715729 50.4880112,38 51.3164384,38 C52.1448655,38 52.8164384,38.6715729 52.8164384,39.5 L52.8164384,63.8666045 C52.8164384,64.6950316 52.1448655,65.3666045 51.3164384,65.3666045 C50.4880112,65.3666045 49.8164384,64.6950316 49.8164384,63.8666045 L49.8164384,39.5 Z" fill="#3C445C" fill-rule="nonzero"></path>
        <path d="M49.5664384,40 C49.5664384,39.0335017 50.34994,38.25 51.3164384,38.25 C52.2829367,38.25 53.0664384,39.0335017 53.0664384,40 L53.0664384,63.7212327 C53.0664384,64.687731 52.2829367,65.4712327 51.3164384,65.4712327 C50.34994,65.4712327 49.5664384,64.687731 49.5664384,63.7212327 L49.5664384,40 Z" fill="#3C445C" fill-rule="nonzero"></path>
        <path d="M57.5664384,25 C57.5664384,24.0335017 58.34994,23.25 59.3164384,23.25 C60.2829367,23.25 61.0664384,24.0335017 61.0664384,25 L61.0664384,63.7212327 C61.0664384,64.687731 60.2829367,65.4712327 59.3164384,65.4712327 C58.34994,65.4712327 57.5664384,64.687731 57.5664384,63.7212327 L57.5664384,25 Z" fill="#3C445C" fill-rule="nonzero"></path>
        <path d="M17.6897952,48 C13.2466855,48 9.43726227,51.1727591 8.63366183,55.5425932 L8.04551781,58.7408142 C8.01523542,58.9054844 8,59.0725685 8,59.24 C8,60.7643059 9.23569409,62 10.76,62 L37.3857238,62 C37.5531552,62 37.7202394,61.9847646 37.8849096,61.9544822 C39.3840767,61.6787895 40.3758987,60.2399813 40.100206,58.7408142 L39.512062,55.5425932 C38.7084615,51.1727591 34.8990383,48 30.4559286,48 L17.6897952,48 Z M17.6897952,45 L30.4559286,45 C36.3466211,45 41.3971694,49.2064566 42.4625861,55 L43.0507301,58.198221 C43.6260888,61.3269176 41.5561994,64.3296476 38.4275028,64.9050063 C38.0838433,64.9682043 37.7351459,65 37.3857238,65 L10.76,65 C7.57883984,65 5,62.4211602 5,59.24 C5,58.8905778 5.03179566,58.5418805 5.09499369,58.198221 L5.68313771,55 C6.74855436,49.2064566 11.7991027,45 17.6897952,45 Z" fill="#3C445C" fill-rule="nonzero"></path>
        <path d="M23.5,41 C27.0898509,41 30,38.0898509 30,34.5 C30,30.9101491 27.0898509,28 23.5,28 C19.9101491,28 17,30.9101491 17,34.5 C17,38.0898509 19.9101491,41 23.5,41 Z M23.5,44 C18.2532949,44 14,39.7467051 14,34.5 C14,29.2532949 18.2532949,25 23.5,25 C28.7467051,25 33,29.2532949 33,34.5 C33,39.7467051 28.7467051,44 23.5,44 Z" fill="#3C445C" fill-rule="nonzero"></path>
        <path d="M23.5,41 C27.0898509,41 30,38.0898509 30,34.5 C30,30.9101491 27.0898509,28 23.5,28 C19.9101491,28 17,30.9101491 17,34.5 C17,38.0898509 19.9101491,41 23.5,41 Z" fill="#C1C9E2" fill-rule="nonzero"></path>
    </g>
</svg>