<svg xmlns="http://www.w3.org/2000/svg" width="36" height="36" viewBox="-294 384 26 26" x="204" y="26"><path fill="#fff" d="M-281 385c-6.6 0-12 5.4-12 12s5.4 12 12 12 12-5.4 12-12-5.4-12-12-12zm0 1.6c5.7 0 10.4 4.7 10.4 10.4 0 2.1-.6 4-1.7 5.6-1.1-2.4-3.2-4.3-5.7-5.1 1.1-.9 1.8-2.2 1.8-3.7 0-2.7-2.1-4.8-4.8-4.8s-4.8 2.1-4.8 4.8c0 1.5.7 2.8 1.8 3.7-2.5.8-4.6 2.7-5.7 5.1-1.1-1.6-1.7-3.5-1.7-5.6 0-5.7 4.7-10.4 10.4-10.4zm0 10.4c-1.8 0-3.2-1.4-3.2-3.2 0-1.8 1.4-3.2 3.2-3.2s3.2 1.4 3.2 3.2c0 1.8-1.4 3.2-3.2 3.2zm0 10.4c-3 0-5.7-1.3-7.6-3.3 1-3.2 4-5.5 7.6-5.5 3.5 0 6.5 2.3 7.6 5.5-1.9 2-4.6 3.3-7.6 3.3z"/></svg>