<svg version="1.1" viewBox="0 0 480 480" xmlns="http://www.w3.org/2000/svg" width="18" height="18">
 <path d="m233.9 1.8972c90.264 0 163.62 71.399 163.62 159.25 0 78.831-58.904 144.39-136.35 157.13v55.208h54.54v53.085h-54.54v53.085h-54.54v-53.085h-54.54v-53.085h54.54v-55.208c-77.447-12.74-136.35-78.3-136.35-157.13 0-87.855 73.357-159.25 163.62-159.25m0 53.085c-60.267 0-109.08 47.511-109.08 106.17 0 58.658 48.814 106.17 109.08 106.17s109.08-47.511 109.08-106.17-48.814-106.17-109.08-106.17z" fill="#f11f42"/>
</svg>
