<svg xmlns="http://www.w3.org/2000/svg" class="icon" viewBox="0 0 1024 1024" width="20" height="20"><path fill="#fff" d="M512 256q70.016 0 120.021 50.005t50.006 120.022q0 54.016-64 111.018t-64 102.998h-84.011q0-45.995 20.01-79.019t43.99-48 43.99-36.992 20.01-50.005q0-34.006-25.984-59.008t-59.99-25.003-59.989 25.003-25.984 59.008h-84.01q0-70.016 50.005-120.022T512.085 256zm0 598.016q139.99 0 240.981-100.992t100.992-240.981T752.981 271.06 512 170.07 271.019 271.061 170.027 512.043t100.992 240.981T512 854.016zm0-768q176 0 301.013 125.013t125.014 301.014-125.014 301.013T512 938.069 210.987 813.056 85.973 512.043t125.014-301.014T512 86.016zM470.016 768v-86.016h84.01V768h-84.01z"/></svg>