<svg xmlns="http://www.w3.org/2000/svg" viewBox="0 0 138.6 138.6"><path d="M41 113.2l.5-.1V58.4c0-2.4-1.9-4.3-4.3-4.3H4.3C1.9 54 0 56 0 58.4v54.7l.5.1c13.3 2.3 27.2 2.3 40.5 0z" fill="#379dd9"/><path d="M89.3 92.3v-88C89.3 2 87.4.1 85.1.1H53.4c-2.3 0-4.2 1.9-4.2 4.2v107c13.8-3.5 26.7-9.5 38.3-17.8l1.8-1.2z" fill="#379dd9"/><path d="M131.3 30.9h-30c-2.4 0-4.4 2-4.4 4.4V86c16.7-14.8 28.5-33.7 34.4-55.1z" fill="#379dd9"/><path d="M0 119.2c.2 10.8 9.1 19.6 20 19.6h1.5c10.9 0 19.8-8.7 20-19.6-6.8 1.2-13.8 1.8-20.8 1.8-6.9-.1-13.9-.7-20.7-1.8z" fill="#337ec2"/><path d="M49.2 117.6v1.2c0 11.1 9 20 20 20s20-9 20-20V99.6c-12 8.3-25.2 14.2-39.3 17.8l-.7.2z" fill="#337ec2"/><path d="M137.2 32.2c-6.4 23.4-19.7 44.2-38.3 60L97 93.9v24.8c0 11.1 9 20 20 20h1.5c11.1 0 20-9 20-20V35.3c0-1.2-.5-2.3-1.3-3.1z" fill="#337ec2"/></svg>