<svg version="1.1" viewBox="0 0 480 480" xmlns="http://www.w3.org/2000/svg" width="18" height="18">
 <path d="m478.43 175.39c-2.1723-194.84.52941 47.182-1.6446-147.65-.16049-14.188-12.446-25.675-27.425-25.637-40.124.09998-62.642.15579-74.519.18505.10282-.00055.19237-.00055.29115-.0022-8.5727.02316-31.209.08006-81.654.20539-14.979.03765-27.007 11.582-26.849 25.771.16106 14.187 12.443 25.672 27.421 25.636 62.688-.15749 75.583-.18879 77.757-.19581-.02592-.0011.01985-.00055.03461.0011.05241-.00022.13998-.0011.26408.00055-.07374-.00165-.15667-.0022-.22636-.0022.11806-.00055.20762-.0011.256-.00165l.004.0011c.04834-.0011.03461.0011.03461.0011.82592-.00165 3.2426-.00774 9.3628-.0225-81.797 78.571 3.6808-2.9495-97.765 94.431-54.628-30.369-123.37-32.655-183.75-1.116-41.666 21.768-74.508 58.726-88.502 105.54-13.996 46.821-6.56 94.859 16.749 134.49 23.309 39.64 62.59 71.036 112.14 84.662 49.541 13.626 100.2 6.9697 141.86-14.799 41.669-21.763 74.508-58.721 88.502-105.54 13.994-46.811 6.5634-94.848-16.75-134.49-7.9102-13.45-17.226-25.529-27.632-36.186 127.69-122.58-18.327 17.031 96.775-93.481.12493 10.852.1537 13.861.16413 14.52.01859 1.5156.13819 12.598.81837 73.813.16104 14.187 12.447 25.673 27.425 25.637 14.984-.04034 27.01-11.585 26.851-25.771l.00513-.00771zm-159.88 161.59c-9.9309 33.221-33.224 59.423-62.768 74.855-29.542 15.432-65.468 20.16-100.62 10.491-35.155-9.6692-63.002-31.938-79.531-60.043-16.526-28.103-21.805-62.167-11.874-95.386 9.9298-33.217 33.223-59.418 62.762-74.85 29.542-15.432 65.462-20.163 100.61-10.494 35.151 9.6681 63.002 31.94 79.531 60.043 16.529 28.101 21.807 62.162 11.877 95.38l.00858.00274z" fill="#007aff" stroke-width="1.008"/>
</svg>
