<?xml version="1.0" standalone="no"?><!DOCTYPE svg PUBLIC "-//W3C//DTD SVG 1.1//EN" "http://www.w3.org/Graphics/SVG/1.1/DTD/svg11.dtd"><svg class="icon" width="200px" height="200.00px" viewBox="0 0 1024 1024" version="1.1" xmlns="http://www.w3.org/2000/svg"><path d="M810.666667 128a85.333333 85.333333 0 0 1 85.333333 85.333333v597.333334a85.333333 85.333333 0 0 1-85.333333 85.333333H213.333333a85.333333 85.333333 0 0 1-85.333333-85.333333V213.333333a85.333333 85.333333 0 0 1 85.333333-85.333333h597.333334zM293.376 344.32H231.978667v314.368h204.032v-54.741333H293.376V344.32z m205.269333 90.368H450.56l78.506667 224h34.688l78.805333-224h-48.426667l-47.744 146.005333-47.744-146.005333z m302.933334 158.677333h-65.749334v65.322667h65.792v-65.322667z" /></svg>