<?xml version="1.0" standalone="no"?><!DOCTYPE svg PUBLIC "-//W3C//DTD SVG 1.1//EN" "http://www.w3.org/Graphics/SVG/1.1/DTD/svg11.dtd"><svg class="icon" width="200px" height="200.00px" viewBox="0 0 1024 1024" version="1.1" xmlns="http://www.w3.org/2000/svg"><path d="M686.592 960a207.52 207.52 0 1 1 0-415.04 207.52 207.52 0 0 1 0 415.04z m54.336-300.128l-54.016 154.368-54.592-154.368h-58.08l91.744 222.496h40.32l90.24-222.496h-55.616z m-314.4 84.416a265.6 265.6 0 0 0 67.52 176.96c-18.624 0.224-37.024 0.32-54.624 0.32-92.576 0-177.44-23.296-270.016-46.624-7.712 0-23.136-7.776-30.88-7.776 7.712-77.76 0-155.52 7.712-225.472a220.8 220.8 0 0 1 92.576-155.52 252.64 252.64 0 0 1 146.624-46.624h138.88a231.872 231.872 0 0 1 133.888 40.384 266.752 266.752 0 0 0-231.68 264.32z m28.384-312.384c-100.288 0-177.44-85.504-185.152-186.592a181.312 181.312 0 0 1 362.624 0 177.152 177.152 0 0 1-177.44 186.528v0.064z" /></svg>