<?xml version="1.0" standalone="no"?><!DOCTYPE svg PUBLIC "-//W3C//DTD SVG 1.1//EN" "http://www.w3.org/Graphics/SVG/1.1/DTD/svg11.dtd"><svg class="icon" width="200px" height="200.00px" viewBox="0 0 1024 1024" version="1.1" xmlns="http://www.w3.org/2000/svg"><path d="M215.424 680.021333l-81.365333 127.488a11.861333 11.861333 0 0 0 10.112 18.133334l107.946666 5.973333c2.986667 0.042667 5.802667 1.450667 7.68 3.84l66.005334 88.021333a13.269333 13.269333 0 0 0 19.925333 0l75.776-125.781333a10.837333 10.837333 0 0 0-3.84-16.042667l-187.562667-104.789333a15.018667 15.018667 0 0 0-14.677333 3.157333z m594.816-2.133333l79.658667 127.872a11.52 11.52 0 0 1-9.813334 17.792l-107.904 5.973333a10.837333 10.837333 0 0 0-8.021333 4.181334l-65.706667 87.637333a13.269333 13.269333 0 0 1-19.882666 0l-75.776-126.762667a10.837333 10.837333 0 0 1 3.84-16.085333l187.562666-104.789333a11.178667 11.178667 0 0 1 16.042667 4.224z m-17.066667-430.634667l-253.269333-143.914666a65.28 65.28 0 0 0-60.074667 0L228.352 245.162667c-17.92 10.325333-29.184 29.226667-29.696 49.92v285.397333c0.512 20.650667 11.776 39.594667 29.696 49.92l254.976 143.573333c18.602667 10.112 41.088 10.112 59.733333 0l251.477334-139.733333c17.493333-10.24 28.373333-28.928 28.629333-49.237333V298.922667a59.050667 59.050667 0 0 0-30.037333-51.669334z m-110.762666 132.010667l-147.370667 213.418667a34.944 34.944 0 0 1-27.264 13.653333 34.944 34.944 0 0 1-27.264-13.994667L338.773333 378.88a31.104 31.104 0 0 1-5.248-23.424 32.128 32.128 0 0 1 13.952-20.906667 34.944 34.944 0 0 1 44.032 9.045334l114.56 171.52 120.149334-174.677334a31.786667 31.786667 0 0 1 44.714666-8.021333c9.045333 4.949333 15.445333 13.653333 17.493334 23.765333a27.605333 27.605333 0 0 1-5.973334 23.04z" /></svg>