<?xml version="1.0" standalone="no"?><!DOCTYPE svg PUBLIC "-//W3C//DTD SVG 1.1//EN" "http://www.w3.org/Graphics/SVG/1.1/DTD/svg11.dtd"><svg class="icon" width="200px" height="200.00px" viewBox="0 0 1024 1024" version="1.1" xmlns="http://www.w3.org/2000/svg"><path d="M187.093333 326.826667c0 59.648 61.952 114.773333 162.474667 144.597333 100.522667 29.824 224.341333 29.824 324.864 0 100.522667-29.866667 162.474667-84.949333 162.474667-144.64 0-92.16-145.493333-166.912-324.906667-166.912-179.456 0-324.906667 74.752-324.906667 166.954667zM512 544c-132.693333 0-246.826667-40.874667-297.258667-99.456-17.749333 20.608-27.648 43.434667-27.648 67.456 0 92.202667 145.493333 166.954667 324.906667 166.954667 179.456 0 324.906667-74.752 324.906667-166.954667 0-24.021333-9.898667-46.848-27.648-67.456C758.826667 503.125333 644.693333 544 512 544z m0 189.781333c-134.442667 0-249.813333-41.941333-299.221333-101.76-16.512 20.010667-25.685333 42.026667-25.685334 65.152 0 92.202667 145.493333 166.954667 324.906667 166.954667 179.456 0 324.906667-74.752 324.906667-166.954667 0-23.125333-9.173333-45.141333-25.685334-65.152-49.408 59.818667-164.778667 101.76-299.221333 101.76z" /></svg>