<?xml version="1.0" encoding="UTF-8"?>
<svg width="44px" height="44px" viewBox="0 0 44 44" version="1.1" xmlns="http://www.w3.org/2000/svg" xmlns:xlink="http://www.w3.org/1999/xlink">
    <title>编组 13备份 4</title>
    <g id="页面-1" stroke="none" stroke-width="1" fill="none" fill-rule="evenodd">
        <g id="2-1.会员中心-会员档案-会员概况" transform="translate(-1165.000000, -817.000000)">
            <g id="编组-12备份-2" transform="translate(615.000000, 718.000000)">
                <g id="编组-16" transform="translate(29.000000, 57.000000)">
                    <g id="编组-15" transform="translate(0.000000, 42.000000)">
                        <g id="编组-14" transform="translate(36.000000, 0.000000)">
                            <g id="编组-13备份-4" transform="translate(485.000000, 0.000000)">
                                <circle id="椭圆形" fill="#E5F5DD" cx="22" cy="22" r="22"></circle>
                                <g id="2-3升级" transform="translate(22.000000, 22.000000) scale(1, -1) translate(-22.000000, -22.000000) translate(13.000000, 13.000000)" fill-rule="nonzero">
                                    <rect id="矩形" fill="#000000" opacity="0" x="0" y="0" width="18" height="17.982439"></rect>
                                    <path d="M17.7255686,9.00920195 L13.5686078,9.00920195 L13.4606348,10.8434107 C13.4606348,11.0592 13.2806798,11.2390244 13.0647338,11.2390244 L4.93076731,11.2390244 C4.71482129,11.2390244 4.53486628,11.0592 4.53486628,10.8254283 L4.49887528,9.00920195 L0.287928018,9.00920195 L0.16195951,8.90130732 C0.0539865034,8.81139512 0,8.68551805 0,8.54165854 C0,8.39779902 0.0539865034,8.27192195 0.16195951,8.1999922 L8.63784054,0.143859512 C8.72781805,0.0539473171 8.85378655,0 8.99775056,0 C9.14171457,0 9.26768308,0.0539473171 9.35766058,0.143859512 L17.8515371,8.1999922 C18.0494876,8.37981659 18.0494876,8.70350049 17.8515371,8.88332488 L17.7255686,9.00920195 Z M4.51687078,13.4868293 C4.51687078,12.8754263 5.02074481,12.371918 5.63259185,12.371918 L12.3989003,12.371918 C13.0107473,12.371918 13.5146213,12.8754263 13.5146213,13.4868293 C13.5146213,14.0982322 13.0107473,14.6017405 12.3989003,14.6017405 L5.63259185,14.6017405 C5.02074481,14.6017405 4.51687078,14.0982322 4.51687078,13.4868293 Z M5.61459635,16.8675278 C5.61459635,16.2561249 6.15446138,15.7526166 6.82029493,15.7526166 L11.1392152,15.7526166 C11.8050487,15.7526166 12.3449138,16.2561249 12.3449138,16.8675278 C12.3449138,17.4789307 11.8050487,17.982439 11.1392152,17.982439 L6.83829043,17.982439 C6.17245689,17.982439 5.61459635,17.4789307 5.61459635,16.8675278 Z" id="形状" fill="#52C41A"></path>
                                </g>
                            </g>
                        </g>
                    </g>
                </g>
            </g>
        </g>
    </g>
</svg>