<?xml version="1.0" encoding="UTF-8"?>
<svg width="44px" height="44px" viewBox="0 0 44 44" version="1.1" xmlns="http://www.w3.org/2000/svg" xmlns:xlink="http://www.w3.org/1999/xlink">
    <title>编组 13</title>
    <g id="页面-1" stroke="none" stroke-width="1" fill="none" fill-rule="evenodd">
        <g id="2-1.会员中心-会员档案-会员概况" transform="translate(-693.000000, -817.000000)">
            <g id="编组-12备份-2" transform="translate(615.000000, 718.000000)">
                <g id="编组-16" transform="translate(29.000000, 57.000000)">
                    <g id="编组-15" transform="translate(0.000000, 42.000000)">
                        <g id="编组-14" transform="translate(36.000000, 0.000000)">
                            <g id="编组-13" transform="translate(13.000000, 0.000000)">
                                <circle id="椭圆形" fill="#A8E8FF" cx="22" cy="22" r="22"></circle>
                                <g id="点击-手指" transform="translate(10.000000, 10.000000)" fill-rule="nonzero">
                                    <rect id="矩形" fill="#000000" opacity="0" x="0" y="0" width="24" height="24"></rect>
                                    <path d="M9.61171875,21.3492187 L4.9640625,15.54375 C4.9640625,15.54375 4.7296875,13.378125 6.82265625,14.2898437 C8.0296875,14.83125 8.4609375,15.9703125 8.4609375,15.9703125 L8.503125,7.12734375 C8.503125,7.12734375 9.75234375,5.2640625 10.8375,7.12734375 L10.85625,12.7265625 C10.85625,12.7265625 12.20625,10.8890625 13.7953125,12.8554687 C13.7953125,12.8554687 14.9859375,10.8539063 16.6617187,12.9515625 C16.6617187,12.9515625 17.8476562,10.6359375 19.040625,13.153125 L19.040625,20.1796875 C19.040625,20.1796875 18.9726562,20.728125 18.0046875,21.346875 L9.61171875,21.346875 L9.61171875,21.3492187 Z" id="路径" fill="#3A93B3"></path>
                                    <path d="M9.6515625,2.63671875 C7.059375,2.63671875 4.95703125,4.7390625 4.95703125,7.33125 C4.95703125,9.0703125 5.91328125,10.5726563 7.31953125,11.3835938 L7.31953125,9.9328125 C6.59296875,9.28828125 6.1265625,8.36015625 6.1265625,7.3125 C6.1265625,5.3765625 7.696875,3.80390625 9.63515625,3.80390625 C11.5710937,3.80390625 13.14375,5.3765625 13.14375,7.3125 C13.14375,8.3390625 12.6960937,9.253125 11.9929687,9.8953125 L11.9929687,11.38125 C13.3945312,10.5679688 14.3484375,9.0703125 14.3484375,7.33359375 C14.3484375,4.7390625 12.24375,2.63671875 9.6515625,2.63671875 Z" id="路径" fill="#3A93B3"></path>
                                </g>
                            </g>
                        </g>
                    </g>
                </g>
            </g>
        </g>
    </g>
</svg>