<?xml version="1.0" encoding="UTF-8"?>
<svg width="44px" height="44px" viewBox="0 0 44 44" version="1.1" xmlns="http://www.w3.org/2000/svg" xmlns:xlink="http://www.w3.org/1999/xlink">
    <title>编组 13备份 5</title>
    <g id="页面-1" stroke="none" stroke-width="1" fill="none" fill-rule="evenodd">
        <g id="2-1.会员中心-会员档案-会员概况" transform="translate(-1283.000000, -817.000000)">
            <g id="编组-12备份-2" transform="translate(615.000000, 718.000000)">
                <g id="编组-16" transform="translate(29.000000, 57.000000)">
                    <g id="编组-15" transform="translate(0.000000, 42.000000)">
                        <g id="编组-14" transform="translate(36.000000, 0.000000)">
                            <g id="编组-13备份-5" transform="translate(603.000000, 0.000000)">
                                <circle id="椭圆形" fill="#EEEEEE" cx="22" cy="22" r="22"></circle>
                                <g id="手动下单" transform="translate(11.000000, 11.000000)" fill-rule="nonzero">
                                    <rect id="矩形" fill="#000000" opacity="0" x="0" y="0" width="22" height="22"></rect>
                                    <path d="M16.7470703,18.0425781 C15.2195312,18.9900391 13.3632812,19.2650391 11.584375,18.8095703 L10.6111328,18.5582031 L4.62558594,17.0199219 C3.540625,16.740625 2.85097656,15.6277344 3.08300781,14.5320313 C3.31503906,13.4363281 4.3828125,12.7746094 5.465625,13.0539063 L7.52382812,13.5824219 L5.33671875,10.0589844 L2.82949219,6.01777344 C2.22578125,5.04667969 2.4921875,3.78984375 3.42246094,3.21191406 C4.35273437,2.63398438 5.59667969,2.95410156 6.20039062,3.92519531 L8.57871094,7.76015625 C8.64960937,7.87402344 8.79570312,7.91269531 8.90527344,7.84394531 L13.8789062,4.75878906 C14.9144531,4.11425781 16.3001953,4.47089844 16.9705078,5.55371094 L18.7751953,8.46054688 C20.8355469,11.7798828 19.9267578,16.0703125 16.7470703,18.0425781" id="路径" fill="#929292"></path>
                                </g>
                            </g>
                        </g>
                    </g>
                </g>
            </g>
        </g>
    </g>
</svg>