<?xml version="1.0" standalone="no"?><!DOCTYPE svg PUBLIC "-//W3C//DTD SVG 1.1//EN" "http://www.w3.org/Graphics/SVG/1.1/DTD/svg11.dtd"><svg t="1623050531157" class="icon" viewBox="0 0 1024 1024" version="1.1" xmlns="http://www.w3.org/2000/svg" p-id="1076" xmlns:xlink="http://www.w3.org/1999/xlink" width="200" height="200"><defs><style type="text/css"></style></defs><path d="M837.5808 537.417143l-5.632 45.714286h-99.876571c1.733486-15.908571 3.335314-30.815086 5.024914-45.714286h100.476343z m49.546971-24.685714l2.106515 5.12c13.941029 0 26.236343-0.182857 38.495085 0.043885 12.017371 0.226743 24.137143-1.002057 37.485715 1.053257l-7.497143 54.762058c-24.32 2.6112-25.234286 2.377143-30.72-7.131429l15.7696-1.916343 4.893257-35.474286c-7.68-2.282057-8.923429 3.291429-11.117714 6.992458a110.175086 110.175086 0 0 1-33.733486 35.613257c-3.4304 2.282057-6.582857 4.937143-9.874286 7.453257h-2.516114l2.516114-17.371429c12.346514-8.96 23.5008-18.519771 30.763886-33.009371l-12.251429-0.592457c-15.7696 20.845714-34.786743 37.441829-61.710628 46.401828 1.097143-6.129371 1.967543-10.927543 2.881828-15.637943 14.533486-7.68 28.021029-15.952457 38.8096-30.127542h-13.348571l-26.148571 16.6912 1.506742-15.045486 16.778972-17.093486 16.910628-0.775314v0.043886zM92.342857 468.026514L132.388571 543.634286h2.1504l10.832458-75.607772h19.6608l-14.774858 106.832457h-22.074514l-42.057143-77.809371-11.424914 77.809371-19.894857 1.828572v-17.832229c2.56-12.068571 5.485714-24.093257 7.504457-36.2496 2.9696-17.876114 5.258971-35.883886 7.950629-54.5792h22.081828z m551.043657 22.805943v7.862857l-10.971428 2.9696-1.375086 15.089372 7.906743 1.601828 2.333257 2.421029v6.853486l-12.156343 2.062628-3.847314 26.697143 7.504457-1.28 2.56 2.282057-1.375086 7.592229-28.247771 11.424914c2.282057-15.996343 4.337371-30.858971 6.304914-45.165714l-13.6704-9.3696 1.601829-0.548572v-2.881828h1.375085v2.472228l1.733486-0.548571 10.832457-3.386514 2.377143-13.6192-11.198171-12.529372h38.312228z m-334.628571-0.687543c9.596343 0.782629 16.1792 7.226514 15.264914 16.64a621.099886 621.099886 0 0 1-7.175314 51.2c-2.1504 11.432229-11.066514 16.822857-21.942857 17.649372a203.000686 203.000686 0 0 1-31.634286 0c-13.165714-1.009371-19.2-9.603657-17.1008-22.674286 2.1504-13.714286 4.117943-27.472457 6.356114-41.142857 2.377143-14.628571 10.196114-21.438171 24.597943-21.803886 4.6592-0.138971 9.325714 0 13.941029 0v0.087772c5.9392 0 11.885714-0.4096 17.737143 0.043885h-0.0512z m95.217371-0.175543l-9.281828 13.165715c-9.596343 0-18.834286-0.146286-28.1088 0.043885-10.422857 0.270629-13.165714 2.925714-14.628572 13.253486-1.462857 10.057143-3.108571 19.975314-4.483657 29.988572-0.548571 4.117943-0.453486 8.228571-0.775314 13.758171 15.447771 3.569371 30.632229 0.234057 46.855314 2.472229l-9.274514 13.253485c-12.8 0-25.014857 0.512-37.1712-0.131657-14.628571-0.731429-21.942857-10.24-19.975314-24.685714 1.645714-12.119771 3.291429-24.232229 5.207771-36.3008 2.56-15.996343 12.3904-24.546743 28.437943-24.773486 13.714286-0.234057 27.428571-0.0512 43.198171-0.043886zM225.060571 490.057143c12.8 0.321829 18.512457 6.495086 17.824915 19.2-0.321829 5.024914-1.367771 10.013257-2.194286 14.994286-2.421029 13.714286-8.177371 18.651429-22.1696 18.878171-10.517943 0.182857-21.028571 0.043886-32.636343 0.043886l-2.062628 18.702628H234.057143l-9.735314 13.984915-28.576915 0.182857c-4.798171 0-9.552457-0.087771-14.306743-0.321829-12.017371-0.548571-18.468571-8.630857-17.005714-20.4288 1.923657-15.089371 4.2496-30.083657 6.8608-45.077943 2.377143-13.531429 9.823086-19.836343 23.310629-20.158171a563.346286 563.346286 0 0 1 30.449371 0z m473.1392-42.057143l-4.110628 36.205714 24.546743 1.28-12.478172 89.695086-20.757943 0.906971c-2.516114-3.196343-5.024914-6.261029-8.228571-10.371657l14.175086-2.011428 1.506743-17.239772h-33.184915l-4.805485 28.481829H638.537143l12.478171-89.556114h25.146515l6.165942-37.346743h15.872v-0.043886z m-230.356114 42.517943l-7.402057 12.653714h-17.737143c-15.586743 0-17.554286 2.106514-19.565714 18.066286-2.106514 16.310857-4.754286 32.548571-7.175314 48.815543-0.234057 1.645714-0.775314 3.203657-1.28 5.266285h-18.563658c3.335314-23.230171 5.807543-44.982857 9.786515-66.472228a21.533257 21.533257 0 0 1 19.2-18.015086c13.6192-1.28 27.428571-0.321829 42.737371-0.314514z m79.089372-0.512c13.6704 0.234057 22.030629 8.689371 20.575085 21.489371-2.289371 19.704686-5.485714 39.314286-8.367543 58.88-0.277943 1.601829-1.28 3.064686-2.106514 4.937143H539.209143l9.325714-70.765714-19.931428-1.601829-10.517943 72.367543h-18.922057l9.7792-70.261028c-16.135314-4.476343-20.48-1.462857-22.5792 14.401828-2.377143 18.3296-5.258971 36.615314-8.045715 55.632457H458.825143c3.064686-21.255314 5.536914-41.735314 9.055086-62.032457 2.647771-15.36 11.973486-22.857143 27.106742-23.04a1837.714286 1837.714286 0 0 1 51.975315 0h-0.043886z m272.822857 60.167314h-68.022857l-1.053258 19.2h65.923658l3.196342-19.2h-0.043885z m-515.203657-46.401828H273.188571l-8.367542 57.146514h31.861028c3.613257-19.068343 7.094857-37.354057 7.914057-57.146514h-0.043885z m392.777142 17.876114h-34.925714v11.973486h32.007314l2.925715-11.973486z m-473.417142-17.649372H192l-3.978971 26.653258 32.687542-1.462858 3.203658-25.146514v-0.043886z m588.251428-55.998171l5.807543 10.152229h31.312457v10.920228h-31.817143l-3.474285 8.916114h30.902857l-2.048 11.790629h-29.856915l-1.236114 8.279771h30.3104l-1.872457 11.702858h-29.717943l-1.550628 8.455314h33.184914l-2.421029 11.658971h-74.517943l-7.168-8.96c3.057371-0.731429 6.122057-1.923657 9.179429-2.062628 7.870171-0.270629 15.776914-0.087771 23.771429-0.087772l3.342628-9.003885-28.298971-1.557943-4.798172-10.057143h33.367772l1.6896-8.272457h-25.278172c-2.742857-3.657143-5.163886-6.765714-9.186743-11.973486h36.293486l0.599772-8.045714h-24.685715l-8.045714-8.828343c-1.557943 2.377143-4.066743 4.571429-4.432457 7.131428-1.514057 9.8304-2.289371 19.799771-3.386514 29.717943l-4.117943 25.461029-1.916343 6.034286h-13.2096l5.251657-44.617143-12.288 4.388571c0.636343-5.258971 1.272686-10.144914 1.828571-15.038171l23.808-25.782857h16.237715c-2.1504 3.657143-3.803429 6.4-5.485715 9.091657h30.076343l-1.236114-9.413486h15.089371z m-111.857371 48.047543H666.331429l-2.377143 13.253486h34.881828l1.462857-13.253486z m255.451428-46.08c4.476343 0.043886 8.9088 1.462857 13.392457 2.282057v17.781029l-2.0992 4.205714a9.918171 9.918171 0 0 0-0.687542 2.1504c-1.967543 10.605714-3.657143 21.262629-5.485715 32.182857l-25.6-0.043886-12.251428 0.043886c-17.693257 0.138971-35.342629 0.4608-53.028572 0.643657l-5.215085-1.601828 8.228571-57.782858h21.898971c20.297143 0 40.5504-0.138971 60.803658 0.138972h0.043885z m-4.256914 11.424914h-63.312457l-2.282057 16.274286-3.159772 19.295086h63.414857l2.048-11.9808h-49.371428l-8.265143-7.358172c3.657143-1.053257 7.314286-2.881829 10.971429-2.925714 15.901257-0.365714 31.817143-0.138971 48.362057-0.138972l0.592457-4.754285 1.009371-8.455315v0.043886zM638.902857 449.645714l-6.721828 11.337143-3.883886 6.4h21.533257l-0.965486 9.596343h-29.476571l-15.776914 13.121829-1.236115-0.731429-4.110628-2.421029 1.645714-5.851428 1.045943-3.84 22.403657-27.611429h15.542857z m86.944914 2.603886l-4.293485 9.098971-8.228572 17.5104h-14.994285l12.704914-26.609371h14.811428z m-57.270857-0.453486l4.425143 26.653257H658.651429l-4.7104-25.965714 14.628571-0.687543z" fill="#0564F5" p-id="1077"></path></svg>