<?xml version="1.0" standalone="no"?><!DOCTYPE svg PUBLIC "-//W3C//DTD SVG 1.1//EN" "http://www.w3.org/Graphics/SVG/1.1/DTD/svg11.dtd"><svg t="1623050508831" class="icon" viewBox="0 0 1024 1024" version="1.1" xmlns="http://www.w3.org/2000/svg" p-id="948" xmlns:xlink="http://www.w3.org/1999/xlink" width="200" height="200"><defs><style type="text/css"></style></defs><path d="M430.262857 515.496229c-22.1184 4.564114-30.383543-20.143543-28.0064-31.736686 0 0 2.655086-25.044114 20.626286-26.477714 14.2848-1.243429 24.795429 13.765486 25.856 22.418285 0.709486 5.632 3.730286 31.144229-18.475886 35.796115z m41.179429-42.934858c-12.214857 0-22.176914-13.604571-22.176915-30.405485 0-16.8448 9.954743-30.4128 22.1696-30.4128 12.244114 0 22.184229 13.568 22.184229 30.4128 0 16.800914-9.947429 30.405486-22.184229 30.405485z m52.772571 1.974858c-16.3328-1.974857-20.055771-16.318171-18.505143-30.602972 1.389714-11.688229 15.864686-29.652114 27.479772-27.004343 11.629714 2.5088 22.133029 17.290971 20.041143 30.061715-2.040686 12.778057-12.639086 29.652114-29.015772 27.552914z m64.914286 21.467428c0 6.144 2.655086 32.263314-21.6064 32.768-24.356571 0.468114-25.351314-15.857371-25.351314-27.618743 0-12.288 2.640457-29.637486 22.125714-29.637485 19.6096 0 24.832 18.395429 24.832 24.488228z m-24.832 53.642972s19.061029 14.372571 6.941257 41.918171c-12.1856 27.589486-56.539429 13.238857-56.539429 13.238857s-16.325486-4.988343-35.401142-0.892343c-18.8928 3.986286-35.313371 2.399086-35.313372 2.399086s-22.206171 0.5632-28.511086-26.506971c-6.341486-27.077486 22.1184-41.888914 24.239543-44.397715 2.165029-2.56 16.969143-12.3392 26.441143-27.618743 9.501257-15.338057 38.005029-27.618743 58.0608 2.538058 14.804114 20.458057 40.082286 39.3216 40.082286 39.3216z m-22.125714 40.886857v-47.425829h-14.306743v35.693714H514.194286s-4.432457-0.672914-5.215086-4.030171v-31.861029l-13.487543 0.197486v35.393829s0.621714 8.872229 13.487543 12.024685h33.199543z m-53.752686 0.160914v-67.159771l-13.012114-0.160915v18.154057h-15.374629s-15.381943 1.148343-20.750629 18.000458c-1.901714 11.205486 1.667657 17.788343 2.260115 19.273142 0.7168 1.367771 5.588114 9.545143 18.066285 11.893029h28.818286z m-34.640457-30.756571c-0.592457 1.828571-2.018743 6.392686-0.768 10.386285 2.4576 9.040457 10.532571 9.406171 10.532571 9.406172h11.615086v-27.399315h-12.397714c-5.646629 1.660343-8.301714 5.763657-8.981943 7.606858z" fill="#2932E1" p-id="949"></path><path d="M371.521829 521.120914v-18.863543h22.235428v18.870858h-22.235428z m0 82.439315V529.3568h22.235428v74.203429h-22.235428zM335.36 529.429943c22.557257 3.0208 25.482971 21.211429 25.482971 21.211428v53.152915h-59.977142c-12.9536-2.296686-17.283657-11.754057-17.846858-13.268115-0.512-1.404343-1.609143-5.368686-0.826514-13.407085 4.725029-16.976457 19.565714-18.322286 19.565714-18.322286h37.668572v-5.493029c0-6.100114-9.888914-8.411429-9.888914-8.411428h-41.6256v-15.594057l47.447771 0.131657z m4.066743 59.691886v-15.915886h-29.681372s-4.030171 1.097143-6.4512 5.7344c-1.082514 2.238171-0.2048 4.754286 0.109715 5.288228 0.263314 0.672914 1.594514 3.313371 5.749028 4.893258h30.281143z m-62.186057-11.629715s2.691657 27.077486-33.199543 27.150629H182.857143v-103.058286h54.125714s35.093943-1.206857 36.629943 26.375314c0 0 1.770057 18.066286-12.434286 25.234286 0 0 16.837486 6.275657 16.062172 24.298057z m-34.472229 8.045715c6.509714-1.002057 8.799086-4.900571 8.799086-4.900572 3.181714-4.1472 1.682286-9.910857 1.682286-9.910857-2.472229-5.968457-9.4208-7.182629-9.4208-7.182629l-1.214172-0.226742H206.116571v22.2208h36.644572z m7.753143-47.791543c2.56-4.286171 1.045943-10.459429 1.045943-10.459429-2.494171-5.924571-10.1888-5.595429-10.1888-5.595428h-35.254857v21.386971h35.335314c6.582857-1.016686 9.069714-5.332114 9.069714-5.332114zM699.977143 589.114514v-6.612114H625.861486v9.925486h70.158628c2.640457 0 3.957029-1.104457 3.957029-3.313372z m-74.605714-33.543314h71.636114c1.316571 0.314514 1.982171-0.468114 1.982171-2.362514v-3.781486H625.371429v6.144z m92.401371 15.125943v24.561371c0.987429 5.983086-2.472229 8.667429-10.386286 8.031086H607.583086v-32.592457h110.189714z m-92.891429-35.913143h-17.298285v-16.544914h110.189714v16.544914h-17.298286v-4.2496H624.874057v4.242286z m83.989943 31.656229H607.085714V538.550857h110.189715v20.319086c0.321829 5.675886-2.472229 8.192-8.404115 7.562971zM607.085714 500.289829h7.899429v-4.725029h17.290971l2.976915 4.725029h55.339885l2.472229-5.193143h17.290971v5.193143H718.262857v13.224228H607.085714v-13.224228z m238.2336 19.8656h-9.706057c-5.178514 0.321829-7.767771-1.418971-7.767771-5.200458l-3.876572-15.601371h13.099886l1.9456 7.570286c0.314514 2.194286 1.294629 3.145143 2.911086 2.830628h3.393828v10.400915z m-61.169371 0v-9.457372h2.435657c2.260114 0.314514 3.554743-0.782629 3.876571-3.306057l1.938286-8.506514h13.114514l-2.911085 14.189714c-0.658286 5.354057-3.730286 7.716571-9.230629 7.080229h-9.223314z m22.330514 5.675885v-30.741943h15.535543v30.741943h22.337829v67.145143c0 6.926629-3.079314 10.408229-9.216 10.408229h-20.399543v-11.8272h10.678857c1.9456 0.314514 2.9184-0.782629 2.9184-3.306057v-4.732343h-27.1872V601.965714h-16.9984V525.824h22.330514z m-64.073143-17.027657l2.413715-13.714286h15.535542l-1.448228 8.045715h18.936686v13.238857h-21.357715l-0.980114 4.732343c-0.650971 2.523429-3.401143 3.474286-8.257829 2.837943h-12.617142V511.634286h4.366628c1.287314 0.321829 2.428343-0.629029 3.401143-2.837943z m4.359315 34.998857h-11.651658v-14.189714h42.730058v14.189714h-14.562743v11.337143h14.562743v13.7216h-14.562743v17.495772c0 2.830629 1.28 4.096 3.876571 3.774171h6.312229V601.965714h-18.453943c-5.829486 0-8.572343-3.320686-8.250514-9.940114v-23.164343h-12.624458v-13.7216h12.624458v-11.337143z m54.381714 27.896686h27.1872V561.298286h-27.1872v10.400914z m0-22.228114h27.1872v-11.344457h-27.1872v11.344457z" fill="#E10602" p-id="950"></path></svg>