<svg id="icon-ky-activity" xmlns="http://www.w3.org/2000/svg" width="20" height="20" viewBox="0 0 20 20">
  <rect width="20" height="20" fill="none"/>
  <path d="M16.16,2.25a1.6,1.6,0,0,1,1.59,1.607V17.808a.805.805,0,0,1-.381.686.787.787,0,0,1-.777.029l-6.229-3.233a.787.787,0,0,0-.727,0L3.408,18.522a.787.787,0,0,1-.777-.029.805.805,0,0,1-.381-.686V3.857A1.6,1.6,0,0,1,3.84,2.25ZM10.141,5.1A.315.315,0,0,0,9.9,5.086a.319.319,0,0,0-.183.162h0L8.847,7.021a.318.318,0,0,1-.238.176h0l-1.939.285a.319.319,0,0,0-.257.219.324.324,0,0,0,.08.329h0L7.9,9.414a.324.324,0,0,1,.091.284h0l-.331,1.953a.323.323,0,0,0,.126.314.315.315,0,0,0,.335.025h0l1.734-.922a.315.315,0,0,1,.3,0h0l1.734.922a.315.315,0,0,0,.335-.025.323.323,0,0,0,.126-.314h0L12.012,9.7a.324.324,0,0,1,.091-.284h0l1.4-1.383a.324.324,0,0,0,.08-.329.319.319,0,0,0-.257-.219h0L11.391,7.2a.318.318,0,0,1-.238-.176h0l-.867-1.777a.32.32,0,0,0-.145-.142Z" transform="translate(0 0)" fill-rule="evenodd"/>
</svg>
