<?xml version="1.0" encoding="UTF-8"?>
<svg width="35px" height="40px" viewBox="0 0 35 40" version="1.1" xmlns="http://www.w3.org/2000/svg" xmlns:xlink="http://www.w3.org/1999/xlink">
    <!-- Generator: Sketch 51.3 (57544) - http://www.bohemiancoding.com/sketch -->
    <title>Group 4</title>
    <desc>Created with Sketch.</desc>
    <defs></defs>
    <g id="Page-1" stroke="none" stroke-width="1" fill="none" fill-rule="evenodd">
        <g id="跟进提醒页面" transform="translate(-61.000000, -265.000000)" fill="#333333">
            <g id="Group" transform="translate(24.000000, 240.000000)">
                <g id="Group-15备份">
                    <g id="Group-7" transform="translate(32.000000, 23.000000)">
                        <g id="新增客户">
                            <path d="M24.5,22.4318182 C19.2532949,22.4318182 15,17.8885259 15,12.2840909 C15,6.67965589 19.2532949,2.13636364 24.5,2.13636364 C29.7467051,2.13636364 34,6.67965589 34,12.2840909 C34,17.8885259 29.7467051,22.4318182 24.5,22.4318182 Z M24.5,19.2272727 C28.0898509,19.2272727 31,16.1187043 31,12.2840909 C31,8.44947748 28.0898509,5.34090909 24.5,5.34090909 C20.9101491,5.34090909 18,8.44947748 18,12.2840909 C18,16.1187043 20.9101491,19.2272727 24.5,19.2272727 Z" id="Oval" fill-rule="nonzero"></path>
                            <path d="M24.0456506,38.4545455 C24.8740777,38.4545455 25.5456506,39.1719074 25.5456506,40.0568182 C25.5456506,40.941729 24.8740777,41.6590909 24.0456506,41.6590909 L6.5,41.6590909 C5.67157288,41.6590909 5,40.941729 5,40.0568182 C5,29.1429184 13.2827321,20.2954545 23.5,20.2954545 C26.8893099,20.2954545 30.1482503,21.2719537 32.9944694,23.0932031 C33.5636792,23.4574312 34.1141384,23.8541253 34.6434686,24.2813759 C35.304419,24.8148641 35.4353524,25.8196801 34.9359167,26.5256953 C34.4364809,27.2317105 33.4958021,27.3715712 32.8348517,26.838083 C32.3911272,26.4799294 31.9297713,26.1474485 31.4527989,25.8422416 C29.0692241,24.3170308 26.3424888,23.5 23.5,23.5 C15.4456163,23.5 8.82610027,30.0622671 8.0716488,38.4545455 L24.0456506,38.4545455 Z" id="Oval-2" fill-rule="nonzero"></path>
                            <rect id="矩形" fill-rule="evenodd" x="29" y="34.1818182" width="10.7234043" height="2.84039256" rx="1.42019628"></rect>
                            <path d="M32.9086074,39.4762397 L32.9086074,31.7035124 C32.9086074,30.9127411 33.5496542,30.2716942 34.3404255,30.2716942 L34.3404255,30.2716942 C35.1311969,30.2716942 35.7722437,30.9127411 35.7722437,31.7035124 L35.7722437,39.4762397 C35.7722437,40.267011 35.1311969,40.9080579 34.3404255,40.9080579 L34.3404255,40.9080579 C33.5496542,40.9080579 32.9086074,40.267011 32.9086074,39.4762397 Z" id="矩形" fill-rule="evenodd"></path>
                        </g>
                    </g>
                </g>
            </g>
        </g>
    </g>
</svg>