<?xml version="1.0" encoding="UTF-8"?>
<svg width="32px" height="38px" viewBox="0 0 32 38" version="1.1" xmlns="http://www.w3.org/2000/svg" xmlns:xlink="http://www.w3.org/1999/xlink">
    <!-- Generator: Sketch 51.3 (57544) - http://www.bohemiancoding.com/sketch -->
    <title>Group 4</title>
    <desc>Created with Sketch.</desc>
    <defs></defs>
    <g id="Page-1" stroke="none" stroke-width="1" fill="none" fill-rule="evenodd">
        <g id="跟进提醒页面" transform="translate(-61.000000, -605.000000)">
            <g id="Group-Copy-2" transform="translate(24.000000, 580.000000)">
                <g id="Group-15备份">
                    <g id="Group-7" transform="translate(32.000000, 23.000000)">
                        <g id="客户授权手机">
                            <g id="Group" transform="translate(7.148936, 3.818182)">
                                <path d="M20.1893915,10.8913698 C20.7012844,10.3479198 21.5083762,10.3735928 21.9920814,10.9487121 C22.4757866,11.5238314 22.452936,12.430611 21.9410431,12.9740611 L12.9515628,22.5177246 C12.456865,23.0429195 11.6822542,23.039059 11.191723,22.508954 L5.7528946,16.6313462 C5.24531307,16.0828153 5.22962351,15.1758436 5.71785098,14.6055682 C6.20607845,14.0352928 7.01334115,14.0176653 7.52092268,14.5661962 L12.0835523,19.4969176 L20.1893915,10.8913698 Z" id="Path-3" fill="#333333" fill-rule="nonzero"></path>
                                <g id="Group-3" stroke="#333333" stroke-width="3">
                                    <path d="M13.7281328,34.3636364 L13.7209491,34.3636364 C12.427839,34.3559358 8.48749191,31.5336898 6.15647236,29.6393583 C1.05600331,25.4926203 -0.00718369599,23.271016 3.38813179e-20,22.1350909 L0.0754288079,6.61090909 C0.0791104521,5.87940642 0.470532087,5.2210107 1.0703707,4.93599465 L1.11701983,4.91683957 L13.2826539,0.165657754 C13.6778021,-0.0116470588 14.1232361,-0.0116470588 14.5182047,0.173165775 L26.6838388,5.07080214 C27.2801753,5.36351872 27.6644133,6.02566845 27.6609112,6.75717112 L27.5854824,22.2815455 C27.571115,24.7494706 24.1767289,27.8567326 21.3320301,30.024385 C18.5304785,32.1574813 14.9242182,34.3636364 13.7281328,34.3636364 Z" id="Fill-1"></path>
                                </g>
                            </g>
                        </g>
                    </g>
                </g>
            </g>
        </g>
    </g>
</svg>