<?xml version="1.0" encoding="UTF-8"?>
<svg width="35px" height="36px" viewBox="0 0 35 36" version="1.1" xmlns="http://www.w3.org/2000/svg" xmlns:xlink="http://www.w3.org/1999/xlink">
    <!-- Generator: Sketch 51.3 (57544) - http://www.bohemiancoding.com/sketch -->
    <title>Group 4</title>
    <desc>Created with Sketch.</desc>
    <defs></defs>
    <g id="Page-1" stroke="none" stroke-width="1" fill="none" fill-rule="evenodd">
        <g id="跟进提醒页面" transform="translate(-60.000000, -946.000000)" fill="#333333">
            <g id="Group-Copy-3" transform="translate(24.000000, 920.000000)">
                <g id="Group-15备份">
                    <g id="Group-7" transform="translate(32.000000, 23.000000)">
                        <g id="客户发起退款">
                            <g id="Group-2" transform="translate(4.468085, 3.818182)">
                                <g id="Group-7" stroke="#333333" stroke-width="1.5">
                                    <path d="M29.0018518,8.6198444 C31.4206526,12.5883089 32.0567849,17.432128 30.7366991,21.9515494 C29.6514679,25.6665944 27.1596192,28.7860454 24.0140241,30.7013323 C17.343422,34.7627475 8.68603027,32.1967622 4.65211753,25.3328974 C1.21724622,19.4885062 2.01397051,11.727098 6.35424714,6.68409879 C11.1690112,1.08992634 19.2166716,0.248698378 25.097352,4.41279626 C25.9918245,5.04606371 26.8214284,3.51105733 25.9344066,2.88289373 C19.0689156,-1.97852932 9.69469067,-0.492701619 4.47435683,6.30040126 C-0.376161865,12.612271 -0.249947716,21.7733037 4.47435683,28.0997498 C9.21919091,34.4540508 17.7866495,36.1263855 24.4691158,32.4520848 C31.5629826,28.5513545 34.7881449,19.2862551 32.1265529,11.3265318 C31.7021948,10.0580073 31.1210509,8.85297817 30.433939,7.72554498 C29.8529975,6.77263772 28.4162942,7.65932461 29.0018518,8.6198444 Z" id="Fill-6"></path>
                                </g>
                                <g id="Group" transform="translate(9.829787, 7.636364)">
                                    <path d="M8.4893617,8.59090909 L8.4893617,10.5 L12.9574468,10.5 C13.6977434,10.5 14.2978723,11.1410468 14.2978723,11.9318182 C14.2978723,12.7225895 13.6977434,13.3636364 12.9574468,13.3636364 L8.4893617,13.3636364 L8.4893617,17.7620039 C8.4893617,18.5527752 7.88923275,19.1938221 7.14893617,19.1938221 C6.40863959,19.1938221 5.80851064,18.5527752 5.80851064,17.7620039 L5.80851064,13.3636364 L1.34042553,13.3636364 C0.600128952,13.3636364 0,12.7225895 0,11.9318182 C0,11.1410468 0.600128952,10.5 1.34042553,10.5 L5.80851064,10.5 L5.80851064,8.59090909 L1.34042553,8.59090909 C0.600128952,8.59090909 0,7.94986226 0,7.15909091 C0,6.36831956 0.600128952,5.72727273 1.34042553,5.72727273 L12.9574468,5.72727273 C13.6977434,5.72727273 14.2978723,6.36831956 14.2978723,7.15909091 C14.2978723,7.94986226 13.6977434,8.59090909 12.9574468,8.59090909 L8.4893617,8.59090909 Z" id="Combined-Shape"></path>
                                    <g id="Group-6" transform="translate(0.893617, 0.000000)">
                                        <path d="M6.31795076,4.56723202 L9.15799931,1.41303856 C9.68712862,0.825380922 10.5924633,0.777934341 11.1801209,1.30706365 C11.7677786,1.83619296 11.8152252,2.74152766 11.2860959,3.32918529 L7.8207241,7.17787053 C7.39253402,7.65342379 6.71798146,7.77521355 6.16478049,7.52396873 C5.70265168,7.62684258 5.19942053,7.49849517 4.83985185,7.1389265 L1.17780465,3.47687929 C0.618644864,2.91771951 0.618644864,2.01114238 1.17780465,1.4519826 C1.73696443,0.892822814 2.64354156,0.892822814 3.20270134,1.4519826 L6.31795076,4.56723202 Z" id="Combined-Shape"></path>
                                    </g>
                                </g>
                            </g>
                        </g>
                    </g>
                </g>
            </g>
        </g>
    </g>
</svg>