<?xml version="1.0" standalone="no"?><!DOCTYPE svg PUBLIC "-//W3C//DTD SVG 1.1//EN" "http://www.w3.org/Graphics/SVG/1.1/DTD/svg11.dtd"><svg class="icon" width="200px" height="200.00px" viewBox="0 0 1024 1024" version="1.1" xmlns="http://www.w3.org/2000/svg"><path d="M544 82.464l165.28 95.424L288 416v184.96L352 640v-181.92l421.696-243.008 94.272 54.464a64 64 0 0 1 32 55.424v374.08a64 64 0 0 1-32 55.424L544 941.536a64 64 0 0 1-64 0L156.032 754.464a64 64 0 0 1-32-55.424v-374.08a64 64 0 0 1 32-55.424L480 82.464a64 64 0 0 1 64 0z" /></svg>