<?xml version="1.0" standalone="no"?>
<!DOCTYPE svg PUBLIC "-//W3C//DTD SVG 1.1//EN" "http://www.w3.org/Graphics/SVG/1.1/DTD/svg11.dtd">
<svg t="1608532449715" class="icon" viewBox="0 0 1024 1024" version="1.1" xmlns="http://www.w3.org/2000/svg" p-id="5127" xmlns:xlink="http://www.w3.org/1999/xlink" width="200" height="200">
    <defs>
       <style type="text/css"></style>
    </defs>
    <path d="M832 85.333333a42.666667 42.666667 0 0 1 42.666667 42.666667v753.621333a42.666667 42.666667 0 0 1-57.237334 40.106667l-109.525333-39.829333a42.666667 42.666667 0 0 0-29.141333 0l-152.192 55.338666a42.666667 42.666667 0 0 1-29.141334 0l-152.192-55.338666a42.666667 42.666667 0 0 0-29.141333 0l-109.525333 39.829333A42.666667 42.666667 0 0 1 149.333333 881.621333V128a42.666667 42.666667 0 0 1 42.666667-42.666667h640z m-126.442667 395.626667H318.442667a4.266667 4.266667 0 0 0-4.266667 4.266667v57.408c0 2.346667 1.92 4.266667 4.266667 4.266666h387.114666a4.266667 4.266667 0 0 0 4.266667-4.266666v-57.386667a4.266667 4.266667 0 0 0-4.266667-4.266667z m-164.864-197.802667H318.442667a4.266667 4.266667 0 0 0-4.266667 4.266667v57.386667c0 2.368 1.92 4.266667 4.266667 4.266666h222.250666a4.266667 4.266667 0 0 0 4.266667-4.266666v-57.386667a4.266667 4.266667 0 0 0-4.266667-4.266667z" p-id="5128"></path>
</svg>