<?xml version="1.0" standalone="no"?><!DOCTYPE svg PUBLIC "-//W3C//DTD SVG 1.1//EN" "http://www.w3.org/Graphics/SVG/1.1/DTD/svg11.dtd"><svg t="1621849979903" class="icon" viewBox="0 0 1024 1024" version="1.1" xmlns="http://www.w3.org/2000/svg" p-id="3750" xmlns:xlink="http://www.w3.org/1999/xlink" width="200" height="200"><defs><style type="text/css"></style></defs><path d="M968.064 626.976H848.32C800.416 544 710.592 437.344 548.96 431.392V301.024h77.824c11.968 0 23.936-11.84 23.936-23.68V87.68c0-11.84-11.968-23.712-23.936-23.712H429.216c-11.968 0-23.936 5.92-23.936 23.68v189.664c0 11.84 11.968 23.68 23.936 23.68h77.824V431.36c-167.648 5.952-257.44 106.688-299.36 195.584H87.936c-11.968 0-23.936 11.84-23.936 23.68v189.632c0 11.84 11.968 23.712 23.936 23.712H279.52c12 0 23.968-11.84 23.968-23.68V650.624c0-11.84-11.968-23.68-23.968-23.68h-35.904c41.92-71.136 119.744-154.08 263.424-160v160h-77.824c-11.968 0-23.936 5.92-23.936 17.76v189.632c0 11.84 11.968 23.68 23.936 23.68H620.8c11.968 0 23.936-11.84 23.936-23.68V644.704c0-11.84-11.968-23.68-23.936-23.68h-77.824v-154.08c137.696 5.92 221.504 82.944 263.424 160h-29.92c-12 0-23.968 11.84-23.968 23.68v189.632c0 11.84 11.968 23.712 23.968 23.712h191.584c11.968 0 23.936-11.84 23.936-23.68V650.624c0-17.76-11.968-23.68-23.936-23.68z" p-id="3751"></path></svg>