<?xml version="1.0" standalone="no"?><!DOCTYPE svg PUBLIC "-//W3C//DTD SVG 1.1//EN" "http://www.w3.org/Graphics/SVG/1.1/DTD/svg11.dtd"><svg t="1621940525546" class="icon" viewBox="0 0 1024 1024" version="1.1" xmlns="http://www.w3.org/2000/svg" p-id="7622" xmlns:xlink="http://www.w3.org/1999/xlink" width="200" height="200"><defs><style type="text/css"></style></defs><path d="M607.712 128.32a32 32 0 0 1 0.288 4.224V896h32V328.96a32 32 0 0 1 39.776-31.04l192 48a32 32 0 0 1 24.224 31.04V896h48a16 16 0 1 1 0 32h-864a16 16 0 1 1 0-32H128V188.032a32 32 0 0 1 27.776-31.744l416-55.456a32 32 0 0 1 35.936 27.488zM809.6 640h-83.2a22.4 22.4 0 0 0 0 44.8h83.2a22.4 22.4 0 0 0 0-44.8zM480 512H288a32 32 0 0 0 0 64h192a32 32 0 0 0 0-64z m329.6 0h-83.2a22.4 22.4 0 0 0 0 44.8h83.2a22.4 22.4 0 0 0 0-44.8zM480 352H288a32 32 0 0 0 0 64h192a32 32 0 0 0 0-64z" p-id="7623"></path></svg>