<?xml version="1.0" standalone="no"?><!DOCTYPE svg PUBLIC "-//W3C//DTD SVG 1.1//EN" "http://www.w3.org/Graphics/SVG/1.1/DTD/svg11.dtd"><svg class="icon" width="200px" height="200.00px" viewBox="0 0 1024 1024" version="1.1" xmlns="http://www.w3.org/2000/svg"><path d="M640 192a32 32 0 0 1 32 32v128h112a176 176 0 0 1 176 176V736a32 32 0 0 1-32 32h-65.152a112 112 0 0 1-221.696 0h-258.304a112 112 0 0 1-221.696 0H96a32 32 0 0 1-32-32V224a32 32 0 0 1 32-32h544z m-289.6 576h-156.8a80 80 0 0 0 156.8 0z m480 0h-156.8a80 80 0 0 0 156.8 0zM768 416h-64v160h192v-32a128 128 0 0 0-128-128z"  /></svg>