<svg xmlns="http://www.w3.org/2000/svg" width="20" height="20" viewBox="0 0 20 20">
  <rect width="20" height="20" fill="none"/>
  <g transform="translate(1.875 1.875)">
    <path d="M6.956,16.065.212,13.721h0A.319.319,0,0,1,0,13.411V4.391a.4.4,0,0,1,.517-.383L7.2,6.049a.4.4,0,0,1,.283.383v9.256a.4.4,0,0,1-.531.378Zm2.339,0,6.744-2.344h0a.319.319,0,0,0,.212-.31V4.391a.4.4,0,0,0-.517-.383L9.046,6.049a.4.4,0,0,0-.283.383v9.256a.4.4,0,0,0,.531.378ZM7.925,4.825l6.47-1.892a.4.4,0,0,0,.014-.764L7.91.012h0a.463.463,0,0,0-.212,0L1.215,2.169a.4.4,0,0,0,.014.763L7.7,4.825A.4.4,0,0,0,7.925,4.825Z" />
  </g>
</svg>
