<?xml version="1.0" encoding="UTF-8"?>
<svg width="24px" height="24px" viewBox="0 0 24 24" version="1.1" xmlns="http://www.w3.org/2000/svg" xmlns:xlink="http://www.w3.org/1999/xlink">
    <title>data_press_icon</title>
    <g id="页面-1" stroke="none" stroke-width="1" fill="none" fill-rule="evenodd">
        <g id="人群管理" transform="translate(-410.000000, -16.000000)">
            <g id="icon/侧边栏/工作台/off备份-2" transform="translate(375.000000, 16.000000)">
                <g id="data_press_icon" transform="translate(35.000000, 0.000000)">
                    <rect id="矩形" x="0" y="0" width="24" height="24"></rect>
                    <g id="形状结合" fill="#FA7516">
                        <path d="M21.9,20 C22.1761424,20 22.4,20.2238576 22.4,20.5 L22.4,21.1 C22.4,21.3761424 22.1761424,21.6 21.9,21.6 L2.1,21.6 C1.82385763,21.6 1.6,21.3761424 1.6,21.1 L1.6,20.5 C1.6,20.2238576 1.82385763,20 2.1,20 L21.9,20 Z M7.25,8.8 C7.66421356,8.8 8,9.13578644 8,9.55 L8,18.45 C8,18.8642136 7.66421356,19.2 7.25,19.2 L3.95,19.2 C3.53578644,19.2 3.2,18.8642136 3.2,18.45 L3.2,9.55 C3.2,9.13578644 3.53578644,8.8 3.95,8.8 L7.25,8.8 Z M20.05,11.2 C20.4642136,11.2 20.8,11.5357864 20.8,11.95 L20.8,18.45 C20.8,18.8642136 20.4642136,19.2 20.05,19.2 L16.75,19.2 C16.3357864,19.2 16,18.8642136 16,18.45 L16,11.95 C16,11.5357864 16.3357864,11.2 16.75,11.2 L20.05,11.2 Z M13.65,4 C14.0642136,4 14.4,4.33578644 14.4,4.75 L14.4,18.45 C14.4,18.8642136 14.0642136,19.2 13.65,19.2 L10.35,19.2 C9.93578644,19.2 9.6,18.8642136 9.6,18.45 L9.6,4.75 C9.6,4.33578644 9.93578644,4 10.35,4 L13.65,4 Z"></path>
                    </g>
                </g>
            </g>
        </g>
    </g>
</svg>