<svg xmlns="http://www.w3.org/2000/svg" width="24" height="24" viewBox="0 0 24 24">
  <rect width="24" height="24" fill="none"/>
  <g transform="translate(2.25 3)">
    <path d="M13.015,11.1a8.165,8.165,0,0,0-2.06-1.1,5.436,5.436,0,0,0,2.5-4.606A5.3,5.3,0,0,0,8.263,0,5.3,5.3,0,0,0,3.072,5.395a5.537,5.537,0,0,0,.788,2.853A5.323,5.323,0,0,0,5.59,10.014a8.129,8.129,0,0,0-2.1,1.115A8.589,8.589,0,0,0,1.648,12.99,8.7,8.7,0,0,0,0,18.119a.622.622,0,0,0,.607.631l15.286-.025a.621.621,0,0,0,.607-.63,8.686,8.686,0,0,0-1.646-5.132A8.307,8.307,0,0,0,13.015,11.1Z" />
    <path d="M19.057,12.118a6.475,6.475,0,0,0-2.816-2.612A4.54,4.54,0,0,0,17.46,7.933,5.558,5.558,0,0,0,18,5.528C18,2.892,16.23.75,14.06.75A.61.61,0,0,0,13.5,1.4a1.722,1.722,0,0,0,.554,1.036c1.1,1.04,1.812,3.943.52,5.637-.578.758-1.1.871-1.074,1.592v0c0,.355.282.5.559.646,2.094,1.149,3.3,3.343,3.776,6.4.113.732,1.176.512,1.854.485a.615.615,0,0,0,.559-.646,8.649,8.649,0,0,0-1.193-4.435Z" />
  </g>
</svg>
