<?xml version="1.0" standalone="no"?>
  <!DOCTYPE svg PUBLIC "-//W3C//DTD SVG 1.1//EN" "http://www.w3.org/Graphics/SVG/1.1/DTD/svg11.dtd">
    <svg t="1608532044815" class="icon" viewBox="0 0 1024 1024" version="1.1" xmlns="http://www.w3.org/2000/svg" p-id="4997" xmlns:xlink="http://www.w3.org/1999/xlink" width="200" height="200">
      <defs>
        <style type="text/css"></style>
      </defs>
      <path d="M843.626667 85.333333A73.706667 73.706667 0 0 1 917.333333 159.04v221.077333h-73.706666V269.568a73.706667 73.706667 0 0 0-68.181334-73.493333l-5.504-0.213334h-184.234666a73.706667 73.706667 0 0 0-73.514667 68.224L512 269.568l-0.213333-5.482667a73.706667 73.706667 0 0 0-67.712-67.989333l-5.76-0.213333H254.037333a73.706667 73.706667 0 0 0-73.493333 68.202666l-0.213333 5.482667v110.549333H106.666667V159.04A73.706667 73.706667 0 0 1 180.373333 85.333333h663.253334zM299.541333 742.186667l56.426667 32.576a4.266667 4.266667 0 0 1 1.557333 5.845333l-69.418666 120.256a4.266667 4.266667 0 0 1-5.824 1.557333l-56.448-32.576a4.266667 4.266667 0 0 1-1.557334-5.845333l69.44-120.256a4.266667 4.266667 0 0 1 5.824-1.557333zM704.874667 774.762667l56.426666-32.576a4.266667 4.266667 0 0 1 5.824 1.557333l69.44 120.256a4.266667 4.266667 0 0 1-1.557333 5.845333L778.581333 902.4a4.266667 4.266667 0 0 1-5.845333-1.557333l-69.418667-120.256a4.266667 4.266667 0 0 1 1.557334-5.845334z" p-id="4998"></path>
      <path d="M238.549333 232.746667h215.253334a21.333333 21.333333 0 0 1 21.333333 21.333333v126.037333H217.237333V254.08a21.333333 21.333333 0 0 1 21.333334-21.333333zM570.176 232.746667h215.274667a21.333333 21.333333 0 0 1 21.333333 21.333333v126.037333h-257.92V254.08a21.333333 21.333333 0 0 1 21.333333-21.333333z" p-id="4999"></path>
      <path d="M106.666667 416.96m42.666666 0l725.333334 0q42.666667 0 42.666666 42.666667l0 320q0 42.666667-42.666666 42.666666l-725.333334 0q-42.666667 0-42.666666-42.666666l0-320q0-42.666667 42.666666-42.666667Z" p-id="5000"></path>
    </svg>