<?xml version="1.0" standalone="no"?>
<!DOCTYPE svg PUBLIC "-//W3C//DTD SVG 1.1//EN" "http://www.w3.org/Graphics/SVG/1.1/DTD/svg11.dtd">
<svg class="icon" width="200px" height="200.00px" viewBox="0 0 1024 1024" version="1.1" xmlns="http://www.w3.org/2000/svg">
  <path d="M928 96a32 32 0 0 1 32 32v608a32 32 0 0 1-32 32H96a32 32 0 0 1-32-32V128a32 32 0 0 1 32-32h832z m-160 192a64 64 0 0 0-62.688 77.024l-142.88 116.512-146.56-151.712-158.72 127.424a64 64 0 1 0 30.784 57.44l122.464-98.4 146.88 152.032 190.72-155.52A64 64 0 1 0 768 288z" />
  <path d="M256 832m12.8 0l486.4 0q12.8 0 12.8 12.8l0 70.4q0 12.8-12.8 12.8l-486.4 0q-12.8 0-12.8-12.8l0-70.4q0-12.8 12.8-12.8Z" />
</svg>