<?xml version="1.0" standalone="no"?><!DOCTYPE svg PUBLIC "-//W3C//DTD SVG 1.1//EN" "http://www.w3.org/Graphics/SVG/1.1/DTD/svg11.dtd"><svg class="icon" width="200px" height="200.00px" viewBox="0 0 1024 1024" version="1.1" xmlns="http://www.w3.org/2000/svg"><path d="M835.744 128a32 32 0 0 1 31.744 28.032l88 704A32 32 0 0 1 923.744 896H100.256a32 32 0 0 1-31.744-35.968l88-704A32 32 0 0 1 188.256 128h647.488zM352 256H288v192l0.128 7.68A224 224 0 0 0 736 448V256h-64v192l-0.16 6.944A160 160 0 0 1 352 448V256z"  /></svg>