<?xml version="1.0" standalone="no"?><!DOCTYPE svg PUBLIC "-//W3C//DTD SVG 1.1//EN" "http://www.w3.org/Graphics/SVG/1.1/DTD/svg11.dtd"><svg class="icon" width="200px" height="200.00px" viewBox="0 0 1024 1024" version="1.1" xmlns="http://www.w3.org/2000/svg"><path d="M275.2 512c7.04 0 12.8 5.76 12.8 12.8v390.4a12.8 12.8 0 0 1-12.8 12.8H108.8a12.8 12.8 0 0 1-12.8-12.8V524.8c0-7.04 5.76-12.8 12.8-12.8h166.4z m320-192c7.04 0 12.8 5.76 12.8 12.8v582.4a12.8 12.8 0 0 1-12.8 12.8h-166.4a12.8 12.8 0 0 1-12.8-12.8V332.8c0-7.04 5.76-12.8 12.8-12.8h166.4z m320-224c7.04 0 12.8 5.76 12.8 12.8v806.4a12.8 12.8 0 0 1-12.8 12.8h-166.4a12.8 12.8 0 0 1-12.8-12.8V108.8c0-7.04 5.76-12.8 12.8-12.8h166.4z"  /></svg>