<?xml version="1.0" encoding="UTF-8"?>
<svg width="48px" height="48px" viewBox="0 0 48 48" version="1.1" xmlns="http://www.w3.org/2000/svg" xmlns:xlink="http://www.w3.org/1999/xlink">
    <!-- Generator: Sketch 63 (92445) - https://sketch.com -->
    <title>icon/fill/编辑备份</title>
    <desc>Created with Sketch.</desc>
    <g id="icon/fill/编辑备份" stroke="none" stroke-width="1" fill="none" fill-rule="evenodd">
        <g id="icon/fill/编辑">
            <rect id="矩形" x="0" y="0" width="48" height="48"></rect>
            <rect id="矩形备份" x="4.8" y="4.8" width="38.4" height="38.4"></rect>
            <g id="编组-20" transform="translate(4.800000, 4.900000)" fill="#1890FF">
                <path d="M38,35.292 C38.2209139,35.292 38.4,35.4710861 38.4,35.692 L38.4,38.092 C38.4,38.3129139 38.2209139,38.492 38,38.492 L0.4,38.492 C0.1790861,38.492 -2.11026343e-13,38.3129139 -2.13162821e-13,38.092 L-2.13162821e-13,35.692 C-2.13189875e-13,35.4710861 0.1790861,35.292 0.4,35.292 L38,35.292 Z M31.4510451,1.12996209 C32.0902774,0.510425162 33.105714,0.509648838 33.7458929,1.12820762 L33.7458929,1.12820762 L37.7493938,4.99615737 C38.4045543,5.62953703 38.4224958,6.67410518 37.7720435,7.34700164 L37.7720435,7.34700164 L13.1032854,31.2560845 L6.75964774,33.2886063 C5.89183397,33.5666566 4.9629276,33.0885588 4.68487729,32.2207451 C4.57686494,31.8836312 4.58013485,31.5207171 4.69420408,31.1856042 L4.69420408,31.1856042 L6.78867634,25.0324587 Z" id="形状结合"></path>
            </g>
        </g>
    </g>
</svg>