<?xml version="1.0" encoding="UTF-8"?>
<svg width="48px" height="48px" viewBox="0 0 48 48" version="1.1" xmlns="http://www.w3.org/2000/svg" xmlns:xlink="http://www.w3.org/1999/xlink">
    <!-- Generator: Sketch 63 (92445) - https://sketch.com -->
    <title>icon/fill/删除备份</title>
    <desc>Created with Sketch.</desc>
    <g id="icon/fill/删除备份" stroke="none" stroke-width="1" fill="none" fill-rule="evenodd">
        <g id="icon/fill/删除">
            <rect id="矩形" x="0" y="0" width="48" height="48"></rect>
            <path d="M28.3,3.2 C28.5761424,3.2 28.8,3.42385763 28.8,3.7 L28.799,6.399 L43.8,6.4 C44.3522847,6.4 44.8,6.84771525 44.8,7.4 L44.8,8.6 C44.8,9.15228475 44.3522847,9.6 43.8,9.6 L41.433,9.599 L39.7591288,41.6833649 C39.7147757,42.5334665 39.0125599,43.2 38.161302,43.2 L9.83869795,43.2 C8.98744006,43.2 8.28522434,42.5334665 8.24087121,41.6833649 L6.566,9.599 L4.2,9.6 C3.64771525,9.6 3.2,9.15228475 3.2,8.6 L3.2,7.4 C3.2,6.84771525 3.64771525,6.4 4.2,6.4 L19.199,6.399 L19.2,3.7 C19.2,3.42385763 19.4238576,3.2 19.7,3.2 L28.3,3.2 Z M19.8,17.6 L18.6,17.6 C18.0477153,17.6 17.6,18.0477153 17.6,18.6 L17.6,18.6 L17.6,31 C17.6,31.5522847 18.0477153,32 18.6,32 L18.6,32 L19.8,32 C20.3522847,32 20.8,31.5522847 20.8,31 L20.8,31 L20.8,18.6 C20.8,18.0477153 20.3522847,17.6 19.8,17.6 L19.8,17.6 Z M29.4,17.6 L28.2,17.6 C27.6477153,17.6 27.2,18.0477153 27.2,18.6 L27.2,18.6 L27.2,31 C27.2,31.5522847 27.6477153,32 28.2,32 L28.2,32 L29.4,32 C29.9522847,32 30.4,31.5522847 30.4,31 L30.4,31 L30.4,18.6 C30.4,18.0477153 29.9522847,17.6 29.4,17.6 L29.4,17.6 Z" id="形状结合" fill="#256EFF"></path>
        </g>
    </g>
</svg>