<?xml version="1.0" encoding="UTF-8"?>
<svg width="48px" height="48px" viewBox="0 0 48 48" version="1.1" xmlns="http://www.w3.org/2000/svg" xmlns:xlink="http://www.w3.org/1999/xlink">
    <!-- Generator: Sketch 63 (92445) - https://sketch.com -->
    <title>icon/fill/标签备份</title>
    <desc>Created with Sketch.</desc>
    <g id="icon/fill/标签备份" stroke="none" stroke-width="1" fill="none" fill-rule="evenodd">
        <g id="通用/icon图标/line/标签" transform="translate(4.000000, 4.000000)">
            <rect id="矩形备份-4" x="0" y="0" width="40" height="40"></rect>
            <path d="M32.5,3.90798505e-14 C33.6045695,4.08390539e-14 34.5,0.8954305 34.5,2 L34.5,33.4670772 C34.5,34.2909697 33.9947665,35.0305579 33.2272778,35.3301572 L20.9772778,40.1121058 C20.5096106,40.2946659 19.9903894,40.2946659 19.5227222,40.1121058 L7.27272222,35.3301572 C6.50523345,35.0305579 6,34.2909697 6,33.4670772 L6,2 C6,0.8954305 6.8954305,3.75063998e-14 8,3.90798505e-14 L32.5,3.90798505e-14 Z M20.25,26.9166667 C18.5010983,26.9166667 17.0833333,28.3344316 17.0833333,30.0833333 C17.0833333,31.832235 18.5010983,33.25 20.25,33.25 C21.9989017,33.25 23.4166667,31.832235 23.4166667,30.0833333 C23.4166667,28.3344316 21.9989017,26.9166667 20.25,26.9166667 Z" id="形状结合" fill="#256EFF"></path>
        </g>
    </g>
</svg>