<?xml version="1.0" encoding="UTF-8"?>
<svg width="46px" height="46px" viewBox="0 0 46 46" version="1.1" xmlns="http://www.w3.org/2000/svg" xmlns:xlink="http://www.w3.org/1999/xlink">
    <!-- Generator: Sketch 60 (88103) - https://sketch.com -->
    <title>点赞1 copy 2备份 2</title>
    <desc>Created with Sketch.</desc>
    <g id="点赞1-copy-2备份-2" stroke="none" stroke-width="1" fill="none" fill-rule="evenodd">
        <path d="M6.28509846,23 L7.73964391,39 L10,39 L10,23 L6.28509846,23 Z M6.28509846,20 L10,20 C11.6568542,20 13,21.3431458 13,23 L13,39 C13,40.6568542 11.6568542,42 10,42 L7.73964391,42 C6.1880343,42 4.89244043,40.8168447 4.75196429,39.2716072 L3.29741884,23.2716072 C3.1474143,21.6215573 4.36344133,20.1623249 6.01349122,20.0123204 C6.10379425,20.004111 6.19442304,20 6.28509846,20 Z M19,38.163067 C19,38.7153518 19.4477153,39.163067 20,39.163067 L36.7207844,39.163067 C37.1974654,39.163067 37.6078802,38.8266072 37.7013651,38.359183 L41.1013651,21.359183 C41.1142797,21.2946098 41.1207844,21.2289189 41.1207844,21.1630669 C41.1207844,20.6107821 40.6730692,20.1630669 40.1207844,20.1630669 L30.1982127,20.1630669 C29.9582463,20.1630669 29.7187667,20.141473 29.482671,20.0985465 C27.3091656,19.7033637 25.8675503,17.6210305 26.2627331,15.4475251 L27.3498203,9.4685454 C27.5764617,8.22201778 27.1485043,6.95120992 26.2256481,6.09621259 C23.2850577,13.1342545 20.9469607,17.7843644 19,20.278432 L19,38.163067 Z M16,19.1630669 C17.7475358,17.4155311 20.2585419,12.6141139 23.5330184,4.75881544 C24.1402813,3.30213992 25.8134144,2.6135074 27.2701072,3.22072891 C27.534176,3.33080584 27.7802172,3.47991452 28,3.66306689 C29.8538915,5.2079765 30.733121,7.63090131 30.30143,10.0052017 L29.2143428,15.9841814 C29.1155471,16.5275578 29.4759509,17.0481411 30.0193273,17.1469368 C30.0783512,17.1576684 30.1382211,17.1630669 30.1982127,17.1630669 L40.1207844,17.1630669 C42.3299234,17.1630669 44.1207844,18.9539279 44.1207844,21.1630669 C44.1207844,21.4264748 44.0947657,21.6892387 44.0431071,21.9475314 L40.6431071,38.9475314 C40.2691677,40.8172282 38.6275085,42.163067 36.7207844,42.163067 L20,42.163067 C17.790861,42.163067 16,40.372206 16,38.163067 L16,19.1630669 Z" id="形状" fill="#FFFFFF"></path>
    </g>
</svg>