<?xml version="1.0" standalone="no"?><!DOCTYPE svg PUBLIC "-//W3C//DTD SVG 1.1//EN" "http://www.w3.org/Graphics/SVG/1.1/DTD/svg11.dtd"><svg class="icon" width="200px" height="200.00px" viewBox="0 0 1024 1024" version="1.1" xmlns="http://www.w3.org/2000/svg"><path d="M544 82.464l323.968 187.072a64 64 0 0 1 32 55.424v374.08a64 64 0 0 1-32 55.424L544 941.536a64 64 0 0 1-64 0L156.032 754.464a64 64 0 0 1-32-55.424v-374.08a64 64 0 0 1 32-55.424L480 82.464a64 64 0 0 1 64 0zM512 416a96 96 0 1 0 0 192 96 96 0 0 0 0-192z" /></svg>