<?xml version="1.0" standalone="no"?><!DOCTYPE svg PUBLIC "-//W3C//DTD SVG 1.1//EN" "http://www.w3.org/Graphics/SVG/1.1/DTD/svg11.dtd"><svg class="icon" width="200px" height="200.00px" viewBox="0 0 1024 1024" version="1.1" xmlns="http://www.w3.org/2000/svg"><path d="M832 224a32 32 0 0 1 32 32v640a32 32 0 0 1-32 32h-72.576a64 64 0 0 0-110.848 0h-81.152a64 64 0 0 0-110.848 0h-81.152a64 64 0 0 0-110.848 0H192a32 32 0 0 1-32-32V256a32 32 0 0 1 32-32h640z m-160 352H352v64h320v-64z m0-192H352v64h320v-64z m256-288a32 32 0 0 1 32 32v192a32 32 0 0 1-32 32h-32V224a32 32 0 0 0-28.256-31.776L864 192H160a32 32 0 0 0-31.776 28.256L128 224v128H96a32 32 0 0 1-32-32V128a32 32 0 0 1 32-32h832z" /></svg>