<?xml version="1.0" standalone="no"?><!DOCTYPE svg PUBLIC "-//W3C//DTD SVG 1.1//EN" "http://www.w3.org/Graphics/SVG/1.1/DTD/svg11.dtd"><svg class="icon" width="200px" height="200.00px" viewBox="0 0 1024 1024" version="1.1" xmlns="http://www.w3.org/2000/svg"><path d="M736 605.696l1.856 1.92A156.544 156.544 0 0 0 848 652.8l7.072-0.16c14.208-0.64 27.936-3.168 40.96-7.36V896A32 32 0 0 1 864 928l-224-0.032V800a32 32 0 0 0-28.256-31.776L608 768h-192a32 32 0 0 0-32 32v127.968L160 928a32 32 0 0 1-32-32l-0.032-250.72c15.168 4.896 31.328 7.52 48.032 7.52l7.072-0.16a156.544 156.544 0 0 0 103.072-45.024l1.856-1.92 1.856 1.92A156.544 156.544 0 0 0 400 652.8l7.072-0.16a156.544 156.544 0 0 0 103.072-45.024l1.856-1.92 1.856 1.92A156.544 156.544 0 0 0 624 652.8l7.072-0.16a156.544 156.544 0 0 0 103.072-45.024l1.856-1.92zM898.368 96a32 32 0 0 1 31.904 29.536l26.496 343.616a112.256 112.256 0 0 1 2.816 36.64L960 512h-1.152a112.096 112.096 0 0 1-56.736 82.08l-6.112 3.136a111.36 111.36 0 0 1-6.912 3.008l-6.464 2.304-2.72 0.864-5.024 1.376-4.352 0.96-4.544 0.832-7.296 0.96-3.584 0.256a112 112 0 0 1-117.984-95.744h-2.24a112 112 0 0 1-221.76 0h-2.24a112 112 0 0 1-221.76 0h-2.24a112 112 0 0 1-118.816 95.68l-7.264-0.736-6.208-1.024-6.112-1.376-4.288-1.152-4.48-1.44-6.912-2.624L128 597.216A112.128 112.128 0 0 1 65.152 512L64 512l0.448-5.984a113.44 113.44 0 0 1 2.816-37.024L93.76 125.536A32 32 0 0 1 125.632 96h772.736z" /></svg>