<?xml version="1.0" standalone="no"?><!DOCTYPE svg PUBLIC "-//W3C//DTD SVG 1.1//EN" "http://www.w3.org/Graphics/SVG/1.1/DTD/svg11.dtd"><svg class="icon" width="200px" height="200.00px" viewBox="0 0 1024 1024" version="1.1" xmlns="http://www.w3.org/2000/svg"><path d="M569.152 541.728a32 32 0 0 1 32 32V896a32 32 0 0 1-32 32H128a32 32 0 0 1-32-32V573.728a32 32 0 0 1 32-32h441.152z m326.848 0a32 32 0 0 1 32 32V896a32 32 0 0 1-32 32h-203.424a32 32 0 0 1-32-32V573.728a32 32 0 0 1 32-32H896zM896 96a32 32 0 0 1 32 32v322.272a32 32 0 0 1-32 32H128a32 32 0 0 1-32-32V128a32 32 0 0 1 32-32h768z" /></svg>