<?xml version="1.0" standalone="no"?><!DOCTYPE svg PUBLIC "-//W3C//DTD SVG 1.1//EN" "http://www.w3.org/Graphics/SVG/1.1/DTD/svg11.dtd"><svg class="icon" width="200px" height="200.00px" viewBox="0 0 1024 1024" version="1.1" xmlns="http://www.w3.org/2000/svg"><path d="M307.104 418.944a259.072 259.072 0 0 0 130.816 224.704 263.552 263.552 0 0 0 261.664 0 259.072 259.072 0 0 0 130.816-224.704 259.072 259.072 0 0 0-130.816-224.704 263.552 263.552 0 0 0-261.664 0 259.072 259.072 0 0 0-130.816 224.704z m-87.648 67.744C130.24 508.896 64.192 588.928 64 684.16c-0.192 110.816 92.8 203.648 204.544 204.32a205.632 205.632 0 0 0 196-138.336 39.2 39.2 0 0 0-23.36-49.44 284.192 284.192 0 0 1-173.824-186.912c-5.76-20.48-27.2-32.352-47.904-27.136zM127.936 210.56c0 29.504 15.904 56.768 41.664 71.52a83.904 83.904 0 0 0 83.264 0 82.464 82.464 0 0 0 41.664-71.52A82.944 82.944 0 0 0 211.2 128a82.944 82.944 0 0 0-83.296 82.56z m689.376 463.872c-80.512-0.672-145.824 64.224-145.248 144.032 0.704 77.76 64.256 140.896 142.688 141.504 80.512 0.672 145.824-64.224 145.248-144.032-0.704-77.76-64.256-140.8-142.688-141.504z" /></svg>