<?xml version="1.0" standalone="no"?><!DOCTYPE svg PUBLIC "-//W3C//DTD SVG 1.1//EN" "http://www.w3.org/Graphics/SVG/1.1/DTD/svg11.dtd"><svg class="icon" width="200px" height="200.00px" viewBox="0 0 1024 1024" version="1.1" xmlns="http://www.w3.org/2000/svg"><path d="M678.72 438.272a123.968 123.968 0 1 0 0-223.392 124 124 0 0 1 0 223.36z m53.856 55.36c-18.656 0-36.704 2.464-53.888 7.04a207.584 207.584 0 0 1 153.664 200.448c0 56.8-22.848 77.824-59.84 84.576 95.488 4.288 167.552 16.352 167.552-84.576a207.52 207.52 0 0 0-207.488-207.488zM283.104 450.56c19.296 0 37.568-4.416 53.856-12.288a124 124 0 0 1 0-223.392 123.968 123.968 0 1 0-53.856 235.68z m53.856 50.144a207.52 207.52 0 0 0-261.376 200.416c0 100.928 72.064 88.864 167.552 84.576-36.992-6.752-59.84-27.776-59.84-84.576a207.584 207.584 0 0 1 153.664-200.416zM357.12 284.192a155.072 155.072 0 1 0 310.144 0 155.072 155.072 0 0 0-310.112 0zM512.192 493.12a259.52 259.52 0 0 0-259.52 259.552c0 143.36 116.192 104.48 259.52 104.48 143.36 0 259.52 38.848 259.52-104.48a259.52 259.52 0 0 0-259.52-259.52z" /></svg>