<?xml version="1.0" standalone="no"?><!DOCTYPE svg PUBLIC "-//W3C//DTD SVG 1.1//EN" "http://www.w3.org/Graphics/SVG/1.1/DTD/svg11.dtd"><svg class="icon" width="200px" height="200.00px" viewBox="0 0 1024 1024" version="1.1" xmlns="http://www.w3.org/2000/svg"><path d="M830.4 96H193.6A97.6 97.6 0 0 0 96 193.6v636.8A97.6 97.6 0 0 0 193.6 928h636.8A97.6 97.6 0 0 0 928 830.4V193.6A97.6 97.6 0 0 0 830.4 96zM256.96 764.64a50.144 50.144 0 1 1 0-100.32 50.144 50.144 0 0 1 0 100.32z m0-203.328a50.144 50.144 0 1 1 50.176-50.144 50.144 50.144 0 0 1-50.144 50.816v-0.672z m0-203.328a50.144 50.144 0 1 1 50.176-48.8 50.144 50.144 0 0 1-50.144 50.144v-1.344z m531.424 379.904h-395.52a28.8 28.8 0 1 1 0-57.28h395.52a28.8 28.8 0 1 1 0 57.28z m0-203.36h-395.52a28.8 28.8 0 0 1 0-57.28h395.52a28.8 28.8 0 1 1 0 57.28z m0-203.328h-395.52a28.8 28.8 0 1 1 0-57.28h395.52a28.8 28.8 0 1 1 0 57.28z" /></svg>