<svg xmlns="http://www.w3.org/2000/svg" viewBox="0 0 297.77 77.19"><defs><style>.cls-1{fill:#fff;}</style></defs><title>资源 2</title><g id="图层_2" data-name="图层 2"><g id="图层_1-2" data-name="图层 1"><path class="cls-1" d="M93.71,37.77H89.34l-7-25.95h4.83l4.44,19.31h.27L97,11.82h4.12l5.18,19.31h.25L111,11.82h4.8l-7,26h-4.35L99.23,19.39H99Z"/><path class="cls-1" d="M134.93,31.13h-9.55l-2.23,6.64h-4.69l9.2-25.95h5.22l9.22,26h-5Zm-8.47-3.67h7.39l-3.53-10.69H130Z"/><path class="cls-1" d="M148.41,37.77V11.82h4.64V23.76h.31l10.23-11.94h5.32l-9.8,11.31,10.57,14.64H164l-8.2-11.46-2.77,3.19v8.27Z"/><path class="cls-1" d="M192.5,37.77H175.71V11.82H192.5v4H180.34v6.89h11.49v3.77H180.34v7.27H192.5Z"/><path class="cls-1" d="M209.83,11.82c7.71,0,12.21,4.71,12.21,12.86,0,8.32-4.44,13.09-12.21,13.09H200.1V11.82Zm-5.09,21.94h4.48c5.16,0,8.09-3.22,8.09-9s-3-8.92-8.09-8.92h-4.48Z"/><path class="cls-1" d="M242.52,31.13H233l-2.23,6.64h-4.69l9.2-25.95h5.22l9.22,26h-5Zm-8.47-3.67h7.39l-3.53-10.69h-.3Z"/><path class="cls-1" d="M259.58,37.77V15.83h-8v-4h20.62v4h-8V37.77Z"/><path class="cls-1" d="M290.59,31.13h-9.54l-2.23,6.64h-4.7l9.21-25.95h5.21l9.23,26h-5Zm-8.47-3.67h7.39L286,16.77h-.3Z"/><path class="cls-1" d="M88.7,51.51a54.58,54.58,0,0,1-.43,6.58l0,.41h1a.94.94,0,0,0,1-.92c.1-.83.17-1.73.2-2.74s.05-2.16.05-3.8v-.37h-.86A.8.8,0,0,0,88.7,51.51Z"/><path class="cls-1" d="M106.94,63.7h-3.79v-3h4.36v-.58a1,1,0,0,0-1.06-1h-3.3V56.21h4.36v-.57a1,1,0,0,0-1.06-1h-3.3v-2.9h4.58v-.57a1,1,0,0,0-1.08-1h-3.5V48.63a1.18,1.18,0,0,0-1.21-1.18h-.79v2.67H98.38a17.85,17.85,0,0,0,.73-2.49l.1-.45h-1a1.11,1.11,0,0,0-1.14.9,12,12,0,0,1-2.19,4.63v-.14A1.13,1.13,0,0,0,94,51.45a8.58,8.58,0,0,0-1.19-.18v-3.1A1.1,1.1,0,0,0,91.57,47H90.8V65.28h2V53a6.13,6.13,0,0,1,1.39.46l-.2.19a1.46,1.46,0,0,0-.48,1.08v1.18l.58-.41a17.15,17.15,0,0,0,1.46-1.14V65.28H108v-.55A1,1,0,0,0,106.94,63.7Zm-5.79,0H97.51v-3h3.64Zm0-4.58H97.51V56.21h3.64Zm0-4.51H97.51V52l.15-.26h3.49Z"/><path class="cls-1" d="M165.82,59.63h-9.64a2.29,2.29,0,0,0-2.55,2.57v3.07h14.78V62.2A2.33,2.33,0,0,0,165.82,59.63Zm.57,4H155.62V62.09c0-.61.26-.84.86-.84h9.06c.61,0,.85.23.85.83Z"/><path class="cls-1" d="M170,58.4A40.28,40.28,0,0,1,163.31,57a18.49,18.49,0,0,0,4.3-3.09,1,1,0,0,0,.21-1.12,1,1,0,0,0-.9-.64H159a10.86,10.86,0,0,0,.64-1l.3-.55h-1.29a1.57,1.57,0,0,0-1.37.74,10.36,10.36,0,0,1-4.64,3.52.93.93,0,0,0-.6.91v.9l.48-.16A18.67,18.67,0,0,0,155.73,55,18.88,18.88,0,0,0,158.67,57a44.41,44.41,0,0,1-6.76,1.42.87.87,0,0,0-.7.85v.82l.42,0A44.64,44.64,0,0,0,161,58a43.44,43.44,0,0,0,9.4,2l.42,0V59.3A.87.87,0,0,0,170,58.4Zm-12.24-4.07a2.4,2.4,0,0,0-.53-.27c.14-.11.26-.23.39-.35H165a17.1,17.1,0,0,1-4,2.39A20.54,20.54,0,0,1,157.73,54.33Z"/><path class="cls-1" d="M154,51c0-.48.21-.68.67-.7h12.77c.5,0,.7.22.72.69v1.39h2V51a2.13,2.13,0,0,0-2.28-2.25h-5.81v-.39A1.21,1.21,0,0,0,160.79,47H160v1.67h-5.7A2.1,2.1,0,0,0,152,51v1.41h2Z"/><path class="cls-1" d="M283.52,56.26v-.85l-.5.18c-.59.22-1.12.4-1.62.56V52.23h2.08v-.57a1,1,0,0,0-1.06-1h-1v-2.5A1.11,1.11,0,0,0,280.21,47h-.76v3.66h-2.39v.55a1,1,0,0,0,1,1h1.35v4.46c-.51.12-1.05.21-1.65.29a1,1,0,0,0-.93,1v1l.43-.07c.67-.11,1.38-.25,2.15-.43v4a1.05,1.05,0,0,1-.23.79,1.11,1.11,0,0,1-.78.2,1.07,1.07,0,0,0-.86.28,1,1,0,0,0-.29.78v.57h1.83a2.12,2.12,0,0,0,2.28-2.4V58a12.82,12.82,0,0,0,1.42-.59A1.06,1.06,0,0,0,283.52,56.26Z"/><path class="cls-1" d="M296.7,57.05v-.57a1,1,0,0,0-1-1h-4V54.16a1.27,1.27,0,0,0-.16-.57h4.28v-3a2.33,2.33,0,0,0-2.53-2.5h-7a2.33,2.33,0,0,0-2.49,2.52v6.09c0,2.49,0,4.05-1.47,6.07A2,2,0,0,0,281.9,64v1.36l.61-.53c2.29-2,3.21-3.5,3.15-7.75h4v2.07h-1.33a2.38,2.38,0,0,0-2.63,2.64V65.2h9.92V61.76A2.39,2.39,0,0,0,293,59.12h-1.36V57.05Zm-11.05-6.49c0-.57.27-.82.83-.84H293c.58,0,.82.28.84.84V52h-8.17Zm0,4.91V53.59h4v1.88Zm7,5.23c.74,0,1.06.31,1.06,1v1.88h-6V61.74c0-.73.31-1,1-1Z"/><path class="cls-1" d="M233.49,63.33a15.91,15.91,0,0,1-3.06-3c1.43-2.12,2.24-5.16,2.39-9.07h1.34v-.57a1,1,0,0,0-1.06-1h-4.47a12.19,12.19,0,0,0,.7-2.42l.09-.44h-1.09a1.08,1.08,0,0,0-1.1.91h0a8.1,8.1,0,0,1-2.36,4.34,1.53,1.53,0,0,0-.43,1v1.13l.57-.37c.29-.19.55-.36.77-.53a17.66,17.66,0,0,0,2.45,7,17.41,17.41,0,0,1-3,3,1.28,1.28,0,0,0-.55,1.06v1.11l.58-.38a21.56,21.56,0,0,0,4.08-3.36,19.5,19.5,0,0,0,4.14,3.37l.57.35V64.4A1.34,1.34,0,0,0,233.49,63.33Zm-4.16-4.74a16.36,16.36,0,0,1-1.67-5.7,1.3,1.3,0,0,0-.42-.87,8.73,8.73,0,0,0,.59-.77h3A16.64,16.64,0,0,1,229.33,58.59Z"/><path class="cls-1" d="M223.58,63.57a22.4,22.4,0,0,1-2.35-.73,5.46,5.46,0,0,0,2.43-4.23h1.43V58a1,1,0,0,0-1.06-1h-.33v-1h-.78a1.11,1.11,0,0,0-1.12,1h-4.74a1.09,1.09,0,0,0-1.16-1h-.74v1h-1.48v.53a1,1,0,0,0,1,1h.48a5.63,5.63,0,0,0,2.26,4.17,29,29,0,0,1-3.07.79.87.87,0,0,0-.76.85v.78l.43-.07a26.52,26.52,0,0,0,5.25-1.32,22,22,0,0,0,4.5,1.32l.44.09v-.86A.86.86,0,0,0,223.58,63.57ZM219.33,62a4.18,4.18,0,0,1-2.22-3.37h4.63A4.18,4.18,0,0,1,219.33,62Z"/><path class="cls-1" d="M218.28,52.32h.17V56.1h1.94V52.32h.11a6.17,6.17,0,0,0,3.94,3.94l.5.2v-.92a1,1,0,0,0-.51-.93,4.76,4.76,0,0,1-2-2.29h2.16v-.55a1,1,0,0,0-1.06-1h-1.12a1.22,1.22,0,0,0,1-.6,6,6,0,0,0,.75-2.44l0-.42h-1a1,1,0,0,0-1,.85,7.51,7.51,0,0,1-.67,2.08l-.25.53h-.93V47.92a1.07,1.07,0,0,0-1.17-1.1h-.77v4h-.95l-.26-.53a9.17,9.17,0,0,1-.71-2.07.92.92,0,0,0-1-.86h-1l0,.42a6.83,6.83,0,0,0,.72,2.43,1.19,1.19,0,0,0,1,.61h-2.54v.53a1,1,0,0,0,1,1h1.44a4.9,4.9,0,0,1-2,2.33,1,1,0,0,0-.47.91v.89l.51-.19A6.17,6.17,0,0,0,218.28,52.32Z"/><path class="cls-1" d="M66.85,19.3h0L33.42,0,0,19.3H0V57.89H0l16.05,9.27h0l17.37,10,17.38-10h0l16-9.27V19.3ZM38.72,37.06l9.43-5.44V42.51Zm9.43-10-12.08-7,12.08-7ZM34.75,3.82l12.07,7-12.07,7ZM46.82,29.33l-10.75,6.2-1.32-.76V22.36Zm-16,6.2L20,29.33l12.08-7V34.77ZM32.1,3.82v14L20,10.8ZM18.7,13.09l12.07,7L18.7,27Zm0,18.53,9.42,5.44L18.7,42.51ZM16.05,27,4,20.06l12.08-7ZM32.1,73.36,20,66.39l12.08-7Zm2.65,0V59.42l12.07,7Zm13.36-9.28,0,0h0ZM50.8,27V13.09l12.07,7Z"/><polygon class="cls-1" points="33.42 34.01 18.7 42.51 18.7 64.1 33.42 55.61 48.15 64.1 48.15 42.51 33.42 34.01"/></g></g></svg>